<?xml version="1.0" encoding="UTF-8" standalone="no"?>
<!-- Created with Inkscape (http://www.inkscape.org/) -->

<svg
   xmlns:dc="http://purl.org/dc/elements/1.1/"
   xmlns:cc="http://creativecommons.org/ns#"
   xmlns:rdf="http://www.w3.org/1999/02/22-rdf-syntax-ns#"
   xmlns:svg="http://www.w3.org/2000/svg"
   xmlns="http://www.w3.org/2000/svg"
   xmlns:sodipodi="http://sodipodi.sourceforge.net/DTD/sodipodi-0.dtd"
   xmlns:inkscape="http://www.inkscape.org/namespaces/inkscape"
   version="1.1"
   id="svg2"
   xml:space="preserve"
   width="491.01752"
   height="255.74394"
   viewBox="0 0 491.01752 255.74394"
   sodipodi:docname="logo.svg"
   inkscape:version="0.92.4 (5da689c313, 2019-01-14)"><metadata
     id="metadata8"><rdf:RDF><cc:Work
         rdf:about=""><dc:format>image/svg+xml</dc:format><dc:type
           rdf:resource="http://purl.org/dc/dcmitype/StillImage" /><dc:title></dc:title></cc:Work></rdf:RDF></metadata><defs
     id="defs6"><clipPath
       clipPathUnits="userSpaceOnUse"
       id="clipPath18"><path
         d="M 0,370.525 H 298.814 V 0 H 0 Z"
         id="path16"
         inkscape:connector-curvature="0" /></clipPath></defs><sodipodi:namedview
     pagecolor="#ffffff"
     bordercolor="#666666"
     borderopacity="1"
     objecttolerance="10"
     gridtolerance="10"
     guidetolerance="10"
     inkscape:pageopacity="0"
     inkscape:pageshadow="2"
     inkscape:window-width="1850"
     inkscape:window-height="1016"
     id="namedview4"
     showgrid="false"
     inkscape:zoom="0.95540114"
     inkscape:cx="309.46428"
     inkscape:cy="83.691397"
     inkscape:window-x="70"
     inkscape:window-y="27"
     inkscape:window-maximized="1"
     inkscape:current-layer="g10"
     inkscape:snap-bbox="true"
     inkscape:snap-to-guides="true"
     showguides="true"
     inkscape:guide-bbox="true"
     inkscape:object-paths="true"
     fit-margin-top="0"
     fit-margin-left="0"
     fit-margin-right="0"
     fit-margin-bottom="0"><sodipodi:guide
       position="270.36,61.183929"
       orientation="0,1"
       id="guide3983"
       inkscape:locked="false" /><sodipodi:guide
       position="281.56494,1.1844692"
       orientation="0,1"
       id="guide3985"
       inkscape:locked="false" /><sodipodi:guide
       position="81.530251,-41.201671"
       orientation="1,0"
       id="guide3991"
       inkscape:locked="false" /></sodipodi:namedview><g
     id="g10"
     inkscape:groupmode="layer"
     inkscape:label="J&amp;JJCA_Logo_RGB"
     transform="matrix(1.3333333,0,0,-1.3333333,-58.926518,435.1064)"><g
       id="g20"
       transform="translate(44.8682,269.7168)"><path
         d="m 0,0 c 0.062,-0.586 0.184,-1.161 0.324,-1.734 l 0.403,-1.719 c 0.451,-2.318 1.322,-4.512 2.078,-6.741 0.418,-1.098 0.955,-2.146 1.433,-3.22 l 0.744,-1.598 c 0.245,-0.534 0.579,-1.023 0.864,-1.537 l 1.799,-3.038 c 0.654,-0.978 1.376,-1.915 2.07,-2.87 l 1.055,-1.423 1.177,-1.328 c 0.799,-0.874 1.573,-1.771 2.399,-2.62 1.378,-1.243 2.716,-2.538 4.172,-3.694 h 36.92 c 0.121,0.439 0.245,0.863 0.375,1.252 l 0.016,0.121 c 0.158,2.99 0.459,5.294 0.94,7.176 0.029,0.329 0.066,0.646 0.109,0.948 l -0.063,0.09 0.065,0.466 c 0.021,0.168 0.174,1.122 0.381,2.428 0.222,1.402 0.568,3.23 0.875,4.834 0.183,0.963 0.447,2.344 0.472,2.583 0.034,0.508 0.055,1.086 0.079,1.663 l 0.011,0.32 c 0.004,0.104 0.008,0.207 0.012,0.311 -3.234,0.335 -5.424,1.538 -6.363,3.515 -0.354,0.772 -0.504,1.56 -0.457,2.358 -0.039,0.262 -0.055,0.518 -0.047,0.763 0,0.018 0,0.037 0.002,0.055 l -0.149,0.237 -0.297,1.71 0.432,1.793 -0.717,1.031 0.104,1.787 c 0.019,0.287 0.064,0.568 0.136,0.845 -0.003,0.115 -10e-4,0.229 0.002,0.343 l 0.034,0.235 0.218,0.823 0.663,1.423 0.498,0.68 c 0.242,0.237 0.509,0.451 0.794,0.634 0.846,0.518 1.782,0.839 2.95,1.014 0.035,0.018 0.07,0.036 0.105,0.054 l 0.309,0.979 3.812,-0.019 c 0.02,0.003 0.043,0.005 0.069,0.006 0.056,0.122 0.119,0.241 0.183,0.357 0.01,0.264 0.028,0.542 0.055,0.845 -2.301,0.183 -3.881,0.34 -4.809,0.476 l -1.49,0.217 -0.943,0.82 c -1.983,0.558 -3.006,2.106 -3.307,3.416 l -0.348,1.511 0.748,1.891 -0.087,0.236 c -1.067,0.189 -2.26,0.496 -3.307,1.298 l -0.373,0.288 c -0.313,0.192 -0.603,0.408 -0.864,0.646 l -0.159,-0.105 -0.298,0.479 -0.149,0.116 -0.014,0.145 -0.81,1.312 -0.264,1.803 0.127,0.48 -0.506,0.629 0.008,1.922 c 0,0.061 0.002,0.115 0.006,0.164 l -0.148,0.852 0.064,0.402 c -0.016,0.1 -0.027,0.199 -0.035,0.298 l -0.033,0.187 0.017,0.101 c -0.023,0.079 -0.045,0.158 -0.064,0.239 l -0.485,0.738 0.243,0.334 0.091,0.46 -0.031,0.735 h 0.18 c 0.226,0.954 0.89,2.465 2.831,3.39 l 0.334,0.988 4.021,-0.152 0.231,0.006 h 0.008 c 0.615,0 1.209,-0.03 1.789,-0.09 l 0.549,-0.015 c 0.101,-0.003 0.203,-0.008 0.302,-0.014 l 0.137,0.105 0.496,-0.068 c 1.842,-0.253 3.281,-0.541 4.518,-0.903 0.355,-0.022 0.795,-0.09 1.216,-0.19 1.52,-0.127 2.903,-0.307 4.114,-0.536 l 2.853,-0.237 c 0.756,-0.062 1.539,-0.107 2.323,-0.151 1.56,-0.089 3.103,-0.176 4.587,-0.388 0.299,0.032 0.596,0.061 0.895,0.085 l 0.105,0.123 0.498,0.035 c 1.133,0.081 2.016,0.102 2.979,0.062 0.971,-0.038 4.279,-0.223 6.775,-1.025 2.983,-0.049 5.967,-0.097 8.946,-0.131 0.088,0.007 0.177,0.011 0.271,0.013 0.496,0.01 0.996,0.027 1.493,0.038 -2.676,4.597 -6.188,8.799 -10.454,12.213 -3.857,2.847 -8.172,4.885 -12.392,6.374 -0.787,0.271 -1.6,0.552 -2.432,0.839 -0.41,0.162 -0.844,0.27 -1.283,0.37 -0.436,0.107 -0.877,0.214 -1.322,0.323 -0.893,0.196 -1.78,0.496 -2.707,0.62 -0.928,0.132 -1.86,0.268 -2.791,0.401 -0.928,0.178 -1.872,0.17 -2.803,0.216 -0.932,0.021 -1.856,0.105 -2.762,0.073 -0.144,-0.01 -0.281,-0.019 -0.424,-0.029 -2.025,0.077 -4.047,0.041 -6.039,-0.092 0.608,-0.06 1.197,-0.17 1.772,-0.286 -0.157,-0.028 -0.319,-0.057 -0.473,-0.084 0.115,-0.124 0.08,-0.269 -0.076,-0.431 -2.858,0.098 -5.307,-0.081 -6.446,-0.434 -1.206,-0.235 -2.168,-0.445 -2.92,-0.631 -0.756,-0.16 -1.282,-0.443 -1.651,-0.599 -0.732,-0.353 -0.787,-0.565 -0.443,-0.695 0.348,-0.138 1.09,-0.17 1.974,-0.234 0.897,-0.118 1.93,-0.234 2.842,-0.385 0.227,-0.012 0.395,-0.034 0.539,-0.06 -1.697,-0.576 -3.531,-1.774 -4.254,-2.354 1.008,0.156 3.284,0.418 4.077,0.428 -1.405,-0.304 -2.635,-0.885 -3.645,-1.461 -0.871,-0.092 -1.66,-0.205 -2.375,-0.403 -0.711,-0.184 -2.328,-0.803 -2.592,-0.971 -0.527,-0.339 -2.136,-1.557 -1.631,-1.573 0.961,0.67 2.184,0.629 2.748,0.718 0.061,0.011 0.106,-0.01 0.149,-0.038 -0.49,-0.323 -0.961,-0.652 -1.412,-0.945 -0.858,-0.537 -1.53,-1.134 -2.01,-1.592 -0.484,-0.455 -0.77,-0.78 -0.762,-0.909 0.02,-0.388 -0.049,-0.863 -0.277,-1.459 -0.219,-0.606 -0.531,-1.404 -1.072,-2.338 -0.264,-0.474 -0.592,-0.976 -0.951,-1.549 -0.331,-0.603 -0.709,-1.26 -1.151,-1.97 -0.224,-0.35 -0.461,-0.719 -0.709,-1.106 -0.238,-0.395 -0.451,-0.836 -0.703,-1.278 -0.248,-0.439 -0.512,-0.899 -0.783,-1.382 -0.141,-0.237 -0.285,-0.481 -0.432,-0.73 -0.135,-0.255 -0.252,-0.53 -0.385,-0.802 -0.431,-0.842 -0.98,-1.757 -1.539,-2.7 -0.476,-0.987 -0.986,-1.988 -1.466,-2.921 -0.868,-1.909 -1.465,-3.616 -1.594,-4.273 -0.074,-0.597 0.041,-0.58 0.254,-0.257 0.213,0.321 0.529,0.828 0.836,1.373 0.621,1.073 1.218,2.118 1.072,1.079 0.154,0.399 0.283,0.808 0.453,1.197 l 0.561,1.15 c 0.377,0.762 0.72,1.539 1.111,2.291 l 1.305,2.174 c 0.224,0.355 0.408,0.74 0.662,1.074 l 0.746,1.017 c 1.89,2.787 4.267,5.169 6.763,7.336 l 0.125,0.099 c -0.136,-0.133 -0.285,-0.267 -0.416,-0.4 -2.482,-2.636 -4.439,-5.745 -6,-8.911 0.538,0.626 1.151,1.152 1.684,1.675 0.561,0.502 1.035,1.012 1.588,1.388 -2.25,-2.677 -4.057,-5.721 -4.332,-7.071 -0.635,-1.753 -0.924,-2.834 -0.904,-3.477 -0.014,-0.631 0.156,-0.77 0.441,-0.627 0.287,0.142 0.672,0.573 1.133,1.075 0.504,0.488 1.06,1.054 1.596,1.526 0.593,0.712 0.81,0.474 1.062,0.301 -1.242,-2.414 -2.189,-5.014 -2.795,-7.755 -0.279,-0.32 -0.555,-0.644 -0.834,-0.975 C 28.574,15.457 27.943,14.488 27.297,13.497 25.539,9.55 24.865,5.215 25.164,1.025 c 0.213,0.117 0.408,0.17 0.496,-0.238 0.059,-0.821 0.201,-1.786 0.281,-2.849 -0.656,1.239 -1.261,2.745 -1.843,4.542 -0.213,0.944 -0.395,2.031 -0.549,3.144 -0.092,1.117 -0.098,2.269 -0.125,3.334 -0.028,0.533 0.002,1.046 0.043,1.526 0.029,0.479 0.058,0.924 0.084,1.325 0.041,0.804 0.051,1.424 -0.006,1.771 -0.072,0.46 -0.195,0.431 -0.342,0.16 -0.144,-0.273 -0.291,-0.932 -0.441,-1.549 -0.299,-1.255 -0.584,-2.551 -0.778,-1.443 -0.076,-0.927 -0.027,-1.855 0.022,-2.781 0.062,-0.926 0.06,-1.86 0.195,-2.777 0.27,-1.838 0.524,-3.679 1.055,-5.46 0.408,-1.812 1.127,-3.522 1.771,-5.255 0.377,-0.842 0.793,-1.665 1.198,-2.494 0.211,-0.41 0.4,-0.832 0.629,-1.231 l 0.72,-1.179 c 3.088,-5.174 7.43,-9.519 12.479,-12.76 -2.672,1.461 -5.254,3.32 -7.494,5.49 -3.399,3.235 -5.989,7.081 -7.795,10.45 -1.825,3.023 -3.145,6.46 -4.133,10.02 -0.051,-0.873 0.017,-1.7 0.076,-2.492 0.045,-0.8 0.086,-1.559 0.125,-2.267 -0.377,1.867 -0.857,3.71 -1.002,5.321 -0.111,0.798 -0.225,1.523 -0.338,2.138 -0.056,0.621 -0.117,1.133 -0.197,1.497 -0.111,1.018 -0.223,1.839 -0.33,2.492 -0.041,0.653 -0.098,1.139 -0.164,1.478 -0.135,0.68 -0.315,0.787 -0.528,0.529 C 18.061,11.208 17.812,10.583 17.543,9.812 17.283,9.042 17.121,8.122 16.879,7.283 16.695,6.082 16.408,6.271 16.123,6.3 15.982,6.312 15.842,6.283 15.715,6.007 15.592,5.732 15.559,3.227 15.588,2.258 c -0.141,0.936 -0.184,3.606 -0.19,3.888 -0.091,2.11 0,3.329 0.041,4.074 C 15.34,10.306 15.105,9.565 15.061,9.172 15.018,8.779 14.953,8.165 14.973,7.191 c 0.056,-0.974 0.103,-2.42 -0.129,-1.949 -0.076,1.351 -0.221,2.725 -0.192,3.901 0.032,1.175 0.551,4.482 0.598,5.184 -0.156,-0.231 -0.611,-1.136 -0.83,-3.131 -0.004,-0.734 -0.188,-0.587 -0.174,-0.233 0.025,0.704 0.098,1.144 -0.07,1.295 -0.067,0.059 -0.227,-0.636 -0.305,-1.517 C 13.84,10.3 13.76,9.835 13.76,9.366 c 0.008,-0.47 0.029,-1.016 0.035,-1.375 -0.176,0.165 -0.234,1.339 -0.24,1.858 0.011,0.519 0.297,3.196 0.302,3.988 0.086,1.579 0.176,2.775 0.125,3.458 -0.062,1.358 -0.593,0.665 -1.539,-3.421 0.161,1.438 0.553,3.147 0.879,4.875 0.453,1.701 0.961,3.403 1.285,4.892 C 14.602,23.64 14.596,23.628 14.59,23.622 14.1,22.133 14.246,23.124 14.246,23.124 14.084,22.889 14.033,22.805 13.859,22.515 13.469,21.273 12.688,19.264 13.4,21.725 12.965,20.944 12.703,20.364 12.232,19.329 11.943,18.315 11.656,17.309 11.379,16.335 11.107,15.355 10.795,14.41 10.66,13.497 10.344,11.681 10.002,10.081 10.041,8.918 9.936,4.22 10.57,-0.489 11.709,-5.087 c 0.939,-3.547 2.307,-6.982 4.014,-10.258 -0.078,0.094 -0.157,0.188 -0.233,0.282 -0.338,0.414 -0.595,0.88 -0.89,1.319 -0.407,0.67 -0.829,1.364 -1.26,2.074 -0.453,0.703 -0.733,1.516 -1.111,2.292 -0.342,0.794 -0.747,1.577 -1.043,2.408 -0.272,0.84 -0.543,1.686 -0.817,2.53 -0.133,0.422 -0.279,0.84 -0.398,1.266 -0.09,0.432 -0.18,0.863 -0.27,1.293 C 9.52,-1.026 9.342,-0.178 9.166,0.657 9.043,1.499 8.977,2.333 8.879,3.14 8.811,3.949 8.641,4.728 8.666,5.492 8.285,5.232 7.926,5.964 7.576,7.201 7.418,7.82 7.189,8.563 7.096,9.365 7.01,10.178 6.918,11.038 6.828,11.882 c -0.045,0.43 -0.088,0.853 -0.133,1.266 -0.011,0.411 -0.023,0.81 -0.033,1.187 -0.023,0.761 -0.066,1.444 -0.137,1.977 -0.144,1.069 -0.408,1.551 -0.927,0.831 0.177,1.094 0.588,2.28 0.888,3.495 0.28,1.221 0.743,2.394 1.119,3.46 0.684,2.16 1.45,3.739 1.313,3.998 -0.186,0.377 -0.313,0.896 -0.322,1.652 -0.002,0.378 0.011,0.821 0.088,1.319 0.099,0.488 0.242,1.044 0.439,1.678 0.398,1.263 0.953,2.879 2.068,4.716 1.006,1.916 2.571,4.03 4.682,6.449 0.898,0.873 1.961,1.822 3.064,2.769 1.157,0.881 2.405,1.698 3.543,2.481 0.288,0.191 0.563,0.391 0.846,0.561 0.289,0.16 0.57,0.317 0.844,0.468 0.543,0.304 1.051,0.586 1.506,0.84 0.906,0.516 1.599,0.932 1.949,1.211 0.5,0.376 0.402,0.452 0.008,0.376 -0.397,-0.08 -1.182,-0.412 -1.942,-0.714 -1.531,-0.621 -3.086,-1.272 -1.972,-0.37 -1.059,-0.556 -2.024,-1.253 -2.992,-1.948 -0.959,-0.707 -1.973,-1.343 -2.87,-2.124 l -2.683,-2.355 -0.666,-0.593 -0.61,-0.65 -1.216,-1.302 C 10.996,40.876 9.648,38.916 8.211,37.035 7.559,36.048 6.955,35.03 6.334,34.024 6.035,33.516 5.707,33.021 5.432,32.5 L 4.65,30.909 C 0.381,22.479 -1.309,12.865 -0.461,3.5 Z"
         style="fill:#e2000b;fill-opacity:1;fill-rule:nonzero;stroke:none"
         id="path22"
         inkscape:connector-curvature="0" /></g><g
       id="g24"
       transform="translate(101.9063,275.5161)"><path
         d="M 0,0 C -0.18,0.039 -0.352,0.078 -0.607,0.068 -0.67,0.047 -0.701,0.035 -0.717,0.029 -0.623,0.006 -0.494,-0.024 -0.367,-0.055 -0.115,-0.115 0.014,-0.067 0,0"
         style="fill:#181716;fill-opacity:1;fill-rule:nonzero;stroke:none"
         id="path26"
         inkscape:connector-curvature="0" /></g><g
       id="g28"
       transform="translate(173.6348,271.9185)"><path
         d="M 0,0 C -0.08,-0.022 -0.078,-0.053 0.006,-0.076 0.08,-0.094 1.227,-0.098 1.309,-0.074 1.375,-0.055 1.371,-0.017 1.301,0.002 1.217,0.024 0.068,0.021 0,0"
         style="fill:#181716;fill-opacity:1;fill-rule:nonzero;stroke:none"
         id="path30"
         inkscape:connector-curvature="0" /></g><g
       id="g32"
       transform="translate(179.7832,301.6309)"><path
         d="m 0,0 -0.109,0.082 -0.104,-0.123 0.059,0.111 -0.237,-0.078 c 0.118,0.047 0.176,0.071 0.215,0.086 0.045,0.006 0.1,0.008 0.145,0.012 0.07,0 0.107,0.009 0.135,0.019 C 0.115,0.101 0.127,0.094 0.146,0.088 0.014,0.008 0,0 0,0 m -0.562,-5.341 -0.458,0.59 0.493,-0.563 z m -0.598,2.54 c -0.026,0.013 -0.051,0.025 -0.078,0.035 l -0.106,-0.018 c 0.026,-0.007 0.051,-0.012 0.076,-0.017 -2.359,0.009 -5.406,-0.018 -5.568,0.142 0.19,0.077 1.17,0.178 0.936,0.225 -0.08,0.017 -0.174,0.025 -0.272,0.023 l 0.002,0.002 c 0.104,0.065 0.133,0.086 0.272,0.159 0.187,0.033 0.3,0.052 0.3,0.052 0.506,0.07 0.164,-0.101 0.608,-0.039 0.103,0.029 0.543,0.055 1.123,0.084 -0.205,-0.072 -0.32,-0.164 -0.262,-0.256 0.043,-0.064 0.166,-0.119 0.346,-0.152 l 0.379,-0.024 c 0.517,-0.011 1.056,-0.029 1.556,-0.07 0.233,-0.025 0.45,-0.057 0.61,-0.111 l 0.129,0.025 c 0.037,-0.009 0.066,-0.019 0.101,-0.025 -0.051,-0.01 -0.101,-0.022 -0.15,-0.035 z m -2.356,-3.702 c -0.287,0.012 -0.416,0.008 -0.718,-0.014 -0.813,-0.058 -0.756,0.211 -1.534,0.129 0.098,0.086 -0.089,0.068 -0.187,0.072 l -0.293,0.004 c 0.82,0.104 1.652,0.211 2.506,0.321 0.763,0.101 0.576,-0.329 1.297,-0.202 -0.483,-0.161 -0.713,-0.115 -1.071,-0.31 m -7.502,6.368 0.106,0.053 -0.59,-0.102 -0.064,-0.008 0.441,0.194 0.311,0.064 c 1.58,0.143 2.22,0.434 3.55,0.676 0.475,-0.092 1.028,-0.18 1.635,-0.25 C -6.678,0.416 -7.721,0.303 -8.734,0.111 -9.502,0.029 -10.26,-0.053 -11.018,-0.135 m 6.192,-0.334 c 0.094,0.039 0.002,0.127 0.053,0.139 1.023,0.211 2.343,0.248 3.507,0.318 -0.349,-0.166 -0.451,-0.508 -0.939,-0.57 -0.053,-0.026 -0.096,-0.051 -0.135,-0.076 -0.058,0.025 -0.172,0.037 -0.285,0.023 l -0.311,-0.035 -0.066,0.012 v 0.009 c -0.107,0.014 -0.18,0.024 -0.264,0.037 -0.052,0.006 -0.054,0.008 -0.054,0.008 l -0.002,-0.002 c -0.182,0.024 -0.446,0.061 -1.141,0.157 -0.174,-0.026 -0.342,-0.051 -0.512,-0.075 z m -8.516,-13.002 -0.107,0.008 c 0.719,0.101 0.338,0.035 0.107,-0.008 m -2.5,2.262 v 0.002 c -0.07,0.119 -0.23,0.229 -0.445,0.326 0.014,0.006 0.025,0.014 0.039,0.022 0.275,-0.006 0.553,-0.012 0.828,-0.018 z m -2.574,-3.104 c -0.002,0.037 -0.004,0.248 -0.006,0.285 0.258,-0.023 0.535,-0.045 0.846,-0.07 0.002,-0.023 0.004,-0.217 0.008,-0.244 -0.274,0.01 -0.561,0.019 -0.848,0.029 m 2.441,-19.639 c 0.393,0.013 0.75,0.05 1.063,0.107 1.394,-0.057 0.377,-0.115 1.351,-0.172 -0.662,-0.033 -1.335,-0.06 -2.019,-0.082 -0.533,0.049 -0.818,0.099 -0.395,0.147 m 2.83,0.941 c 1.25,0.088 2.497,0.195 3.762,0.323 -0.672,-0.21 -1.283,-0.409 -3.707,-0.416 l -0.545,0.007 c 0.176,0.031 0.336,0.059 0.49,0.086 m 8.286,2.387 -0.02,-0.004 c -0.055,0 -0.098,0 -0.148,0.002 0.06,0 0.107,0 0.168,0.002 m -7.631,-4.143 c -0.033,0.006 -0.069,0.006 -0.104,0.008 0.196,-0.002 0.387,-0.006 0.104,-0.008 m -3.028,-21.181 0.077,0.532 0.166,-1.098 0.089,-0.463 c 0.18,-1.921 0.467,-3.882 0.536,-5.962 -0.125,0.978 -0.434,1.939 -0.596,2.854 l -1.004,5.989 0.873,-2.737 z m 1.299,-13.549 c -0.01,-0.344 -0.035,-0.125 -0.037,-0.222 -0.012,-0.098 0.067,-1.631 0.067,-1.631 -0.061,-0.018 -0.061,-0.018 -0.079,-0.079 -0.019,-0.021 -0.045,-0.017 -0.045,-0.017 -0.082,0.187 -0.082,0.187 -0.103,0.193 -0.022,0.043 -0.039,0.105 -0.039,0.105 -0.041,0.225 -0.033,0.071 -0.037,0.106 0.115,0.496 -0.053,0.471 -0.053,0.471 l -0.062,0.103 0.062,0.116 -0.06,-0.067 0.019,0.246 -0.033,-0.285 c -0.026,0.582 -0.026,0.582 -0.045,0.813 -0.012,0.24 -0.049,0.445 -0.051,0.472 -0.017,-0.023 -0.033,-0.023 -0.033,-0.023 -0.025,0.614 -0.025,0.614 -0.049,1.221 0.012,0.058 0.024,0.102 0.031,0.143 -0.019,0.058 -0.043,0.172 -0.047,0.293 l -0.013,0.316 -0.016,0.068 -0.004,-0.003 c -0.021,0.109 -0.039,0.181 -0.054,0.267 -0.01,0.051 -0.01,0.055 -0.01,0.055 v 0.002 c -0.039,0.183 0.16,0.482 0.019,1.183 -0.004,0.182 -0.009,0.358 -0.011,0.528 l 0.357,-1.895 z m -0.611,-5.37 c -0.008,-0.003 -0.012,-0.008 -0.016,-0.013 -0.084,0.289 -0.088,0.299 -0.088,0.299 0.053,-0.147 0.082,-0.229 0.104,-0.286 m -0.053,-0.066 c -0.066,0.066 -0.088,0.088 -0.088,0.088 0.059,-0.037 0.08,-0.049 0.1,-0.061 -0.006,-0.009 -0.008,-0.019 -0.012,-0.027 m -3.99,59.087 c -0.1,-0.008 -0.184,-0.133 -0.25,-0.336 -0.01,0.148 -0.023,0.297 -0.037,0.443 0.115,0.006 0.236,0.014 0.353,0.022 0.002,-0.051 0.008,-0.106 0.01,-0.158 -0.023,0.017 -0.051,0.029 -0.076,0.029 m -0.43,1.564 c -0.004,0.034 -0.006,0.237 -0.009,0.272 0.13,0.006 0.271,0.004 0.388,0.021 0.002,-0.048 0.006,-0.262 0.008,-0.308 -0.137,0.005 -0.27,0.01 -0.387,0.015 m -4.468,-49.374 -0.18,4.737 0.91,-6.864 z m 0.402,-8.232 -0.018,-0.439 c -0.101,1.24 -0.197,3.334 -0.302,4.608 -0.096,1.143 -0.159,2.391 -0.29,3.479 0.161,-0.649 0.354,-1.154 0.553,-1.629 -0.025,-0.428 -0.031,-0.877 -0.015,-1.329 0.039,-1.218 0.095,-3.25 0.17,-4.416 -0.106,0.152 -0.09,-0.131 -0.098,-0.274 m -0.93,37.213 c -4.008,-0.922 -16.769,-1.372 -20.881,-1.231 l -3.283,0.053 0.158,-0.045 -0.845,0.019 -0.094,-0.007 7.627,0.789 0.211,-0.037 c 0.138,-0.031 0.011,-0.149 0.086,-0.151 1.84,-0.09 14.879,0.889 16.849,0.926 0.356,0.039 0.686,0 0.742,-0.084 0.045,-0.088 -0.21,-0.195 -0.57,-0.232 m -25.385,9.824 c 0.004,-0.291 -0.082,-0.553 0.036,-0.819 -0.063,-0.193 -0.125,-0.371 -0.061,-0.547 -0.094,0.002 -0.186,0.006 -0.279,0.008 -0.815,0.006 -1.569,-0.049 -2.332,-0.131 0.357,-0.022 0.701,-0.041 1.058,-0.063 -1,-0.017 -1.857,-0.138 -2.701,-0.267 -0.926,0.121 -1.924,0.201 -2.955,0.244 -0.219,0.078 -0.541,0.129 -0.926,0.135 -0.16,0.025 -0.347,0.041 -0.465,0.074 -0.261,0.076 -0.535,0.145 -0.826,0.211 0.03,0.607 0.049,1.203 0.084,1.818 -0.01,3.273 -0.056,5.584 -0.137,8.047 2.303,-0.116 4.612,-0.215 6.975,-0.268 0.76,0.037 1.502,0.057 2.244,0.076 -0.01,-0.285 -0.027,-0.584 -0.045,-0.924 0.002,-0.043 0.028,-0.076 0.065,-0.078 0.039,0 0.07,0.03 0.072,0.067 0.022,0.347 0.035,0.652 0.045,0.939 0.269,0.006 0.541,0.014 0.811,0.02 0.029,-0.502 0.048,-1.003 0.074,-1.518 -0.024,-0.121 -0.037,-0.242 -0.02,-0.362 l 0.051,-0.363 c 0.021,-0.953 0.121,-1.893 0.043,-2.828 -0.17,1.107 -0.527,2.717 -0.832,3.797 -0.016,0.078 -0.086,0.125 -0.156,0.115 -0.071,-0.019 -0.118,-0.093 -0.104,-0.171 0.231,-1.513 0.539,-3.55 0.694,-5.072 -0.168,-0.123 -0.424,-1.676 -0.413,-2.14 m 0.039,-0.809 c 0.018,0.125 0.036,0.242 0.055,0.367 0.014,-0.129 -0.019,-0.25 -0.055,-0.367 m 1.217,8.638 c -0.025,0 -0.049,-0.006 -0.074,-0.012 -0.004,0.242 -0.008,0.486 -0.012,0.731 0.133,0.002 0.268,0.002 0.401,0.005 -0.018,-0.267 -0.037,-0.533 -0.041,-0.795 -0.08,0.049 -0.174,0.077 -0.274,0.071 m 0.092,-7.038 c 0.313,0.121 0.59,-0.766 0.445,-2.53 -0.07,-0.891 -0.14,-1.791 -0.195,-2.452 -0.033,0.112 -0.103,0.325 -0.238,0.751 -0.178,1.763 -0.084,2.979 -0.012,4.231 m -16.662,15.543 c -1.313,0.033 -2.09,0.188 -3.332,0.236 -0.318,0 -0.537,0.024 -0.496,0.053 0.037,0.027 0.338,0.047 0.648,0.043 4.157,0.06 8.889,0.137 12.194,-0.088 0.757,0 1.488,-0.015 2.093,-0.058 h 0.032 l -0.463,0.056 c 0.564,-0.011 0.861,-0.058 1.377,-0.078 l -0.184,0.078 c 2.791,-0.041 5.815,-0.121 8.395,-0.225 0.103,-0.002 0.201,-0.004 0.298,-0.007 l -1.687,-0.129 -2.973,-0.024 -0.443,0.016 c -2.533,0.02 -12.699,0.129 -15.459,0.127 m 4.16,-9.525 c -0.016,-0.084 -0.029,-0.174 -0.037,-0.274 l -0.221,-2.058 0.033,0.719 c 0.034,0.476 -0.041,1.568 -0.169,1.609 -0.053,0.004 -0.108,-0.738 -0.157,-0.847 -0.017,0.974 -0.072,1.922 -0.111,2.881 0.256,-0.014 0.514,-0.026 0.77,-0.043 -0.036,-0.67 -0.073,-1.334 -0.108,-1.987 m -0.398,-30.895 c 0.021,0.32 0.033,0.601 0.031,0.793 -0.012,-0.098 -0.027,-0.199 -0.039,-0.295 l -0.08,-0.805 c -0.18,-1.824 -0.383,-2.248 -0.459,-0.961 -0.076,1.28 0.01,3.794 0.189,5.614 l -0.049,-0.199 c 0.028,0.592 0.073,1.117 0.114,1.643 -0.037,-0.352 -0.076,-0.715 -0.114,-1.071 0.143,1.835 0.297,2.138 0.469,3.493 0.018,0.152 0.035,0.397 0.055,0.606 0.051,0.959 0.148,1.648 0.211,1.552 0.066,-0.099 0.078,-0.947 0.029,-1.898 0.049,-2.651 -0.041,-5.39 -0.357,-8.472 m -5.577,-24.504 -0.693,0.702 0.729,-0.651 z m -1.099,1.211 c 0.174,1.032 0.285,2.212 0.426,3.298 0.152,1.209 -0.037,2.404 0.109,3.579 v -0.419 c 0.004,-0.138 0.316,-0.415 0.428,-0.275 -0.119,-1.108 -0.223,-2.235 -0.313,-3.391 -0.031,-0.43 -0.045,-0.856 -0.033,-1.266 -0.217,-0.442 -0.43,-0.916 -0.617,-1.526 m 6.773,70.349 c 1.119,0.299 4.08,0.066 6.151,0.125 l 0.804,-0.055 c 0.698,-0.049 1.157,-0.164 1.022,-0.256 -0.057,-0.041 -0.231,-0.074 -0.488,-0.088 l -0.536,-0.006 c -1.502,0.02 -1.869,0.035 -0.804,-0.109 0.224,-0.024 0.291,-0.344 0.191,-0.371 -0.119,-0.026 -0.387,0.064 -0.603,0.088 -1.407,0.127 -5.145,0.252 -5.061,0.386 -0.043,0.096 -0.928,0.217 -0.676,0.286 m 20.096,-16.026 c -0.055,-0.004 -0.103,-0.022 -0.145,-0.057 -0.113,0.344 -0.244,1.09 -0.388,1.673 h 0.767 0.075 c 0.017,-0.184 0.033,-0.368 0.035,-0.553 -0.008,-0.022 -0.016,-0.049 -0.018,-0.077 -0.019,-0.185 -0.308,0.039 -0.381,-0.056 0.057,-0.319 0.149,-0.932 0.055,-0.93 m -2.871,16.182 c 2.451,0.002 4.896,0.017 7.314,0.09 0.086,0 0.145,0.014 0.205,0.025 0.606,0.002 1.211,0.01 1.819,0.016 0.488,-0.029 0.98,-0.049 1.471,-0.075 C -35,-1.846 -36.9,-2.012 -38.84,-2.128 l -0.451,-0.011 c -1.941,0.088 -3.861,0.201 -5.768,0.328 0.381,0.029 0.764,0.058 1.145,0.086 m 13.603,-14.422 c 0.698,0.012 1.374,0.039 2.065,0.053 -0.037,-2.46 -0.057,-4.935 -0.049,-7.451 0.066,-1.101 0.109,-2.172 0.156,-3.248 -0.697,-0.004 -1.39,-0.006 -2.086,0.015 -0.113,0.002 -0.209,-0.021 -0.224,-0.05 -0.006,-0.03 0.074,-0.055 0.181,-0.059 0.711,-0.021 1.422,-0.021 2.133,-0.014 0.006,-0.142 0.016,-0.285 0.02,-0.427 -1.926,-0.114 -3.852,-0.223 -5.78,-0.255 -0.316,0.141 -0.734,0.262 -1.214,0.368 1.314,0.057 2.629,0.119 3.931,0.203 0.223,0.01 0.367,0.063 0.346,0.123 -0.039,0.055 -0.238,0.096 -0.459,0.088 -1.879,-0.053 -3.762,-0.09 -5.645,-0.123 -0.08,0.008 -0.156,0.016 -0.236,0.025 -0.117,1.217 -0.269,2.436 -0.514,3.69 -0.316,1.649 -0.369,3.817 -0.451,5.443 -0.154,0.579 -0.371,1.052 -0.609,1.496 2.478,0.025 4.914,0.086 7.334,0.172 0.369,-0.018 0.728,-0.027 1.101,-0.049 m 6.352,0.183 c -0.002,-0.304 -0.004,-0.627 -0.01,-0.998 -0.049,0.114 -0.273,-0.498 -0.328,-0.502 -0.127,-0.043 -0.199,-0.475 -0.164,-0.973 l 0.037,-4.149 -0.232,5.55 c -0.008,0.104 -0.024,0.201 -0.037,0.287 -0.014,0.199 -0.02,0.457 -0.028,0.748 0.254,0.01 0.508,0.026 0.762,0.037 m -45.926,-12.55 c -0.035,0.016 -0.074,0.031 -0.111,0.045 0.006,0.078 0.01,0.326 0.019,0.402 0.039,-0.004 0.079,-0.008 0.118,-0.011 -0.008,-0.088 -0.016,-0.346 -0.026,-0.436 m -0.414,0.162 c -0.197,0.07 -0.408,0.303 -0.646,0.363 0.207,-0.023 0.437,-0.037 0.656,-0.053 -0.002,-0.048 -0.006,-0.263 -0.01,-0.31 m -2.269,-34.101 c -0.047,0.352 -0.106,0.688 -0.172,1.014 0,0.004 0.002,0.008 0.004,0.014 0.078,1.945 0.736,9.14 0.882,10.929 l 0.073,0.315 0.226,0.455 -0.004,-0.063 -0.109,-0.601 0.063,0.113 0.099,-2.301 c -0.379,-1.864 -0.889,-6.231 -1.062,-9.875 m -2.961,35.13 c 0.006,0 0.011,0.002 0.015,0.004 0.037,-0.004 0.076,-0.007 0.114,-0.009 -0.045,0.002 -0.084,0 -0.129,0.005 m 4.334,26.551 c -0.907,0.071 -1.813,0.143 -2.723,0.215 -1.357,0.203 -2.742,0.512 -4.127,0.596 0.457,0.058 0.836,0.121 1.17,0.18 1.805,-0.221 3.539,-0.491 5.432,-0.614 l 0.369,-0.062 0.453,-0.18 -0.703,-0.084 z m -3.746,-6.061 c -0.114,-0.006 -0.336,0.01 -0.217,-0.074 -0.928,0.072 -1.867,0.132 -2.836,0.179 -0.358,0.018 -0.713,0.018 -1.055,0.002 -0.375,0.164 -0.773,0.326 -1.287,0.463 0.863,-0.119 1.854,0.041 2.76,-0.049 1.013,-0.097 2.187,-0.236 3.166,-0.328 z m -5.364,3.842 h -0.002 c -0.068,0.037 -0.15,0.082 -0.256,0.139 0,0 0.112,-0.059 0.258,-0.139 m -4.023,-2.955 -0.043,0.027 0.57,0.569 z m 0.889,5.34 c 0.043,0.01 0.085,0.023 0.128,0.03 l 0.014,-0.002 c -0.049,-0.008 -0.096,-0.018 -0.142,-0.028 M 1.465,-2.932 c 0.058,0.05 -0.186,0.078 -0.613,0.099 0.209,0.083 0.324,0.186 0.293,0.289 0.029,0.145 0.171,0.309 -0.006,0.421 -0.182,0.113 -0.424,0.191 -0.694,0.245 0.266,0.407 0.143,0.836 0.076,0.995 l -0.084,0.047 c 0.327,0.078 0.352,0.592 0.448,0.615 0.092,0.037 0.154,0.078 0.154,0.078 0.012,0.098 0.012,0.098 0.066,0.135 C 1.123,0.031 1.117,0.066 1.117,0.066 0.922,0.164 0.922,0.164 0.916,0.195 0.869,0.222 0.809,0.242 0.809,0.242 0.586,0.265 0.498,0.272 0.459,0.277 0.412,0.248 0.391,0.234 0.352,0.211 0.334,0.226 0.318,0.236 0.303,0.248 0.246,0.229 0.205,0.215 0.137,0.195 c 0,0.012 -0.002,0.027 0.004,0.043 0.029,0.078 0.187,0.137 -0.069,0.135 -0.351,0.045 -0.72,0.062 -1.08,0.092 0.373,0.054 0.733,0.119 1.051,0.209 -0.225,-0.03 -0.42,-0.039 -0.555,-0.008 0.067,0.024 0.139,0.051 0.203,0.074 L -0.76,1.068 c 1.27,0.336 1.555,0.885 0.647,1.229 -0.908,0.342 -2.336,0.35 -3.606,0.015 l 0.137,0.12 C -3.998,2.408 -4.365,2.336 -4.734,2.268 l 0.75,0.217 C -5.27,2.258 -6.43,1.983 -7.375,1.619 -7.48,1.58 -7.652,1.555 -7.797,1.522 -8.145,1.496 -8.166,1.426 -8.1,1.34 -9.395,1.18 -10.607,0.935 -11.814,0.568 -12.346,0.537 -12.857,0.463 -13.273,0.338 l -0.026,-0.004 0.32,0.158 c -0.396,-0.054 -0.601,-0.182 -0.96,-0.25 l 0.123,0.201 C -15.77,0.222 -17.893,0.17 -19.693,-0.201 L -19.9,-0.229 c -0.791,0.094 -1.586,0.184 -2.514,0.155 0.312,0.037 0.617,0.072 0.93,0.109 -0.334,0.025 -0.666,0.041 -1.002,0.049 l -0.002,0.056 c -0.008,-0.021 -0.018,-0.037 -0.026,-0.056 -0.338,0.004 -0.681,0 -1.037,-0.022 -1.947,-0.117 -4.115,-0.527 -5.121,-1.086 -3.783,-0.129 -7.568,-0.275 -11.344,-0.342 -0.054,-0.003 -0.095,-0.013 -0.142,-0.019 -3.346,0.037 -6.696,0.093 -10.041,0.15 -1.213,0.545 -3.797,0.924 -6.115,1.014 -0.856,0.035 -1.655,0.002 -2.456,-0.055 0.374,-0.033 0.737,-0.064 1.11,-0.097 -1.104,0.017 -2.049,-0.086 -2.981,-0.192 l -0.25,0.024 c -2.148,0.349 -4.672,0.371 -7,0.564 l 0.153,-0.199 c -0.43,0.064 -0.678,0.189 -1.151,0.239 l 0.385,-0.155 -0.027,0.004 c -0.502,0.119 -1.11,0.185 -1.74,0.209 -1.426,0.344 -3.174,0.572 -5.01,0.711 -0.235,0.084 -0.582,0.149 -1,0.174 -0.172,0.029 -0.379,0.052 -0.506,0.088 -1.129,0.353 -2.516,0.613 -4.049,0.822 0.297,-0.068 0.602,-0.14 0.895,-0.207 -0.442,0.062 -0.879,0.127 -1.373,0.145 l 0.168,-0.116 c -1.52,0.317 -3.618,0.284 -4.686,-0.07 -1.074,-0.356 -0.715,-0.901 0.805,-1.219 l 0.291,-0.068 c -0.577,-0.045 -1.078,-0.152 -1.422,-0.336 -0.211,-0.116 -0.037,-0.278 0.004,-0.422 -0.067,-0.206 0.543,-0.405 1.359,-0.446 0.232,-0.01 0.404,-0.007 0.549,0.01 0.816,-0.107 1.435,-0.215 2.389,-0.324 0.181,-0.027 0.402,-0.014 0.5,0.031 0.082,0.045 0.005,0.105 -0.182,0.131 -0.719,0.137 -1.115,0.274 -1.715,0.414 0.141,0.026 0.291,0.049 0.441,0.069 1.012,-0.108 1.915,-0.225 2.995,-0.399 0.06,-0.01 -0.047,-0.1 0.068,-0.137 l 0.176,-0.054 c -0.199,0.023 -0.401,0.045 -0.608,0.07 -0.826,-0.107 -1.136,-0.148 -1.351,-0.174 l -0.004,0.002 c 0,0 -0.002,-0.002 -0.065,-0.01 -0.099,-0.013 -0.185,-0.023 -0.312,-0.039 0,0 0.002,-0.004 0.002,-0.011 l -0.08,-0.012 -0.365,0.031 c -0.139,0.012 -0.274,0 -0.342,-0.026 -0.047,0.024 -0.098,0.048 -0.162,0.075 -0.703,0.064 -0.196,0.064 -0.907,0.129 0,0 0,-0.024 0.022,-0.057 -0.029,-0.002 -0.27,-0.019 -0.549,0.002 -0.269,0.004 0.238,0.004 -0.434,0.065 l 0.325,-0.104 -0.284,0.074 0.073,-0.109 -0.129,0.119 -0.125,-0.082 c 0,0 -0.002,0 -0.553,0.27 -0.045,-0.006 -0.15,-0.014 -0.414,-0.038 0,0 -0.074,-0.021 -0.127,-0.05 -0.008,-0.03 -0.008,-0.03 -0.234,-0.131 0,0 -0.008,-0.035 0.013,-0.074 0.069,-0.036 0.069,-0.036 0.082,-0.137 0,0 0.077,-0.039 0.19,-0.074 0.113,-0.02 0.141,-0.026 0.533,-0.1 l -0.1,-0.049 c -0.082,-0.178 -0.082,-0.178 0.405,-0.613 0,0 -1.416,-0.123 -0.969,-0.219 0.527,-0.053 0.527,-0.053 1.131,-0.117 0,0 -0.373,-0.018 -0.151,-0.047 0.168,-0.074 0.206,-0.092 0.329,-0.158 l 0.002,-0.002 c -0.047,0 -0.086,-0.006 -0.129,-0.008 0.287,-0.018 -0.073,-0.314 -0.284,-0.244 -0.31,-0.268 -0.138,-0.526 0.237,-0.778 -0.119,-0.088 -0.176,-0.183 -0.164,-0.283 -0.455,-0.223 -0.403,-0.975 -0.528,-1.239 l -0.06,-0.232 c 0.123,-0.203 0.492,-0.4 1.045,-0.559 l 0.166,-0.062 -0.164,-0.188 c 0.697,-0.535 2.941,-0.482 3.799,-1 l 0.646,-0.281 c 0.471,-0.223 1.221,-0.4 2.102,-0.5 l 0.933,-0.102 0.592,-0.027 c -1.004,-0.209 -1.732,-0.547 -1.561,-0.924 0.096,-0.203 0.424,-0.389 0.889,-0.553 -2.596,-0.146 -1.992,-0.256 0.738,-0.334 -0.98,-0.004 -1.957,-0.01 -2.937,-0.016 -0.088,0.006 -0.178,-0.015 -0.209,-0.044 -0.029,-0.03 0.019,-0.055 0.109,-0.061 1.532,-0.109 3.098,-0.168 4.676,-0.215 -0.242,-0.103 -1.234,-0.228 -1.207,-0.359 0.027,-0.133 0.223,-0.244 0.523,-0.313 l -1.07,-0.062 c -0.221,-0.016 -0.39,-0.078 -0.383,-0.143 0.01,-0.072 0.188,-0.115 0.397,-0.105 0,0 -2.41,-0.161 -2.41,-0.192 -0.004,-0.094 0.617,-0.039 0.673,-0.023 1.653,0.066 4.381,0.029 0.647,-0.258 -0.025,-0.008 -0.055,-0.016 -0.066,-0.029 -0.022,-0.026 0.039,-0.055 0.117,-0.059 l 0.24,-0.016 c -0.49,-0.037 -0.861,-0.185 -0.846,-0.344 0.035,-0.163 0.463,-0.269 0.971,-0.238 1.371,0.049 2.049,0.096 3.406,0.145 l 0.442,-0.008 0.447,-0.055 c -2.1,-0.178 -2.172,-0.355 -4.274,-0.533 -0.179,-0.008 -0.33,-0.061 -0.332,-0.119 0,-0.057 0.147,-0.098 0.329,-0.09 6.418,-0.086 11.326,-0.16 4.652,-0.248 -0.098,0.004 -0.178,-0.024 -0.19,-0.053 -0.001,-0.008 0.012,-0.01 0.018,-0.016 -1.269,0.049 -4.6,0.129 -3.217,0.075 0.016,-0.002 0.024,-0.002 0.041,-0.002 -0.49,0.008 -1.193,0.015 -2.16,0.013 -0.129,0.006 -0.262,-0.015 -0.342,-0.048 -0.008,0.015 -0.035,-0.141 -0.076,-0.133 -0.377,0.06 -0.787,-0.242 -1.205,-0.215 -0.08,0.008 -0.178,-0.008 -0.219,-0.041 -0.043,-0.026 0.008,-0.055 0.098,-0.065 0.408,-0.025 0.797,-0.056 1.146,-0.119 0.063,-0.011 0.137,-0.004 0.188,0.01 -0.02,-0.049 0.06,-0.09 0.207,-0.102 2.91,-0.263 4.742,-0.841 0.467,-0.593 -0.071,0.015 -0.18,0.007 -0.24,-0.022 -0.041,-0.027 -0.032,-0.062 0.046,-0.07 1.62,-0.235 5.538,-0.536 9.077,-0.781 -0.092,-1.143 -0.19,-2.374 -0.288,-4.009 -0.052,-0.42 -0.095,-0.84 -0.109,-1.266 -0.016,-0.433 -0.031,-0.865 -0.045,-1.291 -0.078,-1.207 -0.18,-2.397 -0.277,-3.587 -0.047,0 -0.092,0.004 -0.143,0.004 0.033,0.686 0.053,1.46 0.045,2.415 0.008,0.277 -0.051,0.465 -0.125,0.44 -0.072,-0.046 -0.138,-0.292 -0.144,-0.569 -0.024,-0.817 -0.057,-1.559 -0.096,-2.26 -0.309,0.056 -0.652,0.105 -1.063,0.152 0.284,-0.062 0.575,-0.121 0.86,-0.18 -0.424,0.049 -0.84,0.1 -1.313,0.102 l 0.162,-0.111 c -1.457,0.271 -3.453,0.175 -4.459,-0.215 -0.419,-0.162 -0.71,-0.35 -0.814,-0.535 -0.896,-0.045 -1.709,-0.174 -2.137,-0.434 -0.193,-0.123 -0.025,-0.279 0.018,-0.422 -0.057,-0.209 0.529,-0.389 1.308,-0.406 0.213,-0.004 0.415,0.008 0.602,0.027 0.896,-0.078 1.779,-0.154 2.688,-0.232 0.171,-0.022 0.384,-0.001 0.476,0.045 0.076,0.048 0.002,0.105 -0.178,0.125 -0.609,0.103 -1.222,0.204 -1.838,0.306 -0.052,-0.013 -0.105,-0.025 -0.16,-0.037 0.022,0.019 0.071,0.031 0.104,0.047 -0.059,0.01 -0.115,0.018 -0.174,0.029 0.039,0.008 0.072,0.02 0.113,0.028 l 0.151,-0.016 c 0.068,0.025 0.148,0.045 0.238,0.063 0.898,-0.18 1.9,-0.256 2.908,-0.252 0.096,-0.012 0.199,-0.016 0.295,-0.03 0.059,-0.006 -0.043,-0.1 0.066,-0.136 l 0.17,-0.047 c -0.191,0.017 -0.382,0.035 -0.584,0.05 -0.779,-0.13 -1.074,-0.181 -1.277,-0.216 l -0.004,0.002 -0.06,-0.012 c -0.094,-0.016 -0.178,-0.029 -0.297,-0.047 0,0 0,-0.006 0.002,-0.01 l -0.076,-0.015 -0.35,0.019 c -0.133,0.008 -0.26,-0.008 -0.324,-0.037 -0.045,0.023 -0.094,0.047 -0.155,0.07 -0.671,0.043 -0.671,0.043 -1.353,0.086 0,0 0,-0.025 0.023,-0.057 -0.027,-0.002 -0.254,-0.027 -0.521,-0.015 -0.258,-0.004 -0.258,-0.004 -0.897,0.035 l 0.309,-0.092 -0.272,0.063 0.071,-0.106 -0.125,0.116 -0.115,-0.085 c 0,0 -0.002,0 -0.538,0.251 -0.041,-0.006 -0.142,-0.018 -0.392,-0.051 0,0 0.271,-0.024 0.221,-0.053 -0.004,-0.031 -0.004,-0.031 -0.221,-0.139 0,0 -0.004,-0.035 0.017,-0.074 0.067,-0.035 0.067,-0.035 0.084,-0.131 0,0 -0.265,-0.039 -0.158,-0.07 0.108,-0.019 0.133,-0.023 0.51,-0.084 l -0.092,-0.051 c -0.074,-0.181 -0.074,-0.181 0.403,-0.6 0,0 0.265,-0.115 0.697,-0.197 0.504,-0.039 0.504,-0.039 1.078,-0.082 0,0 0.131,-0.014 0.344,-0.037 0.162,-0.068 -1.498,-0.084 -1.377,-0.147 h 0.002 c -0.11,-0.005 -0.219,-0.017 -0.309,-0.035 -0.26,-0.06 -0.297,-0.162 -0.078,-0.232 -0.287,-0.279 -0.113,-0.529 0.248,-0.77 -0.109,-0.093 -0.162,-0.189 -0.147,-0.289 -0.326,-0.181 -0.656,-0.867 -0.843,-1.299 -0.014,-0.006 -0.033,-0.013 -0.035,-0.018 l -0.024,-0.123 c -0.031,-0.068 -0.055,-0.125 -0.072,-0.165 l -0.049,-0.235 c 0.123,-0.197 0.481,-0.381 1.012,-0.525 l 0.16,-0.055 -0.152,-0.192 c 0.201,-0.154 0.621,-0.234 1.119,-0.289 0.584,-0.269 1.222,-0.527 1.695,-0.814 l -1.978,0.005 c 0.437,-0.206 -2.157,-0.146 -1.346,-0.214 l 1.289,-0.102 c -0.859,-0.242 -1.547,-0.543 -1.385,-0.9 0.291,-0.612 2.578,-1.077 4.793,-0.979 0.652,0.008 1.549,0.008 2.615,0.002 -0.646,-1.485 -0.541,-4.472 -0.718,-7.165 -0.065,-0.954 -1.68,-9.539 -1.756,-10.103 l 0.205,0.455 -0.004,-0.033 c -0.168,-0.596 -0.268,-1.323 -0.317,-2.079 -0.535,-1.914 -0.779,-4.325 -0.908,-6.827 -0.017,-0.113 -0.031,-0.232 -0.041,-0.352 -0.043,-0.209 -0.076,-0.455 -0.127,-0.605 -0.474,-1.342 -0.84,-2.995 -1.148,-4.823 0.094,0.352 0.189,0.713 0.285,1.065 -0.092,-0.526 -0.187,-1.048 -0.227,-1.641 l 0.153,0.197 c -0.444,-1.811 -0.467,-4.327 -0.057,-5.618 0.414,-1.297 1.108,-0.889 1.553,0.922 l 0.07,0.277 c 0.02,-0.945 0.127,-1.779 0.381,-2.256 0.139,-0.256 0.344,-0.052 0.525,-0.009 0.256,-0.089 0.526,0.634 0.6,1.611 0.022,0.273 0.024,0.531 0.014,0.768 0.16,1.117 0.322,2.234 0.484,3.352 0.041,0.218 0.029,0.482 -0.023,0.6 -0.055,0.101 -0.127,0.011 -0.168,-0.212 -0.174,-0.765 -0.346,-1.527 -0.516,-2.289 0.01,-0.068 0.024,-0.133 0.037,-0.203 -0.023,0.031 -0.035,0.092 -0.053,0.135 -0.017,-0.074 -0.033,-0.145 -0.048,-0.219 -0.008,0.053 -0.02,0.094 -0.028,0.147 0.01,0.062 0.022,0.123 0.032,0.187 -0.028,0.097 -0.051,0.209 -0.067,0.334 0.168,1.36 0.344,2.708 0.588,3.971 0.016,0.076 0.123,-0.058 0.176,0.078 l 0.07,0.211 c -0.033,-0.236 -0.068,-0.478 -0.103,-0.73 0.107,-0.992 0.148,-1.364 0.175,-1.622 l -0.002,-0.005 c 0,0 0,-0.002 0.01,-0.077 0.012,-0.122 0.024,-0.224 0.041,-0.375 h 0.01 l 0.014,-0.095 -0.049,-0.44 c -0.022,-0.166 -0.01,-0.326 0.021,-0.408 -0.031,-0.057 -0.064,-0.117 -0.099,-0.193 -0.1,-0.838 -0.1,-0.838 -0.205,-1.692 0,0 0.031,0 0.074,0.027 0,-0.037 0.015,-0.324 -0.02,-0.658 -0.013,-0.324 -0.013,-0.324 -0.109,-1.125 l 0.139,0.383 -0.102,-0.338 0.137,0.083 -0.153,-0.148 0.1,-0.154 c 0,0 0,-0.002 -0.353,-0.656 0.001,-0.053 0.023,0.16 0.046,-0.155 0,0 0.024,-0.09 0.057,-0.156 0.039,-0.01 0.039,-0.01 0.158,-0.285 0,0 0.043,-0.008 0.092,0.014 0.049,0.081 0.049,0.081 0.172,0.095 0,0 0.051,0.09 0.101,0.223 0.028,0.131 0.026,-0.174 0.129,0.297 l 0.059,-0.12 c 0.219,-0.105 0.219,-0.105 0.777,0.464 0,0 0.129,-0.69 0.266,-0.157 0.082,0.629 0.082,0.629 0.18,1.35 0,0 0.025,0.162 0.07,0.43 0.094,0.197 0.121,0.24 0.205,0.387 l 0.002,0.003 c -0.002,-0.14 0.002,-0.275 0.021,-0.39 0.057,-0.332 0.18,-0.383 0.282,-0.115 0.326,-0.381 0.664,0.156 0.992,0.596 0.103,-0.147 0.223,-0.218 0.348,-0.206 0.263,-0.553 0.527,-1.92 0.853,-2.08 l 0.289,-0.082 c 0.256,0.139 0.516,0.576 0.729,1.232 l 0.082,0.198 0.232,-0.205 c 0.69,0.816 1.215,-0.237 1.887,0.771 l 0.304,-1.269 c 0.303,0.574 0.461,-0.925 0.616,0.13 l 0.125,0.096 0.051,0.704 c 0.23,-1.206 0.634,-1.886 1.111,-1.696 0.789,0.332 1.578,5.838 1.644,8.738 0.416,7.735 1.018,17.236 1.159,25.157 0.023,1.442 0.044,2.852 0.062,4.245 8.92,-0.119 19.055,-0.25 22.625,-0.094 3.09,0.135 5.984,0.299 8.922,0.395 0.027,-1.555 0.055,-3.126 0.09,-4.741 0.176,-8.31 0.625,-11.906 1.078,-20.022 0.078,-3.046 0.844,-10.037 1.635,-10.387 0.48,-0.199 0.595,-3.305 0.82,-2.037 l 0.352,1.484 0.328,-0.703 c 0.16,-1.107 0.22,-0.24 0.517,-0.822 l 0.373,-0.805 c 0.676,-1.059 1.244,1.1 1.94,0.242 l 0.228,0.215 0.084,-0.207 c 0.219,-0.689 0.102,-0.707 0.358,-0.855 l 0.006,0.002 c 0.017,0.843 0.392,1.281 0.402,2.123 0.01,1.217 -0.317,2.383 -0.307,3.567 l 0.051,-0.418 c 0.02,-0.135 0.303,-0.661 0.334,-2.081 0.012,-1.115 0.158,-0.385 0.203,-1.543 0.02,-0.432 0.057,-0.857 0.113,-1.262 -0.086,-0.244 -0.169,-0.498 -0.244,-0.773 l 0.106,0.031 c 0.914,0.469 0.654,0.238 1.052,1.115 0.125,-0.013 0.073,0.741 0.18,0.893 0.121,-0.172 0.24,-0.074 0.358,0.137 0.117,-0.407 0.269,-0.647 0.416,-0.592 0.183,-0.045 0.39,-0.26 0.529,0.007 0.15,0.305 0.252,0.7 0.31,1.151 0.03,-0.037 0.045,0.059 0.1,-0.344 0.135,-0.564 0.301,-1.582 0.301,-1.582 0.56,-0.599 0.56,-0.599 0.779,-0.488 l 0.057,0.125 c 0.107,-0.494 0.754,-0.092 0.756,-0.037 -0.112,0.219 -0.188,0.291 -0.237,0.301 -0.086,0.728 -0.088,0.752 -0.101,1.074 v 0.006 c 0.029,-0.014 0.06,-0.02 0.06,-0.02 -0.109,0.893 0.25,-0.287 0.145,0.594 -0.035,0.08 -0.069,0.143 -0.102,0.2 0.032,0.089 0.043,0.259 0.022,0.431 l -0.049,0.461 0.01,0.098 h 0.009 c 0.016,0.16 0.03,0.271 0.04,0.396 0.009,0.077 0.009,0.08 0.009,0.08 v 0.004 c 0.026,0.272 0.426,-1.986 0.528,-0.947 -0.037,0.267 -0.075,0.517 -0.11,0.765 l 0.074,-0.222 c 0.051,-0.141 0.159,-0.002 0.174,-0.08 0.364,-1.913 -0.138,0.5 0.116,-1.563 0.009,-0.373 0.099,-0.715 0.197,-0.766 0.097,-0.041 0.17,0.227 0.156,0.608 0.057,0.619 0.092,1.262 0.113,1.914 0.069,-0.369 0.141,-0.723 0.221,-1.059 -0.006,-0.007 -0.004,-0.039 0.01,-0.023 0.006,-0.035 0.013,-0.074 0.021,-0.111 -0.008,0.074 -0.015,0.103 -0.019,0.121 0.002,0.008 0.004,0.004 0.01,0.031 0.033,-0.097 0.064,-0.205 0.097,-0.306 l 0.301,-0.784 c 0.453,-1.902 1.168,-0.32 0.91,1.127 -0.246,1.393 1.277,-0.457 0.471,3.745 l 0.154,-0.209 c -0.041,0.623 -0.139,1.17 -0.236,1.726 0.097,-0.372 0.199,-0.75 0.293,-1.119 -0.317,1.917 -0.692,3.651 -1.172,5.06 -0.051,0.158 -0.088,0.416 -0.129,0.636 -0.045,0.526 -0.141,0.971 -0.256,1.261 -0.24,2.297 -0.586,4.481 -1.066,6.26 -0.055,0.795 -0.159,1.557 -0.328,2.184 l -0.004,0.035 c 0,0 -0.039,0.42 -0.131,0.959 l 0.254,-0.187 c -0.328,2.922 -0.45,3.209 -0.959,5.901 -0.016,0.107 -0.535,8.523 -1.258,10.025 -0.014,0.305 -0.029,0.61 -0.041,0.916 0.576,0.069 1.213,0.143 1.945,0.221 3.52,0.121 6.901,0.789 1.727,0.682 -0.528,0.025 -1.055,0.052 -1.578,0.076 l 0.548,0.008 c 0.366,-0.002 -1.021,0.076 -0.994,0.181 0,0.045 1.645,0.084 1.559,0.116 0.324,0.027 0.246,0.058 -0.027,0.089 1.023,0.106 2.013,0.227 2.937,0.381 0.092,0.014 0.1,0.047 0.051,0.071 -0.076,0.027 -0.203,0.029 -0.285,0.013 -0.371,-0.035 -0.764,-0.06 -1.151,-0.086 0.002,0 0.008,0.002 0.012,0.004 0.078,0.035 0.123,0.074 0.145,0.115 3.474,0.225 1.746,0.225 5.023,0.637 0.168,0.022 0.256,0.065 0.227,0.114 0.064,-0.012 0.144,-0.014 0.218,-0.002 0.391,0.082 0.321,-0.036 0.784,0.011 0.099,0.016 0.154,0.045 0.107,0.069 -0.047,0.031 -0.162,0.043 -0.254,0.029 -0.471,-0.047 -0.424,0.064 -0.848,-0.016 -0.045,-0.009 -0.076,-0.025 -0.084,-0.041 -0.093,0.03 -0.242,0.042 -0.39,0.03 -3.391,-0.145 -1.416,-0.291 -4.838,-0.366 1.672,0.19 0.674,0.153 2.474,0.301 2.174,0.174 0.954,0.42 3.143,0.522 0.113,0 0.19,0.199 0.178,0.228 -0.014,0.028 -0.108,0.053 -0.219,0.045 -0.695,-0.025 -1.225,-0.064 -1.654,-0.111 0.004,0.017 0.008,0.025 0.01,0.037 0.058,0.014 0.115,0.033 0.162,0.049 0.023,0 0.043,-0.006 0.064,-0.002 0.406,0.08 0.859,0.131 1.342,0.176 0.105,0.017 0.162,0.046 0.115,0.07 -0.053,0.031 -0.17,0.043 -0.264,0.031 -0.158,-0.017 -0.298,-0.041 -0.451,-0.06 0.399,0.072 1.022,0.144 2.147,0.209 0.203,0.002 0.371,0.051 0.363,0.109 -0.002,0.057 -0.178,0.102 -0.383,0.1 -2.113,0.06 -2.25,0.121 -3.912,0.18 1.246,0.064 2.553,0.134 4.088,0.216 0.02,0 0.029,0.004 0.047,0.004 0.002,0 0.006,0.002 0.012,0.002 0.103,0.006 0.181,0.021 0.238,0.043 0.244,0.051 0.416,0.131 0.432,0.223 0.009,0.162 -0.42,0.289 -0.977,0.299 l 0.27,0.031 c 0.091,0.006 0.156,0.039 0.13,0.064 -0.021,0.018 -0.074,0.028 -0.132,0.034 0.009,0.05 -0.01,0.111 0.003,0.179 0.008,0.159 -0.064,0.539 -0.089,0.563 -0.037,0.029 -1.088,-0.076 -1.088,-0.076 -0.272,0.006 -0.52,0.009 -0.783,0.013 -0.333,0.049 -0.624,0.09 -0.624,0.09 0.334,0.086 1.401,0.374 1.422,0.512 0.022,0.129 -0.654,0.248 -0.935,0.338 1.785,0.129 1.183,0.101 2.912,0.287 0.101,0.012 0.154,0.041 0.119,0.069 -0.037,0.027 -0.141,0.043 -0.242,0.033 -2.326,-0.096 -2.619,-0.047 -4.656,-0.123 -0.077,0.068 -0.198,0.131 -0.366,0.183 1.86,0.12 3.024,0.26 4.821,0.44 0.105,0.01 0.164,0.039 0.125,0.068 -0.037,0.028 -0.147,0.045 -0.252,0.033 -2.598,-0.094 -3.84,-0.191 -6.424,-0.285 -0.42,0.033 -0.805,0.066 -1.188,0.098 1.588,0.094 2.827,0.232 3.684,0.375 0.627,0.029 1.279,0.062 1.984,0.1 0.545,0.017 0.942,0.152 0.877,0.3 -0.064,0.147 -0.57,0.252 -1.113,0.235 -4.107,-0.002 -2.125,0.252 -6.277,0 -0.532,-0.033 -1.026,-0.049 -1.51,-0.059 -1.25,0.018 -2.084,0.041 -2.846,0.067 -0.107,2.49 -0.211,4.979 -0.293,7.462 -0.006,0.293 -0.072,0.552 -0.144,0.599 -0.074,0.024 -0.131,-0.171 -0.125,-0.464 -0.004,-2.509 0.043,-5.042 0.105,-7.582 -0.099,0.004 -0.203,0.008 -0.304,0.012 -0.166,1.877 -0.325,3.766 -0.452,5.679 -0.017,0.447 -0.033,0.9 -0.048,1.353 -0.018,0.447 -0.063,0.889 -0.12,1.33 -0.062,1.01 -0.123,2.005 -0.183,2.999 0.285,0.019 0.578,0.041 0.871,0.062 0.076,-0.879 0.137,-1.765 0.213,-2.644 0.013,-0.141 0.053,-0.246 0.092,-0.235 0.033,0.023 0.054,0.151 0.041,0.303 -0.077,0.861 -0.135,1.725 -0.207,2.586 2.658,0.197 5.625,0.495 7.761,0.786 0.08,0.011 0.088,0.046 0.047,0.072 -0.058,0.029 -0.168,0.037 -0.238,0.025 -0.795,-0.039 -1.236,-0.07 -1.465,-0.095 -0.271,0.021 -0.734,0.046 -1.523,0.074 -0.524,0.029 -2.731,0.056 -3.241,0.082 -0.056,0.013 -0.117,0.023 -0.183,0.029 -0.42,0.049 -0.836,0.096 -1.25,0.143 v 0.011 l 0.347,-0.015 c 0.321,-0.022 0.602,0.039 0.627,0.144 0.006,0.043 -0.037,0.086 -0.111,0.123 0.461,0.016 -0.1,0.036 -0.887,0.061 -0.006,0.025 -0.007,0.047 -0.007,0.07 1.46,-0.105 3.312,-0.207 4.287,-0.314 l 0.334,-0.049 c 0.439,-0.047 0.865,-0.008 1.086,0.1 0.072,0.033 0.113,0.068 0.136,0.107 0.25,0.002 0.432,0.004 0.586,0.002 0.131,0.014 0.285,0.027 0.485,0.043 0.148,0.012 0.228,0.051 0.209,0.1 0.05,-0.014 0.125,-0.022 0.189,-0.012 0.348,0.06 0.738,-0.082 1.148,-0.061 0.09,0.012 0.139,0.037 0.098,0.063 -0.039,0.035 -0.137,0.054 -0.219,0.045 -0.42,-0.024 -0.83,0.113 -1.209,0.056 -0.039,-0.009 -0.066,-0.021 -0.074,-0.035 -0.082,0.035 -0.213,0.055 -0.346,0.049 -2.994,0.037 2.135,0.111 -0.884,0.217 0.867,0.06 0.588,0.099 0.523,0.129 -0.603,0.013 1.192,-0.01 -1.883,0.168 l -0.3,0.023 c 0.054,0.006 0.121,0.016 0.207,0.026 3.767,-0.11 -0.452,0.339 3.261,0.355 0.182,-0.008 0.33,0.031 0.33,0.088 0,0.057 -0.152,0.113 -0.334,0.121 -2.103,0.197 2.575,0.389 0.469,0.586 l 0.451,0.051 0.442,0.002 c 0.343,-0.016 -1.145,0.75 -2.69,1.279 h 0.053 l 2.84,-0.281 c 0.211,-0.014 0.387,0.027 0.398,0.098 0.008,0.068 -0.162,0.129 -0.383,0.148 l -1.07,0.069 c 0.299,0.07 0.5,0.179 0.526,0.312 0.029,0.129 -0.114,0.256 -0.356,0.36 0.756,0.017 0.537,0.212 0.272,0.423 1.476,0.055 2.851,0.11 4.021,0.164 2.037,0.02 0.477,0.915 0.711,1.542 0.133,0.379 0.164,0.277 -0.686,0.476 l 0.498,0.032 0.782,0.115 c 0.74,0.111 0.519,-0.213 0.91,0.016 l 0.539,0.287 c 0.705,0.527 1.193,0.998 1.768,1.543 l -0.145,0.186 0.139,0.064 c 0.459,0.166 0.767,0.367 0.865,0.57 L 0.49,-4.612 c -0.113,0.264 0.49,0.842 0.104,1.059 0.008,0.101 0.974,0.535 0.871,0.621"
         style="fill:#181716;fill-opacity:1;fill-rule:nonzero;stroke:none"
         id="path34"
         inkscape:connector-curvature="0" /></g><g
       id="g3981"><g
         transform="translate(122.1704,186.7246)"
         id="g36"><path
           inkscape:connector-curvature="0"
           id="path38"
           style="fill:#181716;fill-opacity:1;fill-rule:nonzero;stroke:none"
           d="m 0,0 c -0.26,-1.257 -0.738,-2.412 -1.435,-3.465 -0.697,-1.052 -1.668,-1.921 -2.911,-2.603 -1.244,-0.683 -2.85,-1.025 -4.818,-1.025 -2.46,0 -4.51,0.636 -6.149,1.906 -1.641,1.271 -2.734,2.905 -3.281,4.9 l 6.191,2.091 c 0.191,-0.765 0.54,-1.381 1.046,-1.845 0.505,-0.465 1.128,-0.697 1.865,-0.697 1.148,0 1.907,0.396 2.276,1.189 0.369,0.793 0.553,1.831 0.553,3.116 V 22.714 H 0.389 V 3.608 C 0.389,2.46 0.259,1.257 0,0" /></g><g
         transform="translate(141.6816,180.4102)"
         id="g40"><path
           inkscape:connector-curvature="0"
           id="path42"
           style="fill:#181716;fill-opacity:1;fill-rule:nonzero;stroke:none"
           d="M 0,0 V 2.83 H -0.082 C -0.328,2.364 -0.649,1.928 -1.045,1.518 -1.442,1.107 -1.906,0.752 -2.439,0.452 -2.972,0.15 -3.561,-0.095 -4.202,-0.287 c -0.643,-0.191 -1.319,-0.286 -2.03,-0.286 -1.367,0 -2.521,0.246 -3.464,0.738 -0.943,0.491 -1.709,1.127 -2.296,1.905 -0.589,0.78 -1.012,1.667 -1.271,2.666 -0.26,0.997 -0.39,2.015 -0.39,3.055 v 12.627 h 6.765 V 9.349 c 0,-0.575 0.041,-1.121 0.123,-1.641 0.082,-0.519 0.239,-0.983 0.472,-1.394 0.231,-0.41 0.539,-0.731 0.922,-0.963 0.383,-0.232 0.888,-0.349 1.517,-0.349 1.175,0 2.071,0.437 2.686,1.312 0.615,0.875 0.922,1.9 0.922,3.076 V 20.418 H 6.478 V 0 Z" /></g><g
         transform="translate(168.7949,190.6606)"
         id="g44"><path
           inkscape:connector-curvature="0"
           id="path46"
           style="fill:#181716;fill-opacity:1;fill-rule:nonzero;stroke:none"
           d="M 0,0 C 0,0.656 -0.116,1.298 -0.349,1.927 -0.581,2.556 -0.909,3.116 -1.332,3.608 -1.757,4.1 -2.27,4.496 -2.87,4.797 -3.472,5.098 -4.155,5.248 -4.92,5.248 -5.713,5.248 -6.41,5.098 -7.011,4.797 -7.612,4.496 -8.118,4.106 -8.528,3.628 -8.938,3.15 -9.245,2.597 -9.451,1.968 -9.655,1.339 -9.758,0.697 -9.758,0.041 c 0,-0.656 0.103,-1.306 0.307,-1.948 0.206,-0.642 0.513,-1.209 0.923,-1.701 0.41,-0.492 0.916,-0.889 1.517,-1.189 0.601,-0.301 1.298,-0.451 2.091,-0.451 0.765,0 1.448,0.15 2.05,0.451 0.6,0.3 1.113,0.697 1.538,1.189 0.423,0.492 0.751,1.052 0.983,1.681 C -0.116,-1.298 0,-0.656 0,0 m 0.246,-10.25 v 2.665 H 0.164 c -0.656,-1.039 -1.593,-1.838 -2.809,-2.398 -1.216,-0.56 -2.507,-0.841 -3.875,-0.841 -1.53,0 -2.896,0.301 -4.099,0.902 -1.203,0.6 -2.221,1.4 -3.055,2.399 -0.833,0.997 -1.47,2.152 -1.906,3.464 -0.438,1.312 -0.656,2.679 -0.656,4.1 0,1.421 0.225,2.781 0.676,4.08 0.452,1.297 1.093,2.439 1.928,3.423 0.833,0.984 1.845,1.763 3.033,2.337 1.189,0.574 2.522,0.861 3.997,0.861 1.503,0 2.775,-0.287 3.814,-0.861 1.039,-0.574 1.845,-1.203 2.419,-1.886 h 0.082 V 20.746 H 6.437 V -10.25 Z" /></g><g
         transform="translate(195.7969,190.7017)"
         id="g48"><path
           inkscape:connector-curvature="0"
           id="path50"
           style="fill:#181716;fill-opacity:1;fill-rule:nonzero;stroke:none"
           d="m 0,0 c 0,0.656 -0.109,1.298 -0.328,1.927 -0.219,0.629 -0.532,1.182 -0.943,1.66 -0.41,0.478 -0.916,0.868 -1.517,1.169 -0.601,0.301 -1.298,0.451 -2.091,0.451 -0.793,0 -1.489,-0.15 -2.09,-0.451 C -7.571,4.455 -8.07,4.065 -8.466,3.587 -8.862,3.109 -9.163,2.556 -9.368,1.927 -9.572,1.298 -9.676,0.656 -9.676,0 c 0,-0.656 0.104,-1.298 0.308,-1.927 0.205,-0.629 0.513,-1.196 0.923,-1.701 0.41,-0.507 0.915,-0.91 1.516,-1.21 0.601,-0.301 1.299,-0.451 2.091,-0.451 0.793,0 1.49,0.15 2.092,0.451 0.6,0.3 1.106,0.703 1.517,1.21 0.41,0.505 0.717,1.072 0.921,1.701 C -0.102,-1.298 0,-0.656 0,0 m 6.479,0 c 0,-1.667 -0.301,-3.178 -0.903,-4.53 -0.601,-1.353 -1.422,-2.502 -2.46,-3.445 -1.038,-0.942 -2.241,-1.674 -3.608,-2.192 -1.366,-0.52 -2.828,-0.78 -4.387,-0.78 -1.53,0 -2.986,0.26 -4.366,0.78 -1.381,0.518 -2.583,1.25 -3.609,2.192 -1.024,0.943 -1.837,2.092 -2.438,3.445 -0.603,1.352 -0.902,2.863 -0.902,4.53 0,1.667 0.299,3.17 0.902,4.51 0.601,1.339 1.414,2.473 2.438,3.403 1.026,0.929 2.228,1.64 3.609,2.132 1.38,0.492 2.836,0.738 4.366,0.738 1.559,0 3.021,-0.246 4.387,-0.738 C 0.875,9.553 2.078,8.842 3.116,7.913 4.154,6.983 4.975,5.849 5.576,4.51 6.178,3.17 6.479,1.667 6.479,0" /></g><g
         transform="translate(231.7949,202.6328)"
         id="g52"><path
           inkscape:connector-curvature="0"
           id="path54"
           style="fill:#181716;fill-opacity:1;fill-rule:nonzero;stroke:none"
           d="M 0,0 C 0,0.738 -0.246,1.366 -0.738,1.886 -1.23,2.405 -1.9,2.665 -2.747,2.665 -3.54,2.665 -4.203,2.412 -4.735,1.906 -5.269,1.4 -5.535,0.765 -5.535,0 c 0,-0.684 0.184,-1.34 0.554,-1.968 0.369,-0.629 0.908,-1.23 1.62,-1.804 0.928,0.382 1.72,0.888 2.377,1.517 C -0.328,-1.627 0,-0.875 0,0 m -5.166,-9.963 c -0.82,-0.328 -1.537,-0.786 -2.152,-1.373 -0.616,-0.589 -0.923,-1.429 -0.923,-2.522 0,-0.574 0.116,-1.087 0.348,-1.538 0.232,-0.451 0.534,-0.834 0.903,-1.147 0.369,-0.315 0.785,-0.554 1.25,-0.718 0.465,-0.164 0.943,-0.246 1.434,-0.246 0.903,0 1.708,0.191 2.42,0.574 0.71,0.382 1.325,0.929 1.845,1.64 z m 11.85,-12.26 -2.748,2.83 c -0.93,-0.984 -2.071,-1.797 -3.423,-2.439 -1.354,-0.643 -3.041,-0.964 -5.065,-0.964 -1.311,0 -2.596,0.171 -3.853,0.513 -1.257,0.341 -2.372,0.874 -3.341,1.598 -0.971,0.724 -1.75,1.626 -2.337,2.706 -0.589,1.08 -0.882,2.358 -0.882,3.834 0,1.011 0.163,1.94 0.491,2.788 0.329,0.847 0.773,1.599 1.333,2.255 0.56,0.656 1.209,1.23 1.948,1.722 0.738,0.492 1.503,0.915 2.296,1.271 -0.902,0.874 -1.626,1.831 -2.172,2.87 -0.548,1.038 -0.822,2.186 -0.822,3.444 0,1.312 0.274,2.432 0.822,3.362 0.546,0.929 1.25,1.694 2.111,2.296 0.86,0.601 1.83,1.038 2.91,1.312 1.079,0.273 2.153,0.41 3.219,0.41 1.093,0 2.173,-0.144 3.239,-0.431 C 1.477,6.867 2.426,6.423 3.26,5.822 4.093,5.22 4.763,4.455 5.269,3.526 5.773,2.596 6.026,1.489 6.026,0.205 c 0,-0.93 -0.15,-1.77 -0.45,-2.522 C 5.275,-3.069 4.858,-3.751 4.326,-4.367 3.793,-4.981 3.17,-5.535 2.46,-6.027 1.749,-6.519 0.997,-6.97 0.205,-7.38 l 3.649,-3.731 2.911,4.469 h 7.462 l -6.273,-8.405 7.216,-7.176 z" /></g></g><g
       id="g3969"
       transform="translate(157.08943,44.9996)"><g
         transform="translate(122.1704,141.7246)"
         id="g56"><path
           inkscape:connector-curvature="0"
           id="path58"
           style="fill:#181716;fill-opacity:1;fill-rule:nonzero;stroke:none"
           d="m 0,0 c -0.26,-1.258 -0.738,-2.412 -1.435,-3.465 -0.697,-1.052 -1.668,-1.921 -2.911,-2.603 -1.244,-0.683 -2.85,-1.025 -4.818,-1.025 -2.46,0 -4.51,0.636 -6.149,1.906 -1.641,1.271 -2.734,2.905 -3.281,4.9 l 6.191,2.092 c 0.191,-0.767 0.54,-1.382 1.046,-1.846 0.505,-0.465 1.128,-0.696 1.865,-0.696 1.148,0 1.907,0.395 2.276,1.188 0.369,0.792 0.553,1.83 0.553,3.116 V 22.714 H 0.389 V 3.608 C 0.389,2.46 0.259,1.257 0,0" /></g><g
         transform="translate(141.6816,135.4102)"
         id="g60"><path
           inkscape:connector-curvature="0"
           id="path62"
           style="fill:#181716;fill-opacity:1;fill-rule:nonzero;stroke:none"
           d="M 0,0 V 2.83 H -0.082 C -0.328,2.364 -0.649,1.928 -1.045,1.518 -1.442,1.107 -1.906,0.752 -2.439,0.452 -2.972,0.15 -3.561,-0.095 -4.202,-0.287 c -0.643,-0.191 -1.319,-0.286 -2.03,-0.286 -1.367,0 -2.521,0.246 -3.464,0.738 -0.943,0.491 -1.709,1.127 -2.296,1.905 -0.589,0.78 -1.012,1.667 -1.271,2.666 -0.26,0.997 -0.39,2.016 -0.39,3.054 v 12.629 h 6.765 V 9.349 c 0,-0.575 0.041,-1.121 0.123,-1.641 0.082,-0.519 0.239,-0.983 0.472,-1.394 0.231,-0.41 0.539,-0.731 0.922,-0.962 0.383,-0.233 0.888,-0.349 1.517,-0.349 1.175,0 2.071,0.436 2.686,1.311 0.615,0.875 0.922,1.9 0.922,3.076 V 20.419 H 6.478 V 0 Z" /></g><g
         transform="translate(180.3242,141.7246)"
         id="g64"><path
           inkscape:connector-curvature="0"
           id="path66"
           style="fill:#181716;fill-opacity:1;fill-rule:nonzero;stroke:none"
           d="m 0,0 c -0.261,-1.258 -0.738,-2.412 -1.436,-3.465 -0.696,-1.052 -1.667,-1.921 -2.91,-2.603 -1.245,-0.683 -2.849,-1.025 -4.818,-1.025 -2.46,0 -4.51,0.636 -6.149,1.906 -1.64,1.271 -2.735,2.905 -3.281,4.9 l 6.191,2.092 c 0.191,-0.767 0.54,-1.382 1.046,-1.846 0.505,-0.465 1.128,-0.696 1.866,-0.696 1.147,0 1.906,0.395 2.275,1.188 0.368,0.792 0.554,1.83 0.554,3.116 V 22.714 H 0.389 V 3.608 C 0.389,2.46 0.26,1.257 0,0" /></g><path
         inkscape:connector-curvature="0"
         id="path68"
         style="fill:#181716;fill-opacity:1;fill-rule:nonzero;stroke:none"
         d="m 186.289,155.829 h 6.725 V 135.41 h -6.725 z m 7.216,6.519 c 0,-0.52 -0.103,-1.005 -0.308,-1.455 -0.204,-0.452 -0.478,-0.841 -0.819,-1.169 -0.342,-0.328 -0.752,-0.588 -1.231,-0.779 -0.477,-0.192 -0.976,-0.287 -1.496,-0.287 -1.092,0 -2.008,0.362 -2.747,1.086 -0.737,0.724 -1.107,1.592 -1.107,2.604 0,0.492 0.096,0.963 0.287,1.415 0.191,0.45 0.465,0.84 0.82,1.168 0.355,0.328 0.766,0.594 1.23,0.798 0.466,0.206 0.97,0.309 1.517,0.309 0.52,0 1.019,-0.097 1.496,-0.287 0.479,-0.192 0.889,-0.451 1.231,-0.779 0.341,-0.328 0.615,-0.718 0.819,-1.168 0.205,-0.452 0.308,-0.937 0.308,-1.456" /><g
         transform="translate(206.7891,150.8262)"
         id="g70"><path
           inkscape:connector-curvature="0"
           id="path72"
           style="fill:#181716;fill-opacity:1;fill-rule:nonzero;stroke:none"
           d="m 0,0 v -7.82 c 0,-0.959 0.185,-1.68 0.554,-2.16 0.369,-0.481 1.031,-0.72 1.988,-0.72 0.328,0 0.677,0.026 1.045,0.082 0.37,0.055 0.678,0.136 0.924,0.246 l 0.081,-4.92 c -0.465,-0.164 -1.052,-0.309 -1.763,-0.431 -0.711,-0.124 -1.422,-0.185 -2.132,-0.185 -1.367,0 -2.514,0.172 -3.444,0.514 -0.929,0.342 -1.675,0.835 -2.234,1.48 -0.561,0.643 -0.964,1.412 -1.21,2.302 -0.246,0.89 -0.369,1.883 -0.369,2.98 V 0 h -3.28 v 5.003 h 3.238 v 5.371 H 0 V 5.003 H 4.798 V 0 Z" /></g><g
         transform="translate(227.8711,149.8018)"
         id="g74"><path
           inkscape:connector-curvature="0"
           id="path76"
           style="fill:#181716;fill-opacity:1;fill-rule:nonzero;stroke:none"
           d="m 0,0 c -0.547,0.519 -1.188,0.957 -1.928,1.312 -0.737,0.355 -1.516,0.533 -2.336,0.533 -0.629,0 -1.21,-0.123 -1.743,-0.368 -0.532,-0.248 -0.8,-0.671 -0.8,-1.272 0,-0.574 0.294,-0.984 0.882,-1.23 0.588,-0.246 1.537,-0.519 2.85,-0.82 0.764,-0.165 1.538,-0.397 2.316,-0.697 0.78,-0.301 1.483,-0.697 2.113,-1.188 0.627,-0.493 1.133,-1.095 1.516,-1.805 0.382,-0.711 0.573,-1.558 0.573,-2.542 0,-1.285 -0.259,-2.371 -0.779,-3.26 -0.518,-0.889 -1.195,-1.605 -2.029,-2.152 -0.834,-0.547 -1.77,-0.943 -2.809,-1.19 -1.038,-0.246 -2.077,-0.368 -3.115,-0.368 -1.668,0 -3.301,0.267 -4.899,0.8 -1.599,0.532 -2.932,1.317 -3.999,2.357 l 3.773,3.977 c 0.601,-0.656 1.339,-1.203 2.214,-1.641 0.875,-0.437 1.804,-0.655 2.788,-0.655 0.546,0 1.087,0.129 1.62,0.39 0.532,0.259 0.799,0.717 0.799,1.373 0,0.629 -0.328,1.093 -0.984,1.394 -0.656,0.301 -1.681,0.615 -3.076,0.943 -0.71,0.164 -1.421,0.382 -2.131,0.656 -0.712,0.272 -1.347,0.642 -1.907,1.106 -0.56,0.465 -1.018,1.039 -1.374,1.723 -0.355,0.683 -0.532,1.503 -0.532,2.46 0,1.229 0.26,2.275 0.778,3.137 0.52,0.86 1.19,1.563 2.01,2.111 0.82,0.547 1.729,0.949 2.726,1.21 0.998,0.259 1.989,0.389 2.973,0.389 1.531,0 3.027,-0.24 4.489,-0.717 1.462,-0.48 2.7,-1.196 3.71,-2.153 z" /></g><g
         transform="translate(248.8906,135.4102)"
         id="g78"><path
           inkscape:connector-curvature="0"
           id="path80"
           style="fill:#181716;fill-opacity:1;fill-rule:nonzero;stroke:none"
           d="M 0,0 V 2.83 H -0.082 C -0.328,2.364 -0.649,1.928 -1.045,1.518 -1.441,1.107 -1.906,0.752 -2.439,0.452 -2.973,0.15 -3.561,-0.095 -4.202,-0.287 c -0.643,-0.191 -1.319,-0.286 -2.029,-0.286 -1.368,0 -2.522,0.246 -3.465,0.738 -0.944,0.491 -1.708,1.127 -2.296,1.905 -0.589,0.78 -1.012,1.667 -1.272,2.666 -0.259,0.997 -0.388,2.016 -0.388,3.054 v 12.629 h 6.764 V 9.349 c 0,-0.575 0.041,-1.121 0.123,-1.641 0.082,-0.519 0.239,-0.983 0.471,-1.394 0.232,-0.41 0.54,-0.731 0.924,-0.962 0.382,-0.233 0.888,-0.349 1.516,-0.349 1.175,0 2.071,0.436 2.685,1.311 0.616,0.875 0.924,1.9 0.924,3.076 V 20.419 H 6.478 V 0 Z" /></g></g><g
       id="g3954"
       transform="translate(0.03222735,46.000204)"><g
         transform="translate(127.4795,89.9229)"
         id="g82"><path
           inkscape:connector-curvature="0"
           id="path84"
           style="fill:#181716;fill-opacity:1;fill-rule:nonzero;stroke:none"
           d="m 0,0 c -1.886,-0.86 -4.059,-1.291 -6.519,-1.291 -2.241,0 -4.312,0.369 -6.211,1.106 -1.9,0.739 -3.547,1.784 -4.941,3.137 -1.394,1.354 -2.487,2.973 -3.28,4.86 -0.793,1.885 -1.189,3.961 -1.189,6.231 0,2.322 0.403,4.428 1.21,6.313 0.805,1.887 1.92,3.493 3.341,4.818 1.421,1.325 3.089,2.344 5.002,3.055 1.913,0.71 3.977,1.066 6.191,1.066 2.05,0 4.065,-0.363 6.048,-1.087 1.981,-0.725 3.587,-1.783 4.817,-3.177 l -4.756,-4.757 c -0.656,0.903 -1.517,1.573 -2.583,2.01 -1.066,0.437 -2.159,0.656 -3.28,0.656 -1.23,0 -2.357,-0.225 -3.382,-0.677 -1.025,-0.451 -1.907,-1.073 -2.645,-1.865 -0.738,-0.794 -1.312,-1.729 -1.722,-2.808 -0.41,-1.08 -0.615,-2.263 -0.615,-3.547 0,-1.312 0.205,-2.516 0.615,-3.608 0.41,-1.094 0.977,-2.03 1.702,-2.808 0.724,-0.779 1.592,-1.388 2.603,-1.825 1.011,-0.438 2.118,-0.656 3.321,-0.656 1.394,0 2.61,0.273 3.649,0.82 1.039,0.546 1.872,1.257 2.501,2.132 L 4.756,3.506 C 3.471,2.03 1.886,0.861 0,0" /></g><path
         inkscape:connector-curvature="0"
         id="path86"
         style="fill:#181716;fill-opacity:1;fill-rule:nonzero;stroke:none"
         d="m 136.131,120.406 h 6.847 V 89.41 h -6.847 z" /><g
         transform="translate(161.96,89.4102)"
         id="g88"><path
           inkscape:connector-curvature="0"
           id="path90"
           style="fill:#181716;fill-opacity:1;fill-rule:nonzero;stroke:none"
           d="M 0,0 V 2.83 H -0.081 C -0.327,2.364 -0.649,1.928 -1.046,1.518 -1.442,1.107 -1.906,0.752 -2.439,0.452 -2.972,0.15 -3.561,-0.095 -4.202,-0.287 c -0.643,-0.191 -1.319,-0.286 -2.029,-0.286 -1.368,0 -2.523,0.246 -3.465,0.738 -0.943,0.491 -1.709,1.127 -2.296,1.905 -0.589,0.78 -1.012,1.668 -1.271,2.666 -0.26,0.997 -0.39,2.016 -0.39,3.054 v 12.629 h 6.765 V 9.349 c 0,-0.575 0.041,-1.121 0.123,-1.641 0.082,-0.519 0.239,-0.983 0.472,-1.394 0.231,-0.41 0.539,-0.731 0.922,-0.962 0.383,-0.233 0.888,-0.349 1.517,-0.349 1.175,0 2.071,0.436 2.686,1.311 0.614,0.875 0.922,1.9 0.922,3.076 V 20.419 H 6.478 V 0 Z" /></g><g
         transform="translate(190.041,99.7012)"
         id="g92"><path
           inkscape:connector-curvature="0"
           id="path94"
           style="fill:#181716;fill-opacity:1;fill-rule:nonzero;stroke:none"
           d="m 0,0 c 0,0.656 -0.103,1.299 -0.308,1.928 -0.204,0.629 -0.511,1.181 -0.922,1.66 -0.41,0.478 -0.916,0.867 -1.517,1.169 -0.602,0.301 -1.298,0.451 -2.091,0.451 -0.766,0 -1.449,-0.15 -2.05,-0.451 C -7.489,4.455 -8.002,4.06 -8.425,3.567 -8.85,3.075 -9.178,2.516 -9.409,1.887 -9.642,1.258 -9.758,0.615 -9.758,-0.041 c 0,-0.655 0.116,-1.298 0.349,-1.926 0.231,-0.63 0.559,-1.189 0.984,-1.681 0.423,-0.493 0.936,-0.889 1.537,-1.19 0.601,-0.301 1.284,-0.45 2.05,-0.45 0.793,0 1.489,0.149 2.091,0.45 0.601,0.301 1.107,0.697 1.517,1.19 0.411,0.492 0.718,1.059 0.922,1.701 C -0.103,-1.305 0,-0.655 0,0 m 6.479,0 c 0,-1.421 -0.22,-2.788 -0.657,-4.1 -0.437,-1.312 -1.073,-2.466 -1.906,-3.463 -0.835,-1 -1.853,-1.799 -3.055,-2.4 -1.203,-0.6 -2.569,-0.901 -4.1,-0.901 -1.367,0 -2.658,0.28 -3.874,0.841 -1.217,0.559 -2.153,1.359 -2.809,2.397 h -0.082 v -2.665 h -6.19 v 30.996 h 6.723 V 7.954 h 0.082 c 0.574,0.683 1.38,1.313 2.419,1.887 1.038,0.574 2.309,0.861 3.813,0.861 1.476,0 2.808,-0.287 3.998,-0.861 C 2.03,9.267 3.041,8.487 3.875,7.504 4.708,6.52 5.351,5.378 5.802,4.08 6.252,2.781 6.479,1.421 6.479,0" /></g></g><g
       id="g3945"
       transform="translate(0.03222735,46.000204)"><g
         transform="translate(231.95889,110.37395)"
         id="g96"><path
           inkscape:connector-curvature="0"
           id="path98"
           style="fill:#181716;fill-opacity:1;fill-rule:nonzero;stroke:none"
           d="M 0,0 -3.69,-9.963 H 3.608 Z M 7.79,-21.279 5.535,-15.58 H -5.699 l -2.132,-5.699 h -7.626 L -3.28,7.749 H 3.526 L 15.58,-21.279 Z" /></g><g
         transform="translate(262.22109,97.992048)"
         id="g100"><path
           inkscape:connector-curvature="0"
           id="path102"
           style="fill:#181716;fill-opacity:1;fill-rule:nonzero;stroke:none"
           d="m 0,0 h -0.861 c -0.738,0 -1.483,-0.034 -2.235,-0.103 -0.752,-0.068 -1.421,-0.199 -2.008,-0.389 -0.589,-0.192 -1.074,-0.472 -1.456,-0.84 -0.383,-0.37 -0.574,-0.855 -0.574,-1.456 0,-0.383 0.088,-0.711 0.266,-0.984 0.178,-0.273 0.403,-0.493 0.677,-0.656 0.273,-0.164 0.587,-0.28 0.943,-0.348 0.354,-0.069 0.697,-0.103 1.025,-0.103 1.366,0 2.412,0.376 3.136,1.128 C -0.363,-3 0,-1.982 0,-0.696 Z m -12.341,8.733 c 1.202,1.148 2.603,2.009 4.202,2.582 1.599,0.575 3.232,0.862 4.9,0.862 1.722,0 3.177,-0.212 4.366,-0.635 C 2.316,11.118 3.28,10.462 4.018,9.573 4.756,8.685 5.296,7.564 5.638,6.212 5.979,4.858 6.15,3.252 6.15,1.394 V -8.897 H 0 v 2.173 h -0.123 c -0.52,-0.847 -1.306,-1.504 -2.358,-1.967 -1.052,-0.465 -2.193,-0.699 -3.423,-0.699 -0.82,0 -1.668,0.111 -2.542,0.328 -0.875,0.219 -1.675,0.576 -2.399,1.067 -0.724,0.492 -1.319,1.148 -1.783,1.968 -0.465,0.82 -0.697,1.831 -0.697,3.034 0,1.476 0.403,2.665 1.209,3.567 0.806,0.903 1.845,1.599 3.116,2.091 1.271,0.492 2.686,0.819 4.244,0.984 1.558,0.164 3.075,0.247 4.551,0.247 v 0.327 c 0,1.011 -0.356,1.756 -1.066,2.235 -0.711,0.478 -1.586,0.717 -2.624,0.717 -0.958,0 -1.88,-0.205 -2.768,-0.615 C -7.551,6.15 -8.31,5.658 -8.938,5.084 Z" /></g><g
         transform="translate(286.81189,103.97745)"
         id="g104"><path
           inkscape:connector-curvature="0"
           id="path106"
           style="fill:#181716;fill-opacity:1;fill-rule:nonzero;stroke:none"
           d="m 0,0 c -0.301,0.083 -0.594,0.137 -0.881,0.165 -0.287,0.026 -0.567,0.04 -0.841,0.04 -0.901,0 -1.66,-0.164 -2.275,-0.49 -0.615,-0.327 -1.107,-0.723 -1.476,-1.186 -0.37,-0.464 -0.636,-0.967 -0.799,-1.513 -0.165,-0.545 -0.247,-1.022 -0.247,-1.43 v -10.469 h -6.724 V 5.512 h 6.478 V 2.56 h 0.082 c 0.519,1.045 1.257,1.898 2.214,2.559 0.957,0.66 2.064,0.99 3.322,0.99 0.272,0 0.539,-0.013 0.799,-0.04 C -0.089,6.041 0.123,6 0.287,5.945 Z" /></g><g
         transform="translate(302.28559,97.992048)"
         id="g108"><path
           inkscape:connector-curvature="0"
           id="path110"
           style="fill:#181716;fill-opacity:1;fill-rule:nonzero;stroke:none"
           d="m 0,0 h -0.861 c -0.739,0 -1.484,-0.034 -2.235,-0.103 -0.752,-0.068 -1.422,-0.199 -2.008,-0.389 -0.588,-0.192 -1.074,-0.472 -1.456,-0.84 -0.383,-0.37 -0.574,-0.855 -0.574,-1.456 0,-0.383 0.088,-0.711 0.267,-0.984 0.177,-0.273 0.402,-0.493 0.676,-0.656 0.273,-0.164 0.587,-0.28 0.943,-0.348 0.354,-0.069 0.697,-0.103 1.024,-0.103 1.367,0 2.412,0.376 3.137,1.128 C -0.363,-3 0,-1.982 0,-0.696 Z m -12.342,8.733 c 1.203,1.148 2.604,2.009 4.203,2.582 1.6,0.575 3.232,0.862 4.9,0.862 1.721,0 3.177,-0.212 4.367,-0.635 1.188,-0.424 2.151,-1.08 2.89,-1.969 C 4.756,8.685 5.295,7.564 5.637,6.212 5.979,4.858 6.149,3.252 6.149,1.394 V -8.897 H 0 v 2.173 h -0.123 c -0.52,-0.847 -1.306,-1.504 -2.357,-1.967 -1.053,-0.465 -2.195,-0.699 -3.424,-0.699 -0.821,0 -1.667,0.111 -2.542,0.328 -0.875,0.219 -1.675,0.576 -2.399,1.067 -0.724,0.492 -1.318,1.148 -1.784,1.968 -0.464,0.82 -0.696,1.831 -0.696,3.034 0,1.476 0.403,2.665 1.209,3.567 0.806,0.903 1.845,1.599 3.116,2.091 1.271,0.492 2.686,0.819 4.243,0.984 1.559,0.164 3.076,0.247 4.552,0.247 v 0.327 c 0,1.011 -0.356,1.756 -1.066,2.235 C -1.982,6.936 -2.857,7.175 -3.896,7.175 -4.853,7.175 -5.775,6.97 -6.663,6.56 -7.551,6.15 -8.31,5.658 -8.938,5.084 Z" /></g><g
         transform="translate(327.00819,89.094648)"
         id="g112"><path
           inkscape:connector-curvature="0"
           id="path114"
           style="fill:#181716;fill-opacity:1;fill-rule:nonzero;stroke:none"
           d="M 0,0 V 2.83 H -0.081 C -0.327,2.364 -0.649,1.928 -1.045,1.518 -1.442,1.107 -1.906,0.752 -2.439,0.452 -2.973,0.15 -3.561,-0.095 -4.202,-0.287 c -0.643,-0.191 -1.319,-0.286 -2.029,-0.286 -1.368,0 -2.522,0.246 -3.465,0.738 -0.944,0.491 -1.709,1.127 -2.296,1.905 -0.589,0.78 -1.012,1.668 -1.272,2.666 -0.259,0.997 -0.388,2.016 -0.388,3.054 v 12.629 h 6.764 V 9.349 c 0,-0.575 0.041,-1.121 0.123,-1.64 0.082,-0.52 0.239,-0.984 0.471,-1.395 0.232,-0.41 0.54,-0.731 0.924,-0.962 0.382,-0.233 0.888,-0.349 1.516,-0.349 1.175,0 2.071,0.436 2.685,1.311 0.616,0.875 0.924,1.9 0.924,3.076 V 20.419 H 6.478 V 0 Z" /></g></g></g></svg>