<?xml version="1.0" encoding="UTF-8" ?>
<!DOCTYPE svg PUBLIC "-//W3C//DTD SVG 1.1//EN" "http://www.w3.org/Graphics/SVG/1.1/DTD/svg11.dtd">
<svg width="65pt" height="150pt" viewBox="0 0 65 150" version="1.1" xmlns="http://www.w3.org/2000/svg">
<g id="#000000ff">
<path fill="#000000" opacity="1.00" d=" M 31.50 0.59 C 33.75 0.98 36.89 0.68 37.91 3.27 C 38.54 6.66 38.24 10.14 38.22 13.56 C 40.06 13.13 42.14 11.76 43.96 12.98 C 45.18 13.76 45.67 15.23 46.40 16.41 C 43.63 17.15 40.88 17.97 38.10 18.67 C 39.93 30.60 43.61 43.14 52.99 51.39 C 53.31 46.16 53.05 40.91 53.49 35.69 C 54.95 41.15 54.19 46.95 55.77 52.37 C 56.41 54.74 59.75 56.68 58.27 59.32 C 56.93 61.14 54.61 59.83 53.16 58.86 C 45.75 52.35 41.21 43.31 37.83 34.19 C 36.34 29.55 35.78 24.68 35.02 19.89 C 25.97 22.31 18.93 28.64 11.05 33.30 C 10.33 31.53 9.57 29.77 8.82 28.01 C 15.73 25.64 21.61 21.16 28.31 18.32 C 30.51 17.26 32.94 16.45 34.73 14.71 C 35.40 9.74 33.86 4.91 31.50 0.59 Z" />
<path fill="#000000" opacity="1.00" d=" M 19.29 7.61 C 22.15 8.03 25.61 8.01 27.57 10.52 C 28.28 11.77 28.71 13.15 29.21 14.49 C 26.19 15.12 23.18 15.81 20.27 16.86 C 20.90 15.76 21.53 14.67 22.16 13.57 C 21.06 11.66 20.09 9.67 19.29 7.61 Z" />
<path fill="#000000" opacity="1.00" d=" M 48.90 25.50 C 49.85 23.21 50.10 20.40 51.91 18.61 C 53.48 18.57 55.05 18.61 56.62 18.73 C 56.44 22.93 51.97 23.93 48.90 25.50 Z" />
<path fill="#000000" opacity="1.00" d=" M 23.42 28.03 C 24.65 28.36 25.89 28.69 27.13 29.01 C 27.17 31.00 27.20 32.98 27.25 34.96 C 29.77 33.58 32.37 32.22 35.29 31.95 C 35.50 32.73 35.92 34.29 36.13 35.06 C 33.17 36.29 30.21 37.53 27.16 38.49 C 27.23 40.31 27.32 42.14 27.40 43.96 C 29.66 42.96 31.86 41.79 34.24 41.08 C 36.18 40.22 37.02 42.67 38.22 43.68 C 29.25 47.06 21.49 52.75 13.13 57.31 C 12.77 56.27 12.41 55.24 12.06 54.21 C 13.78 52.52 16.11 51.19 17.01 48.86 C 17.68 44.12 16.66 39.37 16.12 34.68 C 17.71 35.94 20.37 36.64 20.48 39.03 C 20.01 42.56 18.58 45.89 17.96 49.39 C 20.41 48.22 22.79 46.93 25.15 45.57 C 22.84 39.98 23.99 33.88 23.42 28.03 Z" />
<path fill="#000000" opacity="1.00" d=" M 30.10 62.01 C 32.49 62.19 34.87 62.43 37.24 62.75 C 37.02 64.51 36.79 66.27 36.58 68.03 C 44.37 67.61 52.16 66.36 59.97 66.93 C 62.82 66.99 63.47 70.00 64.09 72.18 C 59.70 72.66 55.43 71.23 51.06 71.18 C 46.31 71.00 41.56 71.42 36.86 72.06 C 36.76 76.28 36.67 80.51 36.60 84.73 C 39.07 84.70 41.54 84.69 44.01 84.74 C 44.11 86.24 44.20 87.74 44.29 89.24 C 41.50 89.19 38.71 89.04 35.93 89.14 C 32.79 89.17 30.04 90.85 27.06 91.57 C 25.38 90.98 24.86 89.13 24.13 87.71 C 26.30 86.50 28.81 86.22 31.21 85.77 C 31.06 81.50 30.99 77.23 30.83 72.96 C 22.71 73.58 14.83 76.01 7.51 79.52 C 3.91 81.24 1.17 77.29 0.31 74.27 C 10.79 74.08 20.66 70.27 30.99 69.05 C 30.70 66.70 30.37 64.36 30.10 62.01 Z" />
<path fill="#000000" opacity="1.00" d=" M 42.88 95.22 C 45.72 95.29 48.56 96.10 49.12 99.27 C 45.33 100.45 41.69 102.05 38.28 104.08 C 40.29 101.39 41.90 98.43 42.88 95.22 Z" />
<path fill="#000000" opacity="1.00" d=" M 30.31 101.21 C 32.11 101.82 33.85 102.59 35.54 103.45 C 34.99 104.27 33.87 105.90 33.31 106.71 C 32.29 104.89 31.27 103.06 30.31 101.21 Z" />
<path fill="#000000" opacity="1.00" d=" M 26.66 110.23 C 35.31 109.01 42.52 103.25 51.25 102.43 C 51.29 103.28 51.36 104.97 51.39 105.82 C 47.84 106.23 43.66 106.21 41.01 109.01 C 38.49 111.68 35.76 114.15 33.35 116.93 C 37.29 115.72 40.90 113.62 44.91 112.66 C 47.63 112.90 46.65 116.12 46.85 117.98 C 46.39 124.59 48.18 131.21 47.14 137.77 C 45.94 138.71 44.34 138.79 42.94 139.26 C 42.20 131.98 43.49 124.68 43.21 117.38 C 39.10 118.56 35.14 121.30 30.70 120.34 C 30.97 124.85 30.60 129.38 30.63 133.90 C 30.78 135.68 29.84 137.24 29.03 138.75 C 28.31 133.34 29.54 127.97 30.10 122.60 C 28.94 122.56 27.77 122.52 26.61 122.47 C 29.40 117.96 33.46 114.45 36.47 110.11 C 33.86 111.16 31.36 112.47 28.92 113.86 C 28.14 112.67 27.39 111.46 26.66 110.23 Z" />
<path fill="#000000" opacity="1.00" d=" M 13.80 106.42 C 17.82 108.26 19.47 112.45 19.97 116.57 C 19.23 116.78 17.77 117.19 17.04 117.40 C 15.65 113.84 14.34 110.22 13.80 106.42 Z" />
<path fill="#000000" opacity="1.00" d=" M 9.88 124.82 C 14.75 123.25 18.74 119.85 23.57 118.22 C 22.03 122.37 19.59 126.10 17.79 130.14 C 19.74 129.81 21.69 129.47 23.65 129.20 C 21.85 134.26 18.59 138.56 15.11 142.58 C 23.84 142.13 32.35 144.50 40.98 145.27 C 47.77 145.12 54.34 143.04 61.06 142.23 C 58.43 144.25 55.80 146.33 52.86 147.87 C 48.69 149.94 43.85 149.51 39.40 148.78 C 32.61 147.47 25.78 146.39 18.95 145.32 C 14.07 144.25 10.35 148.27 5.83 149.20 C 6.51 147.28 7.38 145.36 9.08 144.14 C 12.53 141.35 15.41 137.97 18.18 134.52 C 17.21 133.36 16.10 132.28 15.42 130.92 C 15.76 129.06 16.44 127.29 17.08 125.52 C 16.03 126.09 14.99 126.70 13.87 127.13 C 12.30 126.94 11.19 125.59 9.88 124.82 Z" />
<path fill="#000000" opacity="1.00" d=" M 31.90 126.09 C 34.49 124.92 37.12 123.85 39.78 122.87 C 39.82 123.66 39.89 125.24 39.92 126.03 C 37.25 126.79 34.11 128.92 31.90 126.09 Z" />
<path fill="#000000" opacity="1.00" d=" M 32.99 131.28 C 34.94 130.69 36.90 130.17 38.89 129.73 C 38.60 131.09 38.30 132.45 37.99 133.80 C 36.22 133.18 34.53 132.35 32.99 131.28 Z" />
<path fill="#000000" opacity="1.00" d=" M 33.04 137.96 C 35.20 136.38 37.66 135.30 40.17 134.41 C 40.39 135.81 40.59 137.22 40.75 138.64 C 38.16 138.63 35.57 138.48 33.04 137.96 Z" />
</g>
</svg>
