<?xml version="1.0" encoding="UTF-8" standalone="no"?>
<!-- Created with Inkscape (http://www.inkscape.org/) -->

<svg
   xmlns:dc="http://purl.org/dc/elements/1.1/"
   xmlns:cc="http://creativecommons.org/ns#"
   xmlns:rdf="http://www.w3.org/1999/02/22-rdf-syntax-ns#"
   xmlns:svg="http://www.w3.org/2000/svg"
   xmlns="http://www.w3.org/2000/svg"
   xmlns:sodipodi="http://sodipodi.sourceforge.net/DTD/sodipodi-0.dtd"
   xmlns:inkscape="http://www.inkscape.org/namespaces/inkscape"
   version="1.1"
   id="svg2"
   xml:space="preserve"
   width="386.14392"
   height="84.336731"
   viewBox="0 0 386.14391 84.33673"
   sodipodi:docname="logo.svg"
   inkscape:version="0.92.4 (5da689c313, 2019-01-14)"><metadata
     id="metadata8"><rdf:RDF><cc:Work
         rdf:about=""><dc:format>image/svg+xml</dc:format><dc:type
           rdf:resource="http://purl.org/dc/dcmitype/StillImage" /><dc:title></dc:title></cc:Work></rdf:RDF></metadata><defs
     id="defs6"><clipPath
       clipPathUnits="userSpaceOnUse"
       id="clipPath20"><path
         d="M 0,0 H 841.89 V 595.276 H 0 Z"
         id="path18"
         inkscape:connector-curvature="0" /></clipPath><clipPath
       clipPathUnits="userSpaceOnUse"
       id="clipPath60"><path
         d="M 26.929,230.865 H 160.397 V 408.898 H 26.929 Z"
         id="path58"
         inkscape:connector-curvature="0" /></clipPath><clipPath
       clipPathUnits="userSpaceOnUse"
       id="clipPath118"><path
         d="M 293.386,254.493 H 404.637 V 403.539 H 293.386 Z"
         id="path116"
         inkscape:connector-curvature="0" /></clipPath><clipPath
       clipPathUnits="userSpaceOnUse"
       id="clipPath160"><path
         d="M 559.842,257.709 H 693.31 V 406.754 H 559.842 Z"
         id="path158"
         inkscape:connector-curvature="0" /></clipPath><clipPath
       clipPathUnits="userSpaceOnUse"
       id="clipPath208"><path
         d="m 26.929,55.701 h 290.009 v 63.398 H 26.929 Z"
         id="path206"
         inkscape:connector-curvature="0" /></clipPath></defs><sodipodi:namedview
     pagecolor="#ffffff"
     bordercolor="#666666"
     borderopacity="1"
     objecttolerance="10"
     gridtolerance="10"
     guidetolerance="10"
     inkscape:pageopacity="0"
     inkscape:pageshadow="2"
     inkscape:window-width="1564"
     inkscape:window-height="847"
     id="namedview4"
     showgrid="false"
     fit-margin-top="0"
     fit-margin-left="0"
     fit-margin-right="0"
     fit-margin-bottom="0"
     inkscape:zoom="1.1893642"
     inkscape:cx="315.96827"
     inkscape:cy="44.285293"
     inkscape:window-x="70"
     inkscape:window-y="27"
     inkscape:window-maximized="0"
     inkscape:current-layer="g10" /><g
     id="g10"
     inkscape:groupmode="layer"
     inkscape:label="170228_Judo&amp;JiuJitsuClubAarau_Brand Design"
     transform="matrix(1.3333333,0,0,-1.3333333,-36.439931,158.7669)"><g
       id="g12" /><g
       id="g202"><g
         id="g204"
         clip-path="url(#clipPath208)"><path
           d="m 27.754,83.4014 c 0.039,-0.369 0.116,-0.732 0.204,-1.093 l 0.254,-1.083 c 0.284,-1.461 0.833,-2.843 1.31,-4.248 0.263,-0.691 0.601,-1.352 0.903,-2.029 l 0.468,-1.007 c 0.155,-0.336 0.365,-0.644 0.545,-0.968 l 1.133,-1.914 c 0.412,-0.617 0.867,-1.207 1.305,-1.809 l 0.665,-0.897 0.741,-0.836 c 0.504,-0.551 0.991,-1.116 1.512,-1.651 0.868,-0.784 1.711,-1.6 2.629,-2.328 h 23.264 c 0.077,0.277 0.155,0.544 0.237,0.789 l 0.01,0.076 c 0.099,1.884 0.289,3.336 0.592,4.522 0.018,0.207 0.042,0.407 0.069,0.597 l -0.04,0.057 0.041,0.294 c 0.013,0.106 0.11,0.707 0.24,1.53 0.14,0.883 0.358,2.035 0.551,3.046 0.116,0.607 0.282,1.477 0.298,1.627 0.021,0.32 0.035,0.685 0.05,1.048 l 0.007,0.202 c 0.002,0.065 0.005,0.13 0.007,0.196 -2.038,0.211 -3.418,0.969 -4.009,2.215 -0.223,0.486 -0.318,0.983 -0.288,1.486 -0.025,0.165 -0.035,0.326 -0.03,0.48 0,0.012 0,0.024 0.001,0.035 l -0.094,0.149 -0.187,1.078 0.272,1.13 -0.451,0.649 0.065,1.126 c 0.012,0.181 0.041,0.358 0.086,0.533 -0.002,0.072 -10e-4,0.144 0.001,0.216 l 0.022,0.148 0.137,0.519 0.418,0.896 0.314,0.429 c 0.152,0.149 0.32,0.284 0.5,0.399 0.533,0.327 1.123,0.529 1.859,0.639 0.022,0.012 0.044,0.023 0.066,0.034 l 0.195,0.617 2.402,-0.012 c 0.012,0.002 0.027,0.004 0.043,0.004 0.035,0.077 0.075,0.152 0.116,0.225 0.006,0.166 0.017,0.342 0.034,0.533 -1.45,0.115 -2.445,0.214 -3.03,0.3 l -0.939,0.136 -0.594,0.517 c -1.25,0.352 -1.894,1.327 -2.084,2.153 l -0.219,0.952 0.471,1.191 -0.055,0.149 c -0.672,0.119 -1.424,0.312 -2.084,0.818 l -0.235,0.181 c -0.197,0.121 -0.38,0.257 -0.544,0.407 l -0.1,-0.066 -0.188,0.302 -0.094,0.073 -0.009,0.092 -0.51,0.826 -0.167,1.136 0.08,0.303 -0.318,0.396 0.005,1.211 c 0,0.039 10e-4,0.073 0.003,0.104 l -0.093,0.537 0.04,0.253 c -0.01,0.063 -0.017,0.125 -0.022,0.188 l -0.02,0.117 0.01,0.064 c -0.014,0.05 -0.028,0.1 -0.04,0.151 l -0.306,0.465 0.153,0.21 0.058,0.29 -0.02,0.463 h 0.114 c 0.142,0.601 0.561,1.554 1.784,2.136 l 0.21,0.623 2.534,-0.096 0.145,0.004 h 0.005 c 0.388,0 0.762,-0.019 1.128,-0.057 l 0.346,-0.009 c 0.063,-0.002 0.128,-0.005 0.19,-0.009 l 0.086,0.066 0.313,-0.043 c 1.161,-0.159 2.067,-0.341 2.847,-0.569 0.224,-0.014 0.501,-0.056 0.766,-0.119 0.958,-0.08 1.829,-0.194 2.592,-0.338 l 1.798,-0.15 c 0.477,-0.039 0.97,-0.067 1.464,-0.095 0.983,-0.056 1.955,-0.111 2.89,-0.244 0.189,0.02 0.376,0.038 0.564,0.053 l 0.067,0.078 0.313,0.022 c 0.714,0.051 1.271,0.064 1.878,0.039 0.611,-0.024 2.696,-0.141 4.269,-0.646 1.879,-0.031 3.76,-0.061 5.637,-0.082 0.055,0.004 0.111,0.007 0.171,0.008 0.312,0.006 0.627,0.017 0.94,0.024 -1.686,2.896 -3.899,5.544 -6.587,7.696 -2.43,1.794 -5.149,3.078 -7.809,4.016 -0.496,0.171 -1.008,0.348 -1.532,0.529 -0.258,0.102 -0.532,0.17 -0.809,0.233 -0.274,0.067 -0.552,0.135 -0.833,0.203 -0.562,0.124 -1.121,0.313 -1.705,0.391 -0.585,0.083 -1.172,0.169 -1.759,0.253 -0.585,0.112 -1.18,0.107 -1.766,0.136 -0.588,0.013 -1.17,0.066 -1.741,0.046 -0.091,-0.006 -0.177,-0.012 -0.267,-0.018 -1.276,0.048 -2.55,0.025 -3.805,-0.058 0.383,-0.038 0.754,-0.108 1.116,-0.181 -0.099,-0.017 -0.201,-0.036 -0.298,-0.053 0.073,-0.078 0.051,-0.169 -0.048,-0.271 -1.801,0.062 -3.344,-0.051 -4.062,-0.274 -0.759,-0.148 -1.366,-0.28 -1.84,-0.397 -0.476,-0.101 -0.807,-0.279 -1.04,-0.378 -0.461,-0.222 -0.496,-0.356 -0.279,-0.438 0.219,-0.087 0.687,-0.107 1.244,-0.147 0.565,-0.074 1.216,-0.148 1.791,-0.243 0.143,-0.007 0.249,-0.021 0.339,-0.037 -1.069,-0.363 -2.225,-1.118 -2.68,-1.484 0.635,0.098 2.069,0.264 2.569,0.27 -0.886,-0.192 -1.661,-0.558 -2.297,-0.921 -0.549,-0.058 -1.046,-0.129 -1.497,-0.254 -0.448,-0.116 -1.467,-0.506 -1.633,-0.612 -0.332,-0.213 -1.346,-0.981 -1.028,-0.991 0.606,0.422 1.377,0.397 1.732,0.453 0.038,0.007 0.067,-0.007 0.094,-0.024 -0.309,-0.204 -0.606,-0.411 -0.89,-0.596 -0.541,-0.338 -0.964,-0.714 -1.266,-1.003 -0.305,-0.287 -0.486,-0.491 -0.481,-0.573 0.013,-0.244 -0.03,-0.543 -0.174,-0.919 -0.138,-0.382 -0.335,-0.885 -0.676,-1.473 -0.166,-0.299 -0.373,-0.615 -0.599,-0.976 -0.209,-0.38 -0.447,-0.794 -0.725,-1.242 -0.141,-0.22 -0.291,-0.453 -0.447,-0.697 -0.15,-0.249 -0.284,-0.526 -0.443,-0.805 -0.156,-0.277 -0.323,-0.566 -0.493,-0.871 -0.089,-0.149 -0.18,-0.303 -0.273,-0.46 -0.085,-0.161 -0.158,-0.334 -0.242,-0.505 -0.272,-0.531 -0.618,-1.107 -0.97,-1.702 -0.3,-0.622 -0.621,-1.252 -0.924,-1.84 -0.547,-1.203 -0.923,-2.279 -1.004,-2.693 -0.047,-0.376 0.026,-0.365 0.16,-0.162 0.134,0.203 0.333,0.522 0.527,0.865 0.391,0.677 0.767,1.335 0.675,0.68 0.097,0.252 0.179,0.51 0.286,0.755 l 0.353,0.724 c 0.238,0.48 0.454,0.97 0.7,1.444 l 0.823,1.37 c 0.141,0.224 0.257,0.466 0.417,0.677 l 0.47,0.64 c 1.191,1.757 2.689,3.258 4.261,4.623 l 0.079,0.063 c -0.086,-0.084 -0.179,-0.169 -0.262,-0.253 -1.564,-1.661 -2.797,-3.62 -3.781,-5.615 0.339,0.395 0.725,0.726 1.061,1.056 0.354,0.316 0.653,0.638 1.001,0.874 -1.418,-1.686 -2.556,-3.605 -2.73,-4.455 -0.4,-1.105 -0.582,-1.786 -0.569,-2.191 -0.009,-0.398 0.098,-0.485 0.277,-0.395 0.181,0.089 0.424,0.361 0.714,0.677 0.318,0.308 0.668,0.664 1.006,0.962 0.374,0.448 0.511,0.298 0.669,0.189 -0.782,-1.521 -1.379,-3.159 -1.761,-4.886 -0.176,-0.202 -0.35,-0.406 -0.525,-0.615 -0.476,-0.541 -0.873,-1.152 -1.28,-1.776 -1.108,-2.487 -1.533,-5.219 -1.344,-7.859 0.134,0.074 0.257,0.107 0.312,-0.15 0.037,-0.517 0.127,-1.126 0.177,-1.795 -0.413,0.78 -0.794,1.729 -1.161,2.862 -0.134,0.595 -0.249,1.28 -0.346,1.981 -0.058,0.704 -0.062,1.43 -0.079,2.101 -0.017,0.336 0.002,0.659 0.027,0.961 0.019,0.302 0.037,0.583 0.053,0.835 0.026,0.507 0.032,0.898 -0.003,1.116 -0.046,0.29 -0.123,0.272 -0.216,0.101 -0.091,-0.172 -0.183,-0.587 -0.278,-0.976 -0.188,-0.791 -0.368,-1.608 -0.49,-0.909 -0.048,-0.584 -0.017,-1.169 0.014,-1.753 0.039,-0.583 0.038,-1.172 0.123,-1.75 0.17,-1.158 0.33,-2.318 0.664,-3.44 0.257,-1.142 0.711,-2.219 1.116,-3.311 0.238,-0.531 0.5,-1.05 0.755,-1.572 0.133,-0.258 0.252,-0.524 0.397,-0.776 l 0.453,-0.743 c 1.946,-3.26 4.682,-5.998 7.864,-8.04 -1.684,0.92 -3.311,2.092 -4.722,3.459 -2.142,2.039 -3.774,4.462 -4.912,6.585 -1.15,1.905 -1.982,4.071 -2.605,6.314 -0.032,-0.55 0.011,-1.071 0.048,-1.57 0.029,-0.504 0.054,-0.983 0.079,-1.429 -0.238,1.177 -0.54,2.338 -0.631,3.353 -0.07,0.503 -0.142,0.96 -0.213,1.347 -0.036,0.392 -0.074,0.714 -0.125,0.944 -0.069,0.641 -0.14,1.159 -0.207,1.57 -0.026,0.412 -0.062,0.718 -0.104,0.931 -0.085,0.429 -0.198,0.496 -0.333,0.334 -0.133,-0.163 -0.29,-0.557 -0.46,-1.043 -0.163,-0.485 -0.265,-1.065 -0.418,-1.594 -0.116,-0.757 -0.297,-0.637 -0.476,-0.619 -0.089,0.007 -0.177,-0.011 -0.257,-0.185 -0.078,-0.173 -0.099,-1.752 -0.08,-2.362 -0.089,0.59 -0.116,2.272 -0.12,2.45 -0.058,1.329 0,2.098 0.026,2.567 -0.063,0.054 -0.211,-0.413 -0.239,-0.66 -0.027,-0.248 -0.068,-0.635 -0.055,-1.249 0.035,-0.613 0.065,-1.525 -0.081,-1.228 -0.048,0.851 -0.14,1.717 -0.121,2.458 0.02,0.741 0.347,2.825 0.377,3.267 -0.099,-0.146 -0.385,-0.716 -0.523,-1.973 -0.003,-0.463 -0.119,-0.37 -0.11,-0.147 0.016,0.444 0.062,0.721 -0.044,0.816 -0.042,0.037 -0.143,-0.401 -0.192,-0.956 -0.02,-0.278 -0.07,-0.571 -0.07,-0.866 0.005,-0.296 0.018,-0.64 0.022,-0.867 -0.111,0.104 -0.148,0.844 -0.152,1.171 0.007,0.327 0.188,2.014 0.191,2.513 0.054,0.995 0.111,1.749 0.079,2.179 -0.04,0.856 -0.374,0.419 -0.97,-2.156 0.101,0.907 0.348,1.984 0.554,3.072 0.285,1.072 0.605,2.145 0.809,3.083 -0.003,-0.001 -0.007,-0.008 -0.01,-0.012 -0.309,-0.938 -0.217,-0.314 -0.217,-0.314 -0.102,-0.148 -0.134,-0.201 -0.244,-0.384 -0.246,-0.782 -0.738,-2.048 -0.289,-0.497 -0.274,-0.492 -0.439,-0.858 -0.736,-1.51 -0.182,-0.639 -0.363,-1.273 -0.538,-1.887 -0.171,-0.617 -0.368,-1.213 -0.453,-1.788 -0.199,-1.144 -0.414,-2.153 -0.39,-2.885 -0.066,-2.961 0.334,-5.928 1.051,-8.825 0.592,-2.236 1.454,-4.4 2.53,-6.464 -0.05,0.059 -0.099,0.118 -0.147,0.177 -0.213,0.261 -0.375,0.555 -0.561,0.831 -0.257,0.423 -0.522,0.86 -0.794,1.307 -0.285,0.443 -0.462,0.956 -0.7,1.445 -0.216,0.5 -0.471,0.993 -0.657,1.517 -0.172,0.529 -0.342,1.062 -0.515,1.594 -0.084,0.266 -0.176,0.53 -0.251,0.798 -0.057,0.272 -0.113,0.544 -0.17,0.815 -0.114,0.538 -0.226,1.073 -0.337,1.599 -0.078,0.531 -0.119,1.056 -0.181,1.565 -0.043,0.509 -0.15,1 -0.134,1.482 -0.24,-0.164 -0.467,0.297 -0.687,1.077 -0.1,0.39 -0.244,0.858 -0.303,1.363 -0.054,0.513 -0.112,1.054 -0.168,1.586 -0.029,0.271 -0.056,0.538 -0.084,0.798 -0.007,0.259 -0.015,0.51 -0.021,0.748 -0.015,0.48 -0.042,0.91 -0.086,1.246 -0.091,0.673 -0.257,0.977 -0.585,0.523 0.112,0.69 0.371,1.437 0.56,2.203 0.176,0.769 0.468,1.508 0.705,2.18 0.431,1.361 0.914,2.356 0.828,2.519 -0.118,0.238 -0.198,0.565 -0.203,1.041 -0.002,0.238 0.007,0.518 0.055,0.831 0.062,0.308 0.153,0.658 0.277,1.058 0.251,0.796 0.6,1.814 1.303,2.971 0.634,1.208 1.62,2.54 2.95,4.064 0.566,0.55 1.236,1.148 1.931,1.745 0.729,0.555 1.515,1.07 2.232,1.563 0.182,0.121 0.355,0.247 0.534,0.354 0.182,0.101 0.359,0.2 0.531,0.295 0.343,0.191 0.663,0.369 0.949,0.529 0.571,0.325 1.008,0.587 1.228,0.763 0.316,0.237 0.254,0.285 0.006,0.237 -0.251,-0.05 -0.745,-0.259 -1.224,-0.45 -0.965,-0.391 -1.945,-0.801 -1.243,-0.233 -0.667,-0.35 -1.275,-0.789 -1.885,-1.227 -0.605,-0.446 -1.243,-0.847 -1.809,-1.339 l -1.69,-1.484 -0.42,-0.373 -0.384,-0.41 -0.767,-0.82 c -1.062,-1.062 -1.911,-2.297 -2.817,-3.482 -0.411,-0.622 -0.791,-1.263 -1.183,-1.897 -0.188,-0.32 -0.395,-0.632 -0.568,-0.961 l -0.493,-1.002 c -2.69,-5.312 -3.755,-11.37 -3.22,-17.272 z"
           style="fill:#ed1c24;fill-opacity:1;fill-rule:nonzero;stroke:none"
           id="path210"
           inkscape:connector-curvature="0" /><path
           d="m 63.6956,87.0557 c -0.113,0.025 -0.222,0.049 -0.382,0.043 -0.04,-0.013 -0.06,-0.021 -0.07,-0.025 0.059,-0.014 0.141,-0.033 0.221,-0.053 0.159,-0.037 0.24,-0.007 0.231,0.035"
           style="fill:#231f20;fill-opacity:1;fill-rule:nonzero;stroke:none"
           id="path212"
           inkscape:connector-curvature="0" /><path
           d="m 108.8942,84.7887 c -0.05,-0.014 -0.049,-0.033 0.004,-0.048 0.046,-0.011 0.769,-0.014 0.821,10e-4 0.041,0.012 0.039,0.036 -0.005,0.048 -0.053,0.014 -0.777,0.012 -0.82,-10e-4"
           style="fill:#231f20;fill-opacity:1;fill-rule:nonzero;stroke:none"
           id="path214"
           inkscape:connector-curvature="0" /><path
           d="m 112.7685,103.5115 -0.069,0.052 -0.065,-0.078 0.037,0.07 -0.149,-0.049 c 0.074,0.03 0.111,0.045 0.135,0.054 0.028,0.004 0.063,0.005 0.091,0.008 0.045,0 0.068,0.005 0.086,0.012 0.006,-0.005 0.014,-0.01 0.026,-0.014 -0.083,-0.05 -0.092,-0.055 -0.092,-0.055 m -0.354,-3.366 -0.289,0.372 0.311,-0.355 z m -0.377,1.601 c -0.016,0.008 -0.032,0.016 -0.049,0.022 l -0.067,-0.011 c 0.016,-0.005 0.032,-0.008 0.048,-0.011 -1.487,0.006 -3.407,-0.011 -3.509,0.089 0.12,0.049 0.738,0.113 0.59,0.142 -0.05,0.011 -0.109,0.016 -0.171,0.015 l 0.001,10e-4 c 0.066,0.041 0.084,0.054 0.171,0.1 0.118,0.021 0.19,0.033 0.19,0.033 0.318,0.044 0.103,-0.064 0.383,-0.025 0.065,0.019 0.342,0.035 0.707,0.053 -0.129,-0.045 -0.201,-0.103 -0.165,-0.161 0.027,-0.04 0.105,-0.075 0.218,-0.096 l 0.239,-0.015 c 0.326,-0.007 0.665,-0.018 0.981,-0.044 0.146,-0.016 0.283,-0.036 0.384,-0.07 l 0.081,0.016 c 0.023,-0.006 0.042,-0.012 0.064,-0.016 -0.032,-0.006 -0.064,-0.014 -0.095,-0.022 z m -1.485,-2.333 c -0.18,0.008 -0.262,0.005 -0.452,-0.009 -0.512,-0.036 -0.476,0.133 -0.967,0.082 0.062,0.054 -0.056,0.043 -0.117,0.045 l -0.185,0.003 c 0.517,0.065 1.041,0.133 1.579,0.202 0.481,0.064 0.363,-0.207 0.817,-0.127 -0.304,-0.102 -0.449,-0.073 -0.675,-0.196 m -4.727,4.013 0.067,0.033 -0.372,-0.064 -0.04,-0.005 0.278,0.122 0.196,0.041 c 0.995,0.09 1.399,0.273 2.237,0.426 0.299,-0.058 0.647,-0.114 1.03,-0.158 -0.661,-0.048 -1.318,-0.119 -1.957,-0.24 -0.484,-0.052 -0.961,-0.103 -1.439,-0.155 m 3.902,-0.211 c 0.059,0.025 10e-4,0.081 0.033,0.088 0.645,0.133 1.477,0.156 2.21,0.2 -0.22,-0.104 -0.284,-0.32 -0.591,-0.359 -0.034,-0.016 -0.061,-0.032 -0.086,-0.048 -0.036,0.016 -0.108,0.024 -0.179,0.015 l -0.196,-0.022 -0.042,0.007 v 0.006 c -0.067,0.009 -0.113,0.015 -0.166,0.023 -0.033,0.004 -0.034,0.005 -0.034,0.005 l -0.001,-0.001 c -0.115,0.015 -0.281,0.039 -0.719,0.099 -0.11,-0.016 -0.216,-0.032 -0.323,-0.047 z m -5.366,-8.193 -0.068,0.006 c 0.453,0.063 0.213,0.022 0.068,-0.006 m -1.576,1.426 v 0.001 c -0.044,0.075 -0.145,0.144 -0.28,0.206 0.009,0.003 0.016,0.008 0.025,0.013 0.173,-0.003 0.348,-0.007 0.521,-0.011 z m -1.622,-1.956 c -0.001,0.023 -0.002,0.156 -0.003,0.179 0.162,-0.014 0.337,-0.028 0.533,-0.044 0.001,-0.014 0.002,-0.136 0.005,-0.153 -0.173,0.006 -0.354,0.012 -0.535,0.018 m 1.539,-12.375 c 0.247,0.008 0.472,0.031 0.669,0.067 0.879,-0.036 0.238,-0.072 0.852,-0.108 -0.417,-0.021 -0.841,-0.038 -1.272,-0.052 -0.336,0.031 -0.516,0.062 -0.249,0.093 m 1.783,0.593 c 0.788,0.055 1.573,0.123 2.37,0.203 -0.423,-0.132 -0.808,-0.258 -2.335,-0.262 l -0.344,0.004 c 0.111,0.02 0.212,0.038 0.309,0.055 m 5.221,1.504 -0.012,-0.003 c -0.035,0 -0.062,0 -0.094,0.002 0.038,0 0.068,0 0.106,0.001 m -4.808,-2.611 c -0.021,0.004 -0.044,0.004 -0.066,0.005 0.124,-0.001 0.244,-0.004 0.066,-0.005 m -1.908,-13.347 0.048,0.335 0.105,-0.691 0.056,-0.292 c 0.113,-1.211 0.294,-2.446 0.338,-3.757 -0.079,0.616 -0.274,1.222 -0.376,1.798 l -0.633,3.774 0.55,-1.724 z m 0.818,-8.537 c -0.006,-0.217 -0.022,-0.079 -0.023,-0.14 -0.008,-0.062 0.042,-1.028 0.042,-1.028 -0.038,-0.011 -0.038,-0.011 -0.05,-0.05 -0.012,-0.013 -0.028,-0.011 -0.028,-0.011 -0.052,0.118 -0.052,0.118 -0.065,0.122 -0.014,0.027 -0.025,0.066 -0.025,0.066 -0.025,0.142 -0.02,0.045 -0.023,0.067 0.073,0.313 -0.033,0.297 -0.033,0.297 l -0.039,0.065 0.039,0.073 -0.038,-0.042 0.012,0.155 -0.021,-0.18 c -0.016,0.367 -0.016,0.367 -0.028,0.512 -0.008,0.152 -0.031,0.281 -0.032,0.298 -0.011,-0.015 -0.021,-0.015 -0.021,-0.015 -0.016,0.387 -0.016,0.387 -0.031,0.77 0.007,0.036 0.015,0.064 0.019,0.09 -0.012,0.036 -0.027,0.108 -0.029,0.184 l -0.008,0.199 -0.01,0.043 -0.003,-0.002 c -0.013,0.069 -0.025,0.115 -0.034,0.169 -0.006,0.032 -0.006,0.034 -0.006,0.034 v 0.002 c -0.025,0.115 0.101,0.303 0.012,0.745 -0.003,0.115 -0.006,0.226 -0.007,0.333 l 0.225,-1.194 z m -0.385,-3.384 c -0.005,-0.002 -0.007,-0.005 -0.01,-0.008 -0.053,0.182 -0.055,0.188 -0.055,0.188 0.033,-0.093 0.051,-0.144 0.065,-0.18 m -0.033,-0.042 -0.056,0.056 c 0.037,-0.024 0.051,-0.031 0.063,-0.039 -0.004,-0.005 -0.005,-0.012 -0.007,-0.017 m -2.515,37.233 c -0.063,-0.005 -0.115,-0.084 -0.157,-0.212 -0.006,0.093 -0.015,0.187 -0.023,0.279 0.072,0.004 0.148,0.009 0.222,0.014 10e-4,-0.032 0.005,-0.067 0.006,-0.099 -0.014,0.01 -0.032,0.018 -0.048,0.018 m -0.27,0.985 c -0.003,0.022 -0.004,0.15 -0.006,0.172 0.082,0.004 0.171,0.002 0.244,0.013 0.002,-0.03 0.004,-0.165 0.005,-0.194 -0.086,0.003 -0.17,0.006 -0.243,0.009 m -2.816,-31.112 -0.113,2.985 0.573,-4.325 z m 0.253,-5.187 -0.011,-0.277 c -0.064,0.782 -0.124,2.101 -0.19,2.904 -0.061,0.72 -0.1,1.507 -0.183,2.192 0.101,-0.409 0.223,-0.727 0.348,-1.026 -0.015,-0.27 -0.019,-0.553 -0.009,-0.838 0.025,-0.767 0.06,-2.048 0.107,-2.782 -0.067,0.095 -0.057,-0.083 -0.062,-0.173 m -0.586,23.449 c -2.525,-0.581 -10.566,-0.864 -13.157,-0.776 l -2.069,0.034 0.099,-0.029 -0.532,0.012 -0.059,-0.004 4.806,0.497 0.133,-0.023 c 0.087,-0.02 0.007,-0.094 0.054,-0.095 1.159,-0.057 9.376,0.56 10.617,0.583 0.224,0.025 0.432,0 0.468,-0.053 0.028,-0.055 -0.133,-0.123 -0.36,-0.146 m -15.996,6.191 c 0.003,-0.184 -0.051,-0.349 0.023,-0.517 -0.04,-0.121 -0.079,-0.233 -0.038,-0.344 -0.06,0.001 -0.118,0.004 -0.176,0.005 -0.514,0.004 -0.989,-0.031 -1.47,-0.083 0.225,-0.014 0.442,-0.026 0.667,-0.039 -0.63,-0.011 -1.17,-0.087 -1.702,-0.169 -0.583,0.077 -1.212,0.127 -1.862,0.154 -0.138,0.049 -0.341,0.081 -0.583,0.085 -0.101,0.016 -0.219,0.026 -0.293,0.047 -0.165,0.048 -0.338,0.091 -0.521,0.133 0.019,0.382 0.031,0.758 0.053,1.145 -0.006,2.063 -0.035,3.519 -0.086,5.071 1.451,-0.073 2.906,-0.135 4.395,-0.169 0.479,0.023 0.946,0.036 1.414,0.048 -0.006,-0.18 -0.017,-0.368 -0.029,-0.582 0.002,-0.027 0.018,-0.048 0.041,-0.049 0.025,0 0.045,0.019 0.046,0.042 0.014,0.218 0.022,0.411 0.028,0.592 0.17,0.003 0.341,0.008 0.511,0.012 0.018,-0.316 0.03,-0.632 0.047,-0.956 -0.015,-0.077 -0.023,-0.153 -0.013,-0.229 l 0.032,-0.228 c 0.014,-0.601 0.077,-1.193 0.027,-1.782 -0.107,0.697 -0.332,1.712 -0.524,2.392 -0.01,0.049 -0.054,0.079 -0.098,0.073 -0.045,-0.012 -0.074,-0.059 -0.066,-0.108 0.146,-0.953 0.34,-2.237 0.438,-3.196 -0.106,-0.077 -0.268,-1.056 -0.261,-1.348 m 0.025,-0.51 c 0.011,0.079 0.023,0.152 0.035,0.231 0.008,-0.081 -0.012,-0.158 -0.035,-0.231 m 0.767,5.443 c -0.016,0 -0.031,-0.004 -0.047,-0.008 -0.002,0.153 -0.005,0.307 -0.007,0.461 0.083,0.001 0.169,0.001 0.252,0.003 -0.011,-0.168 -0.023,-0.336 -0.025,-0.501 -0.051,0.031 -0.11,0.049 -0.173,0.045 m 0.058,-4.435 c 0.197,0.076 0.372,-0.483 0.28,-1.594 -0.044,-0.562 -0.088,-1.129 -0.123,-1.545 -0.02,0.07 -0.065,0.204 -0.15,0.473 -0.112,1.111 -0.053,1.877 -0.007,2.666 m -10.499,9.794 c -0.828,0.021 -1.317,0.119 -2.1,0.149 -0.2,0 -0.338,0.015 -0.313,0.033 0.024,0.017 0.213,0.03 0.409,0.027 2.619,0.038 5.601,0.087 7.684,-0.055 0.477,0 0.937,-0.01 1.318,-0.037 h 0.021 l -0.292,0.036 c 0.355,-0.007 0.542,-0.037 0.868,-0.05 l -0.116,0.05 c 1.758,-0.026 3.664,-0.077 5.29,-0.142 0.064,-0.001 0.126,-0.003 0.187,-0.005 l -1.063,-0.081 -1.873,-0.015 -0.279,0.01 c -1.596,0.013 -8.002,0.081 -9.741,0.08 m 2.621,-6.002 c -0.01,-0.053 -0.018,-0.11 -0.023,-0.173 l -0.14,-1.296 0.021,0.453 c 0.022,0.3 -0.026,0.988 -0.106,1.014 -0.034,0.002 -0.068,-0.465 -0.099,-0.534 -0.011,0.614 -0.046,1.211 -0.07,1.815 0.161,-0.009 0.324,-0.016 0.485,-0.027 -0.023,-0.422 -0.046,-0.84 -0.068,-1.252 m -0.251,-19.468 c 0.013,0.202 0.021,0.379 0.02,0.5 -0.008,-0.062 -0.017,-0.126 -0.025,-0.186 l -0.05,-0.507 c -0.114,-1.15 -0.242,-1.417 -0.29,-0.606 -0.047,0.807 0.007,2.391 0.12,3.538 l -0.031,-0.126 c 0.017,0.373 0.046,0.704 0.071,1.036 -0.023,-0.222 -0.047,-0.451 -0.071,-0.675 0.09,1.156 0.187,1.347 0.295,2.201 0.012,0.096 0.022,0.25 0.035,0.382 0.032,0.604 0.093,1.038 0.133,0.978 0.041,-0.063 0.049,-0.597 0.018,-1.196 0.031,-1.671 -0.026,-3.397 -0.225,-5.339 m -3.514,-15.441 -0.437,0.443 0.46,-0.411 z m -0.693,0.763 c 0.11,0.651 0.18,1.394 0.269,2.079 0.096,0.761 -0.024,1.514 0.068,2.255 v -0.264 c 0.003,-0.087 0.2,-0.262 0.27,-0.173 -0.075,-0.699 -0.14,-1.409 -0.197,-2.137 -0.02,-0.271 -0.028,-0.54 -0.021,-0.798 -0.137,-0.279 -0.271,-0.577 -0.389,-0.962 m 4.268,44.33 c 0.705,0.188 2.571,0.041 3.876,0.078 l 0.507,-0.034 c 0.44,-0.031 0.729,-0.104 0.644,-0.161 -0.036,-0.026 -0.146,-0.047 -0.308,-0.056 l -0.337,-0.004 c -0.947,0.013 -1.178,0.022 -0.507,-0.068 0.141,-0.016 0.183,-0.217 0.12,-0.234 -0.075,-0.017 -0.244,0.04 -0.38,0.055 -0.886,0.08 -3.242,0.159 -3.189,0.244 -0.027,0.06 -0.585,0.136 -0.426,0.18 m 12.663,-10.099 c -0.034,-0.002 -0.065,-0.014 -0.091,-0.036 -0.071,0.217 -0.154,0.687 -0.244,1.054 h 0.483 0.047 c 0.011,-0.115 0.021,-0.231 0.022,-0.348 -0.005,-0.014 -0.01,-0.031 -0.011,-0.049 -0.012,-0.116 -0.194,0.025 -0.24,-0.035 0.036,-0.201 0.094,-0.587 0.034,-0.586 m -1.809,10.197 c 1.545,0.001 3.085,0.011 4.609,0.057 0.054,0 0.091,0.009 0.129,0.015 0.382,0.002 0.763,0.007 1.146,0.011 0.308,-0.019 0.618,-0.031 0.927,-0.048 -1.194,-0.111 -2.391,-0.216 -3.613,-0.289 l -0.285,-0.007 c -1.223,0.056 -2.433,0.127 -3.634,0.207 0.24,0.018 0.481,0.036 0.721,0.054 m 8.572,-9.088 c 0.44,0.008 0.866,0.025 1.301,0.034 -0.023,-1.551 -0.036,-3.11 -0.031,-4.696 0.042,-0.693 0.069,-1.368 0.099,-2.046 -0.44,-0.003 -0.876,-0.004 -1.315,0.009 -0.071,0.002 -0.132,-0.013 -0.141,-0.031 -0.004,-0.019 0.047,-0.035 0.114,-0.037 0.448,-0.014 0.896,-0.014 1.344,-0.009 0.004,-0.09 0.01,-0.18 0.013,-0.269 -1.214,-0.072 -2.427,-0.141 -3.642,-0.161 -0.2,0.089 -0.463,0.165 -0.765,0.232 0.828,0.036 1.656,0.075 2.477,0.128 0.14,0.006 0.231,0.04 0.218,0.077 -0.025,0.035 -0.15,0.061 -0.29,0.056 -1.184,-0.034 -2.37,-0.057 -3.557,-0.078 -0.05,0.005 -0.098,0.01 -0.148,0.016 -0.074,0.767 -0.17,1.535 -0.324,2.325 -0.199,1.039 -0.233,2.405 -0.284,3.43 -0.097,0.365 -0.234,0.663 -0.384,0.943 1.561,0.015 3.096,0.054 4.621,0.108 0.233,-0.011 0.459,-0.017 0.694,-0.031 m 4.003,0.116 c -0.002,-0.192 -0.003,-0.396 -0.007,-0.629 -0.031,0.071 -0.172,-0.314 -0.206,-0.317 -0.08,-0.027 -0.126,-0.299 -0.104,-0.613 l 0.024,-2.614 -0.147,3.497 c -0.005,0.066 -0.015,0.127 -0.023,0.181 -0.009,0.125 -0.013,0.288 -0.018,0.471 0.161,0.007 0.321,0.017 0.481,0.024 m -28.94,-7.909 c -0.022,0.01 -0.047,0.02 -0.07,0.029 0.004,0.049 0.006,0.205 0.012,0.253 0.025,-0.002 0.05,-0.005 0.074,-0.007 -0.005,-0.055 -0.01,-0.218 -0.016,-0.275 m -0.261,0.102 c -0.124,0.045 -0.257,0.191 -0.407,0.229 0.131,-0.014 0.276,-0.023 0.414,-0.033 -0.002,-0.03 -0.004,-0.166 -0.007,-0.196 m -1.43,-21.488 c -0.029,0.222 -0.066,0.434 -0.108,0.639 0,0.003 10e-4,0.005 0.003,0.009 0.049,1.226 0.463,5.759 0.555,6.887 l 0.046,0.198 0.143,0.287 -0.003,-0.04 -0.068,-0.378 0.039,0.071 0.063,-1.45 c -0.239,-1.175 -0.561,-3.927 -0.67,-6.223 m -1.865,22.137 c 0.003,0 0.007,0.001 0.009,0.002 0.023,-0.002 0.048,-0.004 0.072,-0.005 -0.028,0.001 -0.053,0 -0.081,0.003 m 2.731,16.731 c -0.572,0.044 -1.143,0.09 -1.716,0.135 -0.855,0.128 -1.728,0.323 -2.601,0.376 0.288,0.036 0.527,0.076 0.737,0.113 1.138,-0.139 2.23,-0.309 3.423,-0.387 l 0.233,-0.039 0.285,-0.113 -0.443,-0.053 z m -2.361,-3.82 c -0.072,-0.003 -0.212,0.007 -0.137,-0.046 -0.584,0.045 -1.176,0.083 -1.787,0.112 -0.225,0.012 -0.449,0.012 -0.664,0.002 -0.237,0.103 -0.488,0.205 -0.811,0.291 0.543,-0.075 1.168,0.026 1.739,-0.03 0.638,-0.062 1.378,-0.149 1.995,-0.207 z m -3.38,2.421 h -0.001 c -0.043,0.024 -0.095,0.052 -0.162,0.088 0,0 0.071,-0.037 0.163,-0.088 m -2.535,-1.862 -0.027,0.017 0.359,0.359 z m 0.56,3.365 c 0.027,0.006 0.054,0.015 0.081,0.019 l 0.009,-0.001 c -0.031,-0.005 -0.061,-0.012 -0.09,-0.018 m 53.501,-1.466 c 0.037,0.032 -0.117,0.05 -0.386,0.063 0.132,0.052 0.204,0.117 0.184,0.182 0.019,0.091 0.108,0.195 -0.003,0.265 -0.115,0.071 -0.267,0.121 -0.438,0.155 0.168,0.256 0.091,0.526 0.048,0.627 l -0.053,0.029 c 0.206,0.049 0.222,0.373 0.283,0.388 0.058,0.023 0.097,0.049 0.097,0.049 0.007,0.062 0.007,0.062 0.041,0.085 0.012,0.025 0.008,0.047 0.008,0.047 -0.123,0.061 -0.123,0.061 -0.127,0.081 -0.029,0.017 -0.067,0.029 -0.067,0.029 -0.141,0.015 -0.196,0.019 -0.221,0.023 -0.029,-0.019 -0.043,-0.028 -0.067,-0.042 -0.012,0.009 -0.022,0.016 -0.031,0.023 -0.036,-0.012 -0.062,-0.021 -0.105,-0.033 0,0.007 -0.001,0.017 0.003,0.027 0.018,0.049 0.118,0.086 -0.044,0.085 -0.221,0.028 -0.453,0.039 -0.68,0.058 0.235,0.034 0.462,0.075 0.662,0.132 -0.142,-0.019 -0.265,-0.025 -0.35,-0.005 0.043,0.015 0.088,0.032 0.128,0.046 l -0.284,0.207 c 0.8,0.212 0.98,0.558 0.408,0.774 -0.572,0.216 -1.472,0.221 -2.272,0.01 l 0.086,0.075 c -0.262,-0.015 -0.494,-0.06 -0.726,-0.103 l 0.473,0.137 c -0.811,-0.143 -1.542,-0.316 -2.137,-0.546 -0.066,-0.024 -0.175,-0.04 -0.266,-0.061 -0.219,-0.016 -0.233,-0.06 -0.191,-0.115 -0.816,-0.1 -1.58,-0.255 -2.34,-0.486 -0.336,-0.02 -0.658,-0.066 -0.92,-0.145 l -0.016,-0.003 0.201,0.1 c -0.249,-0.034 -0.378,-0.115 -0.604,-0.158 l 0.077,0.127 c -1.231,-0.139 -2.569,-0.172 -3.703,-0.406 l -0.131,-0.017 c -0.498,0.059 -0.999,0.116 -1.584,0.097 0.197,0.024 0.389,0.046 0.586,0.069 -0.21,0.016 -0.419,0.026 -0.631,0.031 l -0.001,0.035 c -0.005,-0.013 -0.012,-0.023 -0.017,-0.035 -0.213,0.002 -0.429,0 -0.653,-0.014 -1.227,-0.074 -2.593,-0.332 -3.227,-0.684 -2.384,-0.082 -4.769,-0.174 -7.148,-0.216 -0.034,-0.002 -0.06,-0.008 -0.09,-0.012 -2.108,0.024 -4.219,0.059 -6.327,0.095 -0.764,0.343 -2.393,0.582 -3.853,0.639 -0.54,0.022 -1.043,0.001 -1.548,-0.035 0.236,-0.021 0.464,-0.04 0.699,-0.061 -0.695,0.011 -1.291,-0.054 -1.878,-0.121 l -0.157,0.015 c -1.354,0.22 -2.944,0.234 -4.411,0.355 l 0.096,-0.125 c -0.271,0.04 -0.427,0.119 -0.725,0.151 l 0.242,-0.098 -0.017,0.003 c -0.316,0.075 -0.699,0.116 -1.096,0.131 -0.899,0.217 -2,0.361 -3.157,0.448 -0.148,0.053 -0.367,0.094 -0.63,0.11 -0.109,0.018 -0.239,0.033 -0.319,0.055 -0.712,0.223 -1.586,0.387 -2.552,0.518 0.188,-0.043 0.38,-0.088 0.564,-0.13 -0.278,0.039 -0.553,0.08 -0.865,0.091 l 0.106,-0.073 c -0.958,0.2 -2.28,0.179 -2.953,-0.044 -0.676,-0.224 -0.45,-0.568 0.508,-0.768 l 0.183,-0.043 c -0.364,-0.028 -0.679,-0.096 -0.896,-0.212 -0.133,-0.073 -0.023,-0.175 0.002,-0.266 -0.042,-0.129 0.343,-0.255 0.857,-0.281 0.146,-0.006 0.254,-0.004 0.346,0.007 0.514,-0.068 0.904,-0.136 1.505,-0.204 0.114,-0.017 0.253,-0.009 0.315,0.019 0.052,0.028 0.003,0.066 -0.115,0.083 -0.453,0.086 -0.702,0.172 -1.08,0.26 0.089,0.017 0.183,0.031 0.278,0.044 0.637,-0.068 1.206,-0.142 1.887,-0.251 0.038,-0.007 -0.03,-0.063 0.043,-0.087 l 0.111,-0.034 c -0.126,0.015 -0.253,0.029 -0.383,0.044 -0.521,-0.067 -0.716,-0.093 -0.852,-0.109 l -0.002,0.001 c 0,0 -0.002,-0.001 -0.041,-0.006 -0.063,-0.009 -0.117,-0.015 -0.197,-0.025 0,0 0.001,-0.002 0.001,-0.007 l -0.05,-0.007 -0.23,0.019 c -0.088,0.008 -0.173,0 -0.215,-0.016 -0.03,0.015 -0.062,0.03 -0.103,0.047 -0.443,0.04 -0.123,0.04 -0.571,0.081 0,0 0,-0.015 0.014,-0.036 -0.018,-0.001 -0.17,-0.012 -0.346,0.002 -0.17,0.002 0.15,0.002 -0.274,0.041 l 0.205,-0.066 -0.179,0.047 0.046,-0.069 -0.081,0.075 -0.079,-0.052 c 0,0 -10e-4,0 -0.348,0.17 -0.029,-0.003 -0.095,-0.008 -0.261,-0.024 0,0 -0.047,-0.013 -0.08,-0.031 -0.005,-0.019 -0.005,-0.019 -0.148,-0.083 0,0 -0.005,-0.022 0.009,-0.046 0.043,-0.023 0.043,-0.023 0.051,-0.087 0,0 0.049,-0.024 0.12,-0.046 0.071,-0.013 0.089,-0.017 0.336,-0.063 l -0.063,-0.031 c -0.052,-0.112 -0.052,-0.112 0.255,-0.386 0,0 -0.892,-0.078 -0.611,-0.138 0.332,-0.034 0.332,-0.034 0.713,-0.074 0,0 -0.235,-0.011 -0.095,-0.03 0.106,-0.046 0.13,-0.058 0.207,-0.099 l 0.001,-0.001 c -0.029,0 -0.054,-0.004 -0.081,-0.006 0.181,-0.011 -0.046,-0.197 -0.179,-0.153 -0.195,-0.169 -0.087,-0.332 0.15,-0.491 -0.075,-0.055 -0.111,-0.115 -0.104,-0.178 -0.286,-0.14 -0.254,-0.614 -0.332,-0.781 l -0.038,-0.146 c 0.077,-0.128 0.31,-0.252 0.658,-0.352 l 0.105,-0.039 -0.104,-0.119 c 0.44,-0.337 1.854,-0.303 2.394,-0.63 l 0.407,-0.177 c 0.297,-0.14 0.77,-0.252 1.325,-0.315 l 0.588,-0.064 0.373,-0.017 c -0.633,-0.132 -1.091,-0.345 -0.984,-0.582 0.061,-0.128 0.267,-0.245 0.56,-0.349 -1.635,-0.092 -1.255,-0.161 0.466,-0.21 -0.618,-0.003 -1.234,-0.007 -1.851,-0.01 -0.056,0.003 -0.112,-0.01 -0.132,-0.028 -0.018,-0.019 0.012,-0.035 0.069,-0.039 0.965,-0.068 1.952,-0.105 2.946,-0.135 -0.152,-0.065 -0.777,-0.144 -0.76,-0.226 0.017,-0.084 0.14,-0.154 0.329,-0.197 l -0.674,-0.04 c -0.139,-0.01 -0.246,-0.049 -0.241,-0.09 0.006,-0.045 0.118,-0.072 0.25,-0.066 0,0 -1.519,-0.101 -1.519,-0.121 -0.002,-0.059 0.389,-0.024 0.424,-0.014 1.042,0.041 2.761,0.018 0.408,-0.163 -0.016,-0.005 -0.035,-0.01 -0.042,-0.018 -0.013,-0.017 0.025,-0.035 0.074,-0.037 l 0.151,-0.01 c -0.308,-0.024 -0.542,-0.117 -0.533,-0.217 0.022,-0.103 0.292,-0.17 0.612,-0.15 0.864,0.031 1.291,0.06 2.146,0.091 l 0.279,-0.005 0.282,-0.034 c -1.324,-0.113 -1.369,-0.224 -2.694,-0.336 -0.112,-0.005 -0.208,-0.039 -0.209,-0.075 0,-0.036 0.093,-0.062 0.207,-0.057 4.045,-0.054 7.137,-0.101 2.932,-0.156 -0.062,0.002 -0.112,-0.015 -0.12,-0.034 0,-0.005 0.008,-0.006 0.011,-0.01 -0.799,0.031 -2.898,0.082 -2.027,0.047 0.01,-10e-4 0.015,-10e-4 0.026,-10e-4 -0.309,0.005 -0.752,0.01 -1.361,0.008 -0.081,0.004 -0.165,-0.009 -0.215,-0.03 -0.005,0.01 -0.022,-0.089 -0.048,-0.084 -0.238,0.038 -0.496,-0.152 -0.76,-0.135 -0.05,0.005 -0.112,-0.005 -0.138,-0.026 -0.027,-0.016 0.005,-0.035 0.062,-0.041 0.257,-0.016 0.502,-0.035 0.722,-0.075 0.04,-0.007 0.087,-0.002 0.119,0.006 -0.013,-0.03 0.038,-0.056 0.13,-0.064 1.834,-0.166 2.988,-0.53 0.294,-0.374 -0.044,0.01 -0.113,0.005 -0.151,-0.013 -0.026,-0.017 -0.02,-0.039 0.029,-0.045 1.021,-0.148 3.49,-0.337 5.72,-0.492 -0.058,-0.72 -0.12,-1.496 -0.182,-2.526 -0.032,-0.265 -0.059,-0.529 -0.068,-0.798 -0.01,-0.272 -0.02,-0.545 -0.029,-0.813 -0.049,-0.761 -0.113,-1.511 -0.174,-2.26 -0.03,0 -0.058,0.002 -0.09,0.002 0.021,0.432 0.033,0.92 0.028,1.522 0.005,0.174 -0.032,0.293 -0.079,0.277 -0.045,-0.029 -0.087,-0.184 -0.09,-0.358 -0.016,-0.515 -0.036,-0.983 -0.061,-1.425 -0.195,0.036 -0.411,0.067 -0.67,0.096 0.179,-0.039 0.363,-0.076 0.542,-0.113 -0.267,0.031 -0.529,0.063 -0.827,0.064 l 0.102,-0.07 c -0.918,0.171 -2.176,0.11 -2.81,-0.135 -0.264,-0.102 -0.447,-0.221 -0.513,-0.337 -0.564,-0.029 -1.077,-0.11 -1.346,-0.274 -0.122,-0.077 -0.016,-0.176 0.011,-0.266 -0.036,-0.132 0.333,-0.245 0.824,-0.256 0.134,-0.002 0.262,0.005 0.38,0.017 0.564,-0.049 1.121,-0.097 1.693,-0.146 0.108,-0.014 0.242,0 0.3,0.029 0.048,0.03 0.002,0.066 -0.112,0.078 -0.384,0.065 -0.77,0.129 -1.158,0.193 -0.033,-0.008 -0.066,-0.016 -0.101,-0.023 0.014,0.012 0.045,0.019 0.066,0.029 -0.038,0.007 -0.073,0.012 -0.11,0.019 0.025,0.005 0.045,0.012 0.071,0.017 l 0.095,-0.01 c 0.043,0.016 0.094,0.029 0.15,0.04 0.566,-0.113 1.198,-0.161 1.833,-0.159 0.06,-0.007 0.125,-0.01 0.186,-0.019 0.037,-0.004 -0.027,-0.063 0.041,-0.085 l 0.107,-0.03 c -0.12,0.011 -0.24,0.022 -0.368,0.031 -0.491,-0.081 -0.676,-0.114 -0.804,-0.136 l -0.003,0.002 -0.038,-0.008 c -0.059,-0.01 -0.112,-0.018 -0.187,-0.03 0,0 0,-0.003 10e-4,-0.006 l -0.047,-0.009 -0.221,0.012 c -0.084,0.005 -0.164,-0.005 -0.204,-0.024 -0.029,0.015 -0.059,0.03 -0.098,0.044 -0.423,0.028 -0.423,0.028 -0.852,0.055 0,0 0,-0.016 0.014,-0.036 -0.017,-0.002 -0.16,-0.017 -0.328,-0.01 -0.163,-0.002 -0.163,-0.002 -0.565,0.022 l 0.194,-0.058 -0.171,0.04 0.045,-0.067 -0.079,0.073 -0.073,-0.053 c 0,0 -10e-4,0 -0.339,0.158 -0.025,-0.004 -0.089,-0.011 -0.247,-0.032 0,0 0.171,-0.015 0.14,-0.034 -0.003,-0.019 -0.003,-0.019 -0.14,-0.087 0,0 -0.002,-0.022 0.011,-0.047 0.042,-0.022 0.042,-0.022 0.053,-0.082 0,0 -0.167,-0.025 -0.1,-0.044 0.068,-0.012 0.084,-0.015 0.322,-0.053 l -0.058,-0.033 c -0.047,-0.114 -0.047,-0.114 0.254,-0.378 0,0 0.167,-0.072 0.439,-0.124 0.318,-0.024 0.318,-0.024 0.679,-0.051 0,0 0.083,-0.009 0.217,-0.024 0.102,-0.043 -0.944,-0.053 -0.868,-0.092 h 0.002 c -0.07,-0.004 -0.138,-0.011 -0.195,-0.022 -0.164,-0.038 -0.187,-0.102 -0.049,-0.147 -0.181,-0.175 -0.071,-0.333 0.156,-0.485 -0.069,-0.058 -0.102,-0.119 -0.093,-0.182 -0.205,-0.114 -0.413,-0.546 -0.531,-0.818 -0.009,-0.004 -0.021,-0.009 -0.022,-0.012 l -0.015,-0.077 c -0.02,-0.043 -0.035,-0.079 -0.045,-0.104 l -0.031,-0.148 c 0.077,-0.125 0.303,-0.24 0.637,-0.331 l 0.101,-0.035 -0.096,-0.121 c 0.127,-0.097 0.392,-0.147 0.706,-0.182 0.368,-0.169 0.77,-0.332 1.068,-0.513 l -1.247,0.003 c 0.276,-0.13 -1.359,-0.092 -0.848,-0.135 l 0.812,-0.064 c -0.541,-0.152 -0.974,-0.342 -0.872,-0.567 0.183,-0.386 1.624,-0.679 3.02,-0.617 0.411,0.005 0.976,0.005 1.648,10e-4 -0.407,-0.935 -0.341,-2.818 -0.453,-4.515 -0.041,-0.601 -1.058,-6.01 -1.106,-6.366 l 0.129,0.287 -0.003,-0.021 c -0.105,-0.375 -0.169,-0.834 -0.199,-1.31 -0.338,-1.206 -0.491,-2.725 -0.573,-4.302 -0.01,-0.071 -0.019,-0.146 -0.025,-0.222 -0.027,-0.131 -0.048,-0.286 -0.08,-0.381 -0.299,-0.846 -0.53,-1.887 -0.724,-3.039 0.059,0.222 0.119,0.449 0.18,0.671 -0.058,-0.331 -0.118,-0.66 -0.143,-1.034 l 0.096,0.124 c -0.28,-1.141 -0.294,-2.726 -0.036,-3.54 0.261,-0.817 0.698,-0.56 0.979,0.581 l 0.044,0.175 c 0.013,-0.596 0.08,-1.121 0.24,-1.422 0.088,-0.161 0.217,-0.033 0.331,-0.006 0.161,-0.056 0.331,0.4 0.378,1.016 0.014,0.172 0.015,0.334 0.009,0.483 0.101,0.704 0.203,1.408 0.305,2.113 0.026,0.137 0.018,0.303 -0.015,0.378 -0.034,0.063 -0.08,0.007 -0.106,-0.134 -0.109,-0.482 -0.218,-0.962 -0.325,-1.442 0.007,-0.043 0.015,-0.084 0.024,-0.128 -0.015,0.019 -0.023,0.058 -0.034,0.085 -0.011,-0.047 -0.021,-0.091 -0.03,-0.138 -0.005,0.033 -0.013,0.059 -0.018,0.093 0.007,0.039 0.014,0.077 0.02,0.117 -0.017,0.062 -0.032,0.132 -0.042,0.211 0.106,0.857 0.217,1.706 0.371,2.502 0.01,0.048 0.077,-0.036 0.111,0.049 l 0.044,0.133 c -0.021,-0.148 -0.043,-0.301 -0.065,-0.46 0.067,-0.625 0.093,-0.859 0.11,-1.022 l -0.001,-0.003 c 0,0 0,-10e-4 0.006,-0.049 0.008,-0.076 0.015,-0.141 0.026,-0.236 h 0.006 l 0.009,-0.06 -0.031,-0.277 c -0.014,-0.105 -0.006,-0.205 0.013,-0.257 -0.019,-0.036 -0.04,-0.074 -0.062,-0.122 -0.063,-0.528 -0.063,-0.528 -0.129,-1.066 0,0 0.019,0 0.047,0.017 0,-0.023 0.009,-0.204 -0.013,-0.414 -0.008,-0.205 -0.008,-0.205 -0.069,-0.709 l 0.088,0.241 -0.064,-0.213 0.086,0.052 -0.097,-0.093 0.063,-0.097 c 0,0 0,-10e-4 -0.222,-0.413 0.001,-0.034 0.015,0.1 0.029,-0.098 0,0 0.015,-0.057 0.036,-0.098 0.025,-0.007 0.025,-0.007 0.1,-0.18 0,0 0.027,-0.005 0.057,0.009 0.031,0.051 0.031,0.051 0.109,0.06 0,0 0.032,0.056 0.064,0.14 0.017,0.083 0.016,-0.109 0.081,0.187 l 0.037,-0.075 c 0.138,-0.066 0.138,-0.066 0.49,0.292 0,0 0.081,-0.435 0.167,-0.099 0.052,0.397 0.052,0.397 0.114,0.851 0,0 0.015,0.102 0.044,0.271 0.059,0.124 0.076,0.151 0.129,0.244 l 10e-4,0.002 c -10e-4,-0.089 0.001,-0.174 0.013,-0.246 0.036,-0.209 0.114,-0.241 0.178,-0.073 0.206,-0.24 0.419,0.099 0.625,0.376 0.065,-0.093 0.141,-0.137 0.219,-0.13 0.166,-0.348 0.333,-1.21 0.538,-1.31 l 0.182,-0.052 c 0.161,0.087 0.325,0.363 0.459,0.776 l 0.052,0.125 0.146,-0.129 c 0.435,0.514 0.766,-0.15 1.189,0.486 l 0.192,-0.8 c 0.191,0.362 0.29,-0.583 0.388,0.082 l 0.079,0.06 0.032,0.444 c 0.145,-0.76 0.4,-1.188 0.7,-1.069 0.497,0.209 0.994,3.679 1.036,5.506 0.262,4.874 0.642,10.861 0.73,15.853 0.015,0.908 0.028,1.797 0.039,2.675 5.621,-0.075 12.008,-0.158 14.257,-0.06 1.947,0.085 3.771,0.189 5.622,0.249 0.017,-0.98 0.035,-1.97 0.057,-2.987 0.111,-5.237 0.394,-7.503 0.679,-12.617 0.049,-1.919 0.532,-6.324 1.031,-6.545 0.302,-0.125 0.374,-2.083 0.516,-1.284 l 0.222,0.936 0.207,-0.443 c 0.101,-0.698 0.138,-0.152 0.326,-0.518 l 0.235,-0.508 c 0.426,-0.667 0.783,0.694 1.222,0.153 l 0.144,0.135 0.053,-0.13 c 0.138,-0.434 0.064,-0.446 0.225,-0.539 l 0.004,0.001 c 0.011,0.532 0.247,0.808 0.253,1.338 0.007,0.767 -0.199,1.502 -0.193,2.248 l 0.032,-0.264 c 0.013,-0.085 0.191,-0.416 0.21,-1.311 0.008,-0.702 0.1,-0.242 0.128,-0.972 0.013,-0.272 0.036,-0.54 0.072,-0.795 -0.055,-0.154 -0.107,-0.314 -0.154,-0.487 l 0.067,0.019 c 0.576,0.296 0.412,0.15 0.663,0.703 0.078,-0.009 0.046,0.467 0.113,0.562 0.076,-0.108 0.151,-0.046 0.226,0.087 0.073,-0.257 0.169,-0.408 0.262,-0.373 0.115,-0.029 0.245,-0.164 0.333,0.004 0.095,0.192 0.159,0.441 0.195,0.725 0.019,-0.023 0.029,0.038 0.063,-0.216 0.085,-0.356 0.19,-0.997 0.19,-0.997 0.353,-0.378 0.353,-0.378 0.491,-0.308 l 0.036,0.079 c 0.067,-0.311 0.475,-0.058 0.476,-0.023 -0.07,0.138 -0.118,0.183 -0.149,0.189 -0.054,0.459 -0.056,0.474 -0.064,0.677 v 0.004 c 0.018,-0.009 0.038,-0.013 0.038,-0.013 -0.069,0.563 0.158,-0.181 0.091,0.375 -0.022,0.05 -0.043,0.09 -0.064,0.126 0.02,0.056 0.027,0.163 0.014,0.271 l -0.031,0.291 0.006,0.061 h 0.006 c 0.01,0.101 0.019,0.171 0.025,0.25 0.006,0.049 0.006,0.05 0.006,0.05 v 0.003 c 0.016,0.171 0.268,-1.252 0.333,-0.597 -0.024,0.168 -0.048,0.326 -0.07,0.482 l 0.047,-0.14 c 0.032,-0.089 0.1,-10e-4 0.11,-0.05 0.229,-1.206 -0.087,0.315 0.073,-0.985 0.005,-0.235 0.062,-0.451 0.124,-0.483 0.061,-0.026 0.107,0.143 0.098,0.383 0.036,0.391 0.058,0.796 0.071,1.207 0.044,-0.233 0.089,-0.456 0.14,-0.668 -0.004,-0.004 -0.003,-0.024 0.006,-0.014 0.004,-0.022 0.008,-0.047 0.013,-0.07 -0.005,0.046 -0.009,0.065 -0.012,0.076 10e-4,0.005 0.003,0.003 0.006,0.02 0.021,-0.062 0.041,-0.13 0.062,-0.193 l 0.189,-0.494 c 0.286,-1.199 0.736,-0.202 0.574,0.71 -0.155,0.878 0.804,-0.288 0.296,2.36 l 0.098,-0.132 c -0.026,0.393 -0.088,0.737 -0.149,1.088 0.061,-0.235 0.125,-0.473 0.184,-0.705 -0.199,1.207 -0.436,2.3 -0.738,3.188 -0.032,0.1 -0.056,0.262 -0.081,0.401 -0.029,0.331 -0.089,0.612 -0.162,0.794 -0.151,1.448 -0.369,2.824 -0.671,3.945 -0.035,0.501 -0.101,0.981 -0.207,1.376 l -0.003,0.022 c 0,0 -0.024,0.265 -0.082,0.605 l 0.16,-0.118 c -0.207,1.841 -0.284,2.022 -0.604,3.718 -0.01,0.068 -0.338,5.371 -0.793,6.317 -0.009,0.192 -0.018,0.385 -0.026,0.577 0.363,0.044 0.764,0.091 1.226,0.14 2.218,0.076 4.348,0.497 1.088,0.429 -0.333,0.016 -0.665,0.033 -0.994,0.048 l 0.345,0.005 c 0.231,-0.001 -0.643,0.048 -0.626,0.114 0,0.029 1.036,0.053 0.982,0.074 0.204,0.017 0.155,0.036 -0.017,0.056 0.645,0.066 1.268,0.143 1.851,0.24 0.058,0.009 0.063,0.029 0.032,0.044 -0.048,0.017 -0.128,0.019 -0.18,0.009 -0.234,-0.022 -0.481,-0.038 -0.725,-0.055 0.001,0 0.005,0.002 0.007,0.003 0.05,0.022 0.078,0.047 0.092,0.072 2.189,0.142 1.1,0.142 3.165,0.402 0.106,0.014 0.161,0.041 0.143,0.072 0.04,-0.008 0.091,-0.009 0.137,-0.002 0.247,0.052 0.203,-0.022 0.494,0.007 0.063,0.01 0.097,0.029 0.068,0.044 -0.03,0.019 -0.102,0.027 -0.16,0.018 -0.297,-0.03 -0.267,0.04 -0.535,-0.01 -0.028,-0.006 -0.047,-0.016 -0.053,-0.026 -0.058,0.019 -0.152,0.027 -0.245,0.019 -2.137,-0.091 -0.893,-0.183 -3.049,-0.231 1.054,0.12 0.425,0.097 1.559,0.19 1.37,0.11 0.601,0.265 1.981,0.329 0.071,0 0.119,0.125 0.112,0.144 -0.009,0.017 -0.068,0.033 -0.138,0.028 -0.438,-0.016 -0.772,-0.04 -1.042,-0.07 0.002,0.011 0.005,0.016 0.006,0.023 0.036,0.009 0.072,0.021 0.102,0.031 0.014,0 0.027,-0.003 0.04,-10e-4 0.256,0.05 0.542,0.083 0.846,0.111 0.066,0.011 0.102,0.029 0.072,0.044 -0.033,0.02 -0.107,0.027 -0.166,0.02 -0.1,-0.011 -0.188,-0.026 -0.284,-0.038 0.251,0.045 0.644,0.091 1.353,0.132 0.128,0.001 0.233,0.032 0.228,0.068 -0.001,0.036 -0.112,0.064 -0.241,0.063 -1.331,0.038 -1.418,0.076 -2.465,0.114 0.785,0.04 1.609,0.084 2.576,0.136 0.013,0 0.018,0.002 0.03,0.002 0.001,0 0.003,0.002 0.007,0.002 0.065,0.003 0.114,0.013 0.15,0.027 0.154,0.032 0.262,0.082 0.272,0.14 0.006,0.102 -0.264,0.182 -0.615,0.189 l 0.17,0.019 c 0.057,0.004 0.098,0.025 0.082,0.04 -0.013,0.012 -0.047,0.018 -0.083,0.022 0.005,0.031 -0.007,0.07 0.001,0.113 0.006,0.1 -0.04,0.339 -0.056,0.354 -0.023,0.019 -0.685,-0.048 -0.685,-0.048 -0.172,0.004 -0.328,0.006 -0.494,0.009 -0.209,0.031 -0.393,0.056 -0.393,0.056 0.211,0.055 0.883,0.236 0.896,0.323 0.014,0.081 -0.412,0.156 -0.589,0.213 1.125,0.081 0.746,0.064 1.835,0.181 0.064,0.007 0.097,0.026 0.075,0.043 -0.023,0.017 -0.089,0.027 -0.152,0.021 -1.466,-0.06 -1.651,-0.029 -2.934,-0.077 -0.049,0.042 -0.125,0.082 -0.231,0.115 1.172,0.076 1.906,0.164 3.038,0.277 0.066,0.006 0.103,0.025 0.079,0.043 -0.024,0.018 -0.093,0.028 -0.159,0.021 -1.637,-0.059 -2.42,-0.121 -4.048,-0.18 -0.265,0.021 -0.507,0.042 -0.749,0.062 1.001,0.059 1.782,0.146 2.322,0.236 0.395,0.019 0.806,0.039 1.25,0.063 0.343,0.011 0.593,0.096 0.553,0.189 -0.041,0.093 -0.36,0.159 -0.702,0.148 -2.588,-0.001 -1.339,0.159 -3.955,0 -0.335,-0.02 -0.647,-0.03 -0.952,-0.037 -0.787,0.012 -1.313,0.026 -1.793,0.042 -0.067,1.57 -0.133,3.138 -0.185,4.703 -0.003,0.184 -0.045,0.347 -0.09,0.377 -0.047,0.015 -0.083,-0.108 -0.079,-0.292 -0.003,-1.581 0.027,-3.178 0.066,-4.778 -0.062,0.002 -0.128,0.005 -0.192,0.008 -0.104,1.182 -0.204,2.373 -0.284,3.578 -0.011,0.282 -0.021,0.567 -0.031,0.853 -0.011,0.281 -0.039,0.56 -0.075,0.838 -0.039,0.636 -0.078,1.263 -0.116,1.889 0.18,0.012 0.365,0.026 0.549,0.04 0.048,-0.554 0.087,-1.113 0.134,-1.667 0.009,-0.088 0.034,-0.155 0.058,-0.148 0.021,0.015 0.034,0.096 0.026,0.191 -0.048,0.543 -0.085,1.087 -0.13,1.63 1.675,0.124 3.544,0.312 4.89,0.495 0.051,0.007 0.056,0.029 0.03,0.045 -0.037,0.019 -0.106,0.024 -0.15,0.016 -0.501,-0.024 -0.779,-0.044 -0.923,-0.06 -0.171,0.014 -0.463,0.029 -0.96,0.047 -0.33,0.018 -1.721,0.035 -2.042,0.052 -0.035,0.008 -0.074,0.014 -0.115,0.018 -0.265,0.031 -0.527,0.06 -0.788,0.09 v 0.007 l 0.219,-0.009 c 0.202,-0.014 0.379,0.024 0.395,0.09 0.003,0.027 -0.024,0.054 -0.07,0.078 0.29,0.01 -0.063,0.022 -0.559,0.038 -0.004,0.016 -0.005,0.03 -0.005,0.044 0.92,-0.066 2.087,-0.13 2.702,-0.198 l 0.21,-0.03 c 0.277,-0.03 0.545,-0.005 0.685,0.063 0.045,0.02 0.071,0.042 0.085,0.067 0.158,10e-4 0.272,0.003 0.369,10e-4 0.083,0.009 0.18,0.017 0.306,0.027 0.093,0.008 0.144,0.033 0.132,0.063 0.031,-0.008 0.079,-0.013 0.119,-0.007 0.219,0.038 0.465,-0.052 0.723,-0.039 0.057,0.008 0.088,0.024 0.062,0.04 -0.025,0.022 -0.086,0.034 -0.138,0.028 -0.265,-0.015 -0.523,0.072 -0.762,0.036 -0.024,-0.006 -0.041,-0.013 -0.046,-0.022 -0.052,0.022 -0.135,0.034 -0.218,0.031 -1.887,0.023 1.345,0.07 -0.557,0.136 0.546,0.038 0.37,0.063 0.329,0.082 -0.38,0.008 0.751,-0.007 -1.186,0.105 l -0.19,0.015 c 0.035,0.004 0.077,0.01 0.131,0.016 2.374,-0.069 -0.285,0.214 2.055,0.224 0.114,-0.005 0.208,0.02 0.208,0.055 0,0.036 -0.096,0.072 -0.211,0.077 -1.325,0.124 1.623,0.245 0.296,0.369 l 0.284,0.032 0.279,0.001 c 0.216,-0.01 -0.722,0.473 -1.696,0.806 h 0.034 l 1.789,-0.177 c 0.133,-0.009 0.244,0.017 0.251,0.062 0.005,0.043 -0.102,0.081 -0.241,0.093 l -0.674,0.044 c 0.188,0.044 0.315,0.113 0.331,0.196 0.018,0.082 -0.072,0.162 -0.224,0.227 0.476,0.011 0.338,0.134 0.171,0.267 0.93,0.034 1.797,0.069 2.534,0.103 1.284,0.013 0.301,0.577 0.448,0.972 0.084,0.239 0.103,0.174 -0.432,0.3 l 0.313,0.02 0.493,0.072 c 0.467,0.07 0.327,-0.134 0.574,0.01 l 0.339,0.181 c 0.445,0.332 0.752,0.629 1.114,0.973 l -0.091,0.117 0.088,0.04 c 0.289,0.105 0.483,0.231 0.545,0.359 l -0.036,0.146 c -0.071,0.166 0.309,0.53 0.065,0.667 0.005,0.064 0.614,0.337 0.549,0.391"
           style="fill:#231f20;fill-opacity:1;fill-rule:nonzero;stroke:none"
           id="path216"
           inkscape:connector-curvature="0" /><path
           d="m 135.7272,90.1276 c -0.164,-0.792 -0.465,-1.521 -0.904,-2.183 -0.439,-0.663 -1.051,-1.21 -1.835,-1.641 -0.783,-0.43 -1.795,-0.646 -3.035,-0.646 -1.55,0 -2.842,0.401 -3.875,1.201 -1.034,0.801 -1.723,1.83 -2.068,3.088 l 3.902,1.318 c 0.12,-0.482 0.34,-0.87 0.659,-1.163 0.318,-0.293 0.71,-0.439 1.175,-0.439 0.723,0 1.201,0.25 1.434,0.749 0.232,0.5 0.349,1.154 0.349,1.964 v 12.065 h 4.444 v -12.039 c 0,-0.724 -0.082,-1.482 -0.246,-2.274"
           style="fill:#231f20;fill-opacity:1;fill-rule:nonzero;stroke:none"
           id="path218"
           inkscape:connector-curvature="0" /><path
           d="m 148.0222,86.149 v 1.783 h -0.052 c -0.155,-0.293 -0.357,-0.569 -0.607,-0.827 -0.25,-0.258 -0.542,-0.483 -0.878,-0.672 -0.336,-0.189 -0.707,-0.344 -1.111,-0.465 -0.405,-0.12 -0.831,-0.181 -1.279,-0.181 -0.861,0 -1.589,0.155 -2.183,0.465 -0.595,0.31 -1.077,0.711 -1.447,1.201 -0.371,0.492 -0.637,1.051 -0.801,1.68 -0.163,0.629 -0.245,1.27 -0.245,1.925 v 7.957 h 4.263 V 92.04 c 0,-0.362 0.025,-0.707 0.077,-1.034 0.052,-0.328 0.151,-0.62 0.297,-0.878 0.146,-0.259 0.34,-0.461 0.582,-0.607 0.241,-0.147 0.559,-0.22 0.955,-0.22 0.741,0 1.305,0.275 1.692,0.827 0.388,0.55 0.582,1.196 0.582,1.937 v 6.95 h 4.237 V 86.149 Z"
           style="fill:#231f20;fill-opacity:1;fill-rule:nonzero;stroke:none"
           id="path220"
           inkscape:connector-curvature="0" /><path
           d="m 165.1072,92.6079 c 0,0.413 -0.074,0.818 -0.22,1.214 -0.146,0.397 -0.353,0.75 -0.62,1.06 -0.267,0.31 -0.59,0.559 -0.969,0.749 -0.379,0.189 -0.809,0.284 -1.291,0.284 -0.5,0 -0.939,-0.095 -1.318,-0.284 -0.379,-0.19 -0.697,-0.436 -0.956,-0.737 -0.258,-0.301 -0.452,-0.65 -0.581,-1.046 -0.129,-0.396 -0.194,-0.801 -0.194,-1.214 0,-0.414 0.065,-0.823 0.194,-1.228 0.129,-0.404 0.323,-0.762 0.581,-1.072 0.259,-0.31 0.577,-0.56 0.956,-0.749 0.379,-0.189 0.818,-0.284 1.318,-0.284 0.482,0 0.912,0.095 1.291,0.284 0.379,0.189 0.702,0.439 0.969,0.749 0.267,0.31 0.474,0.663 0.62,1.06 0.146,0.396 0.22,0.801 0.22,1.214 m 0.155,-6.459 v 1.679 h -0.052 c -0.413,-0.654 -1.003,-1.158 -1.77,-1.511 -0.766,-0.353 -1.579,-0.53 -2.441,-0.53 -0.965,0 -1.826,0.19 -2.583,0.569 -0.758,0.379 -1.4,0.883 -1.925,1.512 -0.526,0.628 -0.927,1.356 -1.201,2.182 -0.276,0.827 -0.414,1.688 -0.414,2.584 0,0.895 0.142,1.752 0.426,2.571 0.285,0.817 0.689,1.537 1.214,2.157 0.526,0.62 1.163,1.111 1.912,1.472 0.749,0.362 1.589,0.543 2.519,0.543 0.947,0 1.748,-0.181 2.403,-0.543 0.654,-0.361 1.163,-0.758 1.524,-1.188 h 0.052 v 8.035 h 4.237 v -19.532 z"
           style="fill:#231f20;fill-opacity:1;fill-rule:nonzero;stroke:none"
           id="path222"
           inkscape:connector-curvature="0" /><path
           d="m 182.1221,92.6337 c 0,0.413 -0.069,0.818 -0.207,1.214 -0.138,0.397 -0.335,0.745 -0.594,1.046 -0.258,0.301 -0.577,0.547 -0.956,0.737 -0.379,0.19 -0.818,0.284 -1.317,0.284 -0.5,0 -0.939,-0.094 -1.318,-0.284 -0.379,-0.19 -0.693,-0.436 -0.943,-0.737 -0.249,-0.301 -0.439,-0.649 -0.568,-1.046 -0.129,-0.396 -0.194,-0.801 -0.194,-1.214 0,-0.413 0.065,-0.818 0.194,-1.214 0.129,-0.397 0.323,-0.754 0.582,-1.072 0.257,-0.32 0.576,-0.574 0.955,-0.763 0.378,-0.189 0.818,-0.284 1.317,-0.284 0.5,0 0.939,0.095 1.318,0.284 0.379,0.189 0.698,0.443 0.957,0.763 0.258,0.318 0.451,0.675 0.58,1.072 0.129,0.396 0.194,0.801 0.194,1.214 m 4.083,0 c 0,-1.05 -0.191,-2.003 -0.569,-2.855 -0.379,-0.852 -0.896,-1.576 -1.551,-2.17 -0.654,-0.594 -1.412,-1.055 -2.273,-1.382 -0.861,-0.327 -1.782,-0.491 -2.764,-0.491 -0.965,0 -1.882,0.164 -2.752,0.491 -0.87,0.327 -1.627,0.788 -2.274,1.382 -0.645,0.594 -1.157,1.318 -1.537,2.17 -0.379,0.852 -0.567,1.805 -0.567,2.855 0,1.05 0.188,1.998 0.567,2.842 0.38,0.844 0.892,1.558 1.537,2.144 0.647,0.586 1.404,1.034 2.274,1.344 0.87,0.31 1.787,0.465 2.752,0.465 0.982,0 1.903,-0.155 2.764,-0.465 0.861,-0.31 1.619,-0.758 2.273,-1.344 0.655,-0.586 1.172,-1.3 1.551,-2.144 0.378,-0.844 0.569,-1.792 0.569,-2.842"
           style="fill:#231f20;fill-opacity:1;fill-rule:nonzero;stroke:none"
           id="path224"
           inkscape:connector-curvature="0" /><path
           d="m 204.8057,100.1519 c 0,0.465 -0.155,0.861 -0.465,1.188 -0.31,0.327 -0.732,0.491 -1.266,0.491 -0.5,0 -0.917,-0.159 -1.253,-0.478 -0.336,-0.319 -0.504,-0.719 -0.504,-1.201 0,-0.431 0.116,-0.844 0.349,-1.24 0.232,-0.396 0.572,-0.775 1.02,-1.137 0.585,0.241 1.085,0.56 1.499,0.956 0.413,0.396 0.62,0.87 0.62,1.421 m -3.255,-6.278 c -0.517,-0.207 -0.969,-0.495 -1.356,-0.865 -0.388,-0.371 -0.582,-0.901 -0.582,-1.589 0,-0.362 0.073,-0.685 0.219,-0.97 0.147,-0.284 0.337,-0.525 0.569,-0.722 0.232,-0.199 0.495,-0.349 0.788,-0.453 0.293,-0.103 0.594,-0.155 0.904,-0.155 0.569,0 1.076,0.121 1.524,0.362 0.448,0.241 0.835,0.585 1.163,1.033 z m 7.466,-7.725 -1.731,1.783 c -0.586,-0.62 -1.305,-1.133 -2.157,-1.538 -0.853,-0.404 -1.917,-0.607 -3.191,-0.607 -0.826,0 -1.636,0.108 -2.428,0.323 -0.793,0.216 -1.495,0.551 -2.106,1.008 -0.612,0.456 -1.102,1.024 -1.473,1.705 -0.37,0.68 -0.555,1.486 -0.555,2.416 0,0.637 0.103,1.222 0.309,1.757 0.207,0.533 0.488,1.007 0.84,1.421 0.353,0.413 0.762,0.775 1.228,1.085 0.465,0.31 0.947,0.576 1.447,0.801 -0.569,0.55 -1.025,1.153 -1.37,1.808 -0.344,0.654 -0.517,1.377 -0.517,2.17 0,0.827 0.173,1.533 0.517,2.119 0.345,0.585 0.789,1.067 1.331,1.446 0.542,0.379 1.153,0.655 1.834,0.827 0.68,0.172 1.356,0.259 2.028,0.259 0.689,0 1.37,-0.091 2.041,-0.272 0.672,-0.181 1.27,-0.461 1.796,-0.839 0.525,-0.38 0.947,-0.862 1.266,-1.447 0.318,-0.586 0.477,-1.284 0.477,-2.093 0,-0.586 -0.094,-1.115 -0.283,-1.589 -0.191,-0.474 -0.453,-0.904 -0.789,-1.292 -0.336,-0.387 -0.727,-0.736 -1.175,-1.046 -0.448,-0.31 -0.922,-0.594 -1.421,-0.852 l 2.3,-2.351 1.834,2.816 h 4.702 l -3.953,-5.297 4.547,-4.521 z"
           style="fill:#231f20;fill-opacity:1;fill-rule:nonzero;stroke:none"
           id="path226"
           inkscape:connector-curvature="0" /><path
           d="m 233.0047,90.1276 c -0.164,-0.792 -0.465,-1.521 -0.905,-2.183 -0.439,-0.663 -1.05,-1.21 -1.834,-1.641 -0.784,-0.43 -1.795,-0.646 -3.036,-0.646 -1.55,0 -2.841,0.401 -3.874,1.201 -1.034,0.801 -1.724,1.83 -2.068,3.088 l 3.901,1.318 c 0.121,-0.482 0.341,-0.87 0.66,-1.163 0.318,-0.293 0.71,-0.439 1.175,-0.439 0.723,0 1.201,0.25 1.433,0.749 0.233,0.5 0.349,1.154 0.349,1.964 v 12.065 h 4.444 v -12.039 c 0,-0.724 -0.082,-1.482 -0.245,-2.274"
           style="fill:#231f20;fill-opacity:1;fill-rule:nonzero;stroke:none"
           id="path228"
           inkscape:connector-curvature="0" /><path
           d="m 245.2992,86.149 v 1.783 h -0.051 c -0.155,-0.293 -0.358,-0.569 -0.607,-0.827 -0.25,-0.258 -0.543,-0.483 -0.879,-0.672 -0.336,-0.189 -0.707,-0.344 -1.111,-0.465 -0.405,-0.12 -0.831,-0.181 -1.278,-0.181 -0.862,0 -1.59,0.155 -2.184,0.465 -0.594,0.31 -1.076,0.711 -1.447,1.201 -0.37,0.492 -0.637,1.051 -0.8,1.68 -0.164,0.629 -0.246,1.27 -0.246,1.925 v 7.957 h 4.263 V 92.04 c 0,-0.362 0.025,-0.707 0.077,-1.034 0.052,-0.328 0.151,-0.62 0.298,-0.878 0.145,-0.259 0.339,-0.461 0.581,-0.607 0.241,-0.147 0.56,-0.22 0.955,-0.22 0.741,0 1.305,0.275 1.693,0.827 0.388,0.55 0.582,1.196 0.582,1.937 v 6.95 h 4.237 V 86.149 Z"
           style="fill:#231f20;fill-opacity:1;fill-rule:nonzero;stroke:none"
           id="path230"
           inkscape:connector-curvature="0" /><path
           d="m 269.6498,90.1276 c -0.164,-0.792 -0.465,-1.521 -0.905,-2.183 -0.439,-0.663 -1.05,-1.21 -1.834,-1.641 -0.784,-0.43 -1.795,-0.646 -3.036,-0.646 -1.55,0 -2.841,0.401 -3.874,1.201 -1.034,0.801 -1.724,1.83 -2.068,3.088 l 3.901,1.318 c 0.121,-0.482 0.341,-0.87 0.66,-1.163 0.318,-0.293 0.71,-0.439 1.175,-0.439 0.723,0 1.201,0.25 1.433,0.749 0.233,0.5 0.349,1.154 0.349,1.964 v 12.065 h 4.444 v -12.039 c 0,-0.724 -0.082,-1.482 -0.245,-2.274"
           style="fill:#231f20;fill-opacity:1;fill-rule:nonzero;stroke:none"
           id="path232"
           inkscape:connector-curvature="0" /><path
           d="m 273.409,99.015 h 4.237 V 86.149 h -4.237 z m 4.547,4.108 c 0,-0.327 -0.066,-0.633 -0.195,-0.917 -0.129,-0.285 -0.301,-0.53 -0.516,-0.737 -0.216,-0.206 -0.475,-0.37 -0.775,-0.49 -0.301,-0.121 -0.617,-0.181 -0.943,-0.181 -0.689,0 -1.267,0.228 -1.732,0.685 -0.464,0.456 -0.696,1.002 -0.696,1.64 0,0.31 0.059,0.607 0.18,0.892 0.12,0.284 0.293,0.529 0.516,0.736 0.225,0.206 0.483,0.374 0.776,0.503 0.293,0.129 0.61,0.194 0.956,0.194 0.326,0 0.642,-0.06 0.943,-0.181 0.3,-0.121 0.559,-0.284 0.775,-0.491 0.215,-0.206 0.387,-0.452 0.516,-0.736 0.129,-0.284 0.195,-0.59 0.195,-0.917"
           style="fill:#231f20;fill-opacity:1;fill-rule:nonzero;stroke:none"
           id="path234"
           inkscape:connector-curvature="0" /><path
           d="m 286.3256,95.8632 v -4.928 c 0,-0.605 0.117,-1.058 0.349,-1.361 0.233,-0.303 0.65,-0.454 1.253,-0.454 0.207,0 0.426,0.017 0.659,0.052 0.232,0.034 0.426,0.086 0.581,0.155 l 0.052,-3.101 c -0.293,-0.103 -0.663,-0.194 -1.111,-0.271 -0.448,-0.078 -0.896,-0.116 -1.344,-0.116 -0.861,0 -1.585,0.108 -2.17,0.324 -0.586,0.215 -1.055,0.526 -1.408,0.932 -0.353,0.405 -0.607,0.889 -0.762,1.45 -0.155,0.562 -0.233,1.187 -0.233,1.879 v 5.439 h -2.067 v 3.152 h 2.042 v 3.384 h 4.159 v -3.384 h 3.023 v -3.152 z"
           style="fill:#231f20;fill-opacity:1;fill-rule:nonzero;stroke:none"
           id="path236"
           inkscape:connector-curvature="0" /><path
           d="m 299.61,95.2173 c -0.345,0.327 -0.749,0.603 -1.214,0.827 -0.465,0.223 -0.956,0.336 -1.473,0.336 -0.396,0 -0.762,-0.078 -1.098,-0.233 -0.335,-0.155 -0.504,-0.422 -0.504,-0.801 0,-0.362 0.185,-0.62 0.556,-0.775 0.37,-0.155 0.969,-0.327 1.795,-0.517 0.482,-0.103 0.969,-0.25 1.46,-0.439 0.491,-0.189 0.935,-0.439 1.331,-0.749 0.395,-0.31 0.714,-0.689 0.956,-1.137 0.241,-0.448 0.361,-0.982 0.361,-1.602 0,-0.809 -0.163,-1.494 -0.491,-2.053 -0.327,-0.56 -0.753,-1.013 -1.278,-1.357 -0.526,-0.345 -1.116,-0.594 -1.77,-0.749 -0.655,-0.155 -1.309,-0.233 -1.964,-0.233 -1.05,0 -2.079,0.168 -3.087,0.504 -1.007,0.336 -1.847,0.831 -2.519,1.486 l 2.377,2.506 c 0.379,-0.414 0.844,-0.758 1.395,-1.034 0.551,-0.276 1.137,-0.413 1.757,-0.413 0.344,0 0.685,0.081 1.021,0.245 0.335,0.164 0.503,0.453 0.503,0.866 0,0.396 -0.206,0.689 -0.62,0.878 -0.413,0.19 -1.059,0.388 -1.938,0.595 -0.448,0.103 -0.896,0.24 -1.343,0.413 -0.448,0.172 -0.848,0.404 -1.201,0.697 -0.353,0.293 -0.642,0.655 -0.866,1.086 -0.224,0.43 -0.336,0.947 -0.336,1.55 0,0.775 0.164,1.433 0.491,1.976 0.327,0.542 0.75,0.986 1.266,1.331 0.517,0.344 1.089,0.598 1.718,0.761 0.629,0.164 1.253,0.246 1.873,0.246 0.965,0 1.908,-0.151 2.829,-0.452 0.921,-0.301 1.701,-0.753 2.338,-1.356 z"
           style="fill:#231f20;fill-opacity:1;fill-rule:nonzero;stroke:none"
           id="path238"
           inkscape:connector-curvature="0" /><path
           d="m 312.8559,86.149 v 1.783 h -0.052 c -0.155,-0.293 -0.357,-0.569 -0.607,-0.827 -0.25,-0.258 -0.543,-0.483 -0.878,-0.672 -0.336,-0.189 -0.707,-0.344 -1.111,-0.465 -0.406,-0.12 -0.831,-0.181 -1.279,-0.181 -0.862,0 -1.589,0.155 -2.183,0.465 -0.595,0.31 -1.077,0.711 -1.447,1.201 -0.371,0.492 -0.637,1.051 -0.801,1.68 -0.163,0.629 -0.245,1.27 -0.245,1.925 v 7.957 h 4.262 V 92.04 c 0,-0.362 0.026,-0.707 0.077,-1.034 0.052,-0.328 0.152,-0.62 0.298,-0.878 0.146,-0.259 0.34,-0.461 0.582,-0.607 0.24,-0.147 0.559,-0.22 0.955,-0.22 0.74,0 1.305,0.275 1.692,0.827 0.388,0.55 0.582,1.196 0.582,1.937 v 6.95 h 4.237 V 86.149 Z"
           style="fill:#231f20;fill-opacity:1;fill-rule:nonzero;stroke:none"
           id="path240"
           inkscape:connector-curvature="0" /><path
           d="m 139.0729,57.4859 c -1.188,-0.543 -2.558,-0.814 -4.108,-0.814 -1.413,0 -2.717,0.232 -3.914,0.697 -1.197,0.465 -2.235,1.125 -3.113,1.977 -0.879,0.853 -1.567,1.873 -2.067,3.062 -0.5,1.188 -0.749,2.497 -0.749,3.926 0,1.464 0.254,2.791 0.762,3.979 0.508,1.188 1.21,2.2 2.106,3.036 0.895,0.835 1.945,1.476 3.151,1.925 1.206,0.447 2.507,0.671 3.902,0.671 1.291,0 2.561,-0.228 3.81,-0.684 1.249,-0.457 2.261,-1.124 3.036,-2.003 l -2.997,-2.997 c -0.413,0.569 -0.956,0.991 -1.627,1.266 -0.672,0.276 -1.361,0.414 -2.067,0.414 -0.775,0 -1.486,-0.142 -2.131,-0.426 -0.647,-0.285 -1.202,-0.676 -1.667,-1.176 -0.465,-0.5 -0.827,-1.09 -1.085,-1.77 -0.259,-0.68 -0.388,-1.425 -0.388,-2.235 0,-0.826 0.129,-1.584 0.388,-2.273 0.258,-0.689 0.615,-1.279 1.072,-1.77 0.456,-0.49 1.003,-0.874 1.64,-1.15 0.638,-0.275 1.334,-0.412 2.093,-0.412 0.879,0 1.645,0.171 2.3,0.516 0.654,0.344 1.179,0.792 1.575,1.343 l 3.075,-2.893 c -0.81,-0.93 -1.809,-1.666 -2.997,-2.209"
           style="fill:#231f20;fill-opacity:1;fill-rule:nonzero;stroke:none"
           id="path242"
           inkscape:connector-curvature="0" /><path
           d="m 144.525,57.162 h 4.315 v 19.532 h -4.315 z"
           style="fill:#231f20;fill-opacity:1;fill-rule:nonzero;stroke:none"
           id="path244"
           inkscape:connector-curvature="0" /><path
           d="m 160.8003,57.1628 v 1.783 h -0.052 c -0.155,-0.293 -0.357,-0.569 -0.607,-0.827 -0.25,-0.258 -0.542,-0.483 -0.878,-0.672 -0.336,-0.189 -0.707,-0.344 -1.111,-0.465 -0.405,-0.12 -0.831,-0.181 -1.279,-0.181 -0.861,0 -1.589,0.155 -2.183,0.465 -0.595,0.31 -1.077,0.711 -1.447,1.201 -0.371,0.492 -0.637,1.051 -0.801,1.68 -0.163,0.629 -0.245,1.27 -0.245,1.925 v 7.957 h 4.263 v -6.976 c 0,-0.361 0.025,-0.706 0.077,-1.033 0.052,-0.328 0.151,-0.62 0.297,-0.878 0.146,-0.259 0.34,-0.461 0.582,-0.607 0.241,-0.147 0.559,-0.22 0.955,-0.22 0.741,0 1.305,0.275 1.692,0.827 0.388,0.55 0.582,1.196 0.582,1.937 v 6.95 h 4.237 v -12.866 z"
           style="fill:#231f20;fill-opacity:1;fill-rule:nonzero;stroke:none"
           id="path246"
           inkscape:connector-curvature="0" /><path
           d="m 178.4951,63.6476 c 0,0.413 -0.065,0.818 -0.194,1.214 -0.129,0.397 -0.323,0.745 -0.581,1.046 -0.258,0.301 -0.577,0.547 -0.956,0.737 -0.379,0.19 -0.819,0.284 -1.318,0.284 -0.482,0 -0.913,-0.094 -1.291,-0.284 -0.379,-0.19 -0.702,-0.439 -0.97,-0.749 -0.267,-0.31 -0.473,-0.663 -0.619,-1.06 -0.147,-0.396 -0.22,-0.8 -0.22,-1.214 0,-0.413 0.073,-0.818 0.22,-1.214 0.146,-0.396 0.352,-0.749 0.619,-1.059 0.268,-0.31 0.591,-0.561 0.97,-0.75 0.378,-0.189 0.809,-0.284 1.291,-0.284 0.499,0 0.939,0.095 1.318,0.284 0.379,0.189 0.698,0.44 0.956,0.75 0.258,0.31 0.452,0.667 0.581,1.071 0.129,0.405 0.194,0.815 0.194,1.228 m 4.082,0 c 0,-0.895 -0.138,-1.757 -0.413,-2.584 -0.276,-0.826 -0.676,-1.554 -1.202,-2.182 -0.526,-0.63 -1.167,-1.133 -1.924,-1.512 -0.758,-0.379 -1.62,-0.568 -2.584,-0.568 -0.861,0 -1.675,0.177 -2.441,0.53 -0.767,0.352 -1.357,0.856 -1.77,1.511 h -0.052 v -1.68 h -3.901 v 19.532 h 4.237 v -8.035 h 0.052 c 0.361,0.43 0.869,0.827 1.524,1.189 0.654,0.361 1.455,0.542 2.403,0.542 0.93,0 1.769,-0.181 2.519,-0.542 0.749,-0.362 1.386,-0.853 1.911,-1.473 0.526,-0.62 0.931,-1.34 1.215,-2.157 0.284,-0.819 0.426,-1.676 0.426,-2.571"
           style="fill:#231f20;fill-opacity:1;fill-rule:nonzero;stroke:none"
           id="path248"
           inkscape:connector-curvature="0" /><path
           d="m 199.964,70.5713 -2.325,-6.278 h 4.599 z m 4.909,-13.409 -1.421,3.592 h -7.079 l -1.344,-3.592 h -4.805 l 7.674,18.292 h 4.288 l 7.595,-18.292 z"
           style="fill:#231f20;fill-opacity:1;fill-rule:nonzero;stroke:none"
           id="path250"
           inkscape:connector-curvature="0" /><path
           d="m 219.0329,62.7691 h -0.543 c -0.465,0 -0.934,-0.022 -1.408,-0.065 -0.474,-0.043 -0.895,-0.125 -1.265,-0.245 -0.371,-0.121 -0.677,-0.297 -0.918,-0.53 -0.241,-0.232 -0.361,-0.538 -0.361,-0.917 0,-0.241 0.055,-0.448 0.168,-0.62 0.111,-0.172 0.253,-0.31 0.426,-0.413 0.172,-0.104 0.37,-0.177 0.594,-0.22 0.223,-0.043 0.439,-0.064 0.646,-0.064 0.861,0 1.52,0.237 1.976,0.71 0.457,0.474 0.685,1.115 0.685,1.925 z m -7.776,5.503 c 0.757,0.723 1.64,1.266 2.647,1.628 1.009,0.361 2.038,0.542 3.088,0.542 1.085,0 2.002,-0.133 2.752,-0.4 0.748,-0.267 1.356,-0.681 1.821,-1.24 0.465,-0.56 0.805,-1.267 1.021,-2.119 0.215,-0.853 0.322,-1.865 0.322,-3.036 v -6.484 h -3.875 v 1.369 h -0.078 c -0.327,-0.534 -0.822,-0.948 -1.485,-1.24 -0.663,-0.293 -1.382,-0.439 -2.157,-0.439 -0.517,0 -1.051,0.069 -1.602,0.206 -0.551,0.138 -1.055,0.362 -1.512,0.672 -0.456,0.31 -0.83,0.723 -1.123,1.24 -0.293,0.517 -0.44,1.154 -0.44,1.912 0,0.93 0.254,1.679 0.763,2.248 0.507,0.568 1.162,1.007 1.963,1.317 0.801,0.31 1.692,0.517 2.674,0.62 0.982,0.104 1.938,0.155 2.868,0.155 v 0.207 c 0,0.637 -0.225,1.107 -0.672,1.408 -0.448,0.302 -0.999,0.452 -1.653,0.452 -0.604,0 -1.184,-0.129 -1.744,-0.387 -0.56,-0.259 -1.038,-0.569 -1.434,-0.93 z"
           style="fill:#231f20;fill-opacity:1;fill-rule:nonzero;stroke:none"
           id="path252"
           inkscape:connector-curvature="0" /><path
           d="m 234.5291,66.541 c -0.19,0.052 -0.375,0.086 -0.556,0.103 -0.18,0.017 -0.357,0.026 -0.529,0.026 -0.568,0 -1.047,-0.103 -1.434,-0.309 -0.387,-0.206 -0.697,-0.455 -0.93,-0.747 -0.233,-0.292 -0.401,-0.61 -0.503,-0.953 -0.104,-0.344 -0.156,-0.644 -0.156,-0.902 v -6.596 h -4.237 v 12.851 h 4.082 v -1.86 h 0.052 c 0.327,0.658 0.792,1.196 1.395,1.612 0.602,0.417 1.3,0.624 2.093,0.624 0.172,0 0.34,-0.008 0.503,-0.025 0.164,-0.017 0.297,-0.043 0.401,-0.078 z"
           style="fill:#231f20;fill-opacity:1;fill-rule:nonzero;stroke:none"
           id="path254"
           inkscape:connector-curvature="0" /><path
           d="m 244.2795,62.7691 h -0.543 c -0.465,0 -0.935,-0.022 -1.408,-0.065 -0.474,-0.043 -0.896,-0.125 -1.265,-0.245 -0.371,-0.121 -0.677,-0.297 -0.918,-0.53 -0.241,-0.232 -0.362,-0.538 -0.362,-0.917 0,-0.241 0.056,-0.448 0.168,-0.62 0.112,-0.172 0.254,-0.31 0.427,-0.413 0.171,-0.104 0.37,-0.177 0.594,-0.22 0.223,-0.043 0.439,-0.064 0.645,-0.064 0.862,0 1.52,0.237 1.977,0.71 0.456,0.474 0.685,1.115 0.685,1.925 z m -7.777,5.503 c 0.758,0.723 1.641,1.266 2.648,1.628 1.008,0.361 2.037,0.542 3.088,0.542 1.084,0 2.002,-0.133 2.751,-0.4 0.749,-0.267 1.356,-0.681 1.822,-1.24 0.465,-0.56 0.805,-1.267 1.02,-2.119 0.216,-0.853 0.323,-1.865 0.323,-3.036 v -6.484 h -3.875 v 1.369 h -0.078 c -0.327,-0.534 -0.822,-0.948 -1.485,-1.24 -0.663,-0.293 -1.383,-0.439 -2.157,-0.439 -0.518,0 -1.051,0.069 -1.602,0.206 -0.551,0.138 -1.056,0.362 -1.512,0.672 -0.456,0.31 -0.831,0.723 -1.124,1.24 -0.293,0.517 -0.439,1.154 -0.439,1.912 0,0.93 0.254,1.679 0.762,2.248 0.508,0.568 1.163,1.007 1.964,1.317 0.801,0.31 1.692,0.517 2.673,0.62 0.983,0.104 1.938,0.155 2.869,0.155 v 0.207 c 0,0.637 -0.225,1.107 -0.672,1.408 -0.448,0.302 -0.999,0.452 -1.654,0.452 -0.603,0 -1.184,-0.129 -1.744,-0.387 -0.56,-0.259 -1.037,-0.569 -1.433,-0.93 z"
           style="fill:#231f20;fill-opacity:1;fill-rule:nonzero;stroke:none"
           id="path256"
           inkscape:connector-curvature="0" /><path
           d="m 259.8581,57.1628 v 1.783 h -0.052 c -0.155,-0.293 -0.357,-0.569 -0.607,-0.827 -0.25,-0.258 -0.542,-0.483 -0.878,-0.672 -0.336,-0.189 -0.707,-0.344 -1.111,-0.465 -0.405,-0.12 -0.831,-0.181 -1.279,-0.181 -0.861,0 -1.589,0.155 -2.183,0.465 -0.595,0.31 -1.077,0.711 -1.447,1.201 -0.371,0.492 -0.637,1.051 -0.801,1.68 -0.163,0.629 -0.245,1.27 -0.245,1.925 v 7.957 h 4.263 v -6.976 c 0,-0.361 0.026,-0.706 0.077,-1.033 0.052,-0.328 0.151,-0.62 0.297,-0.878 0.146,-0.259 0.34,-0.461 0.582,-0.607 0.241,-0.147 0.559,-0.22 0.955,-0.22 0.741,0 1.305,0.275 1.692,0.827 0.388,0.55 0.582,1.196 0.582,1.937 v 6.95 h 4.237 v -12.866 z"
           style="fill:#231f20;fill-opacity:1;fill-rule:nonzero;stroke:none"
           id="path258"
           inkscape:connector-curvature="0" /></g></g></g></svg>